<?xml version="1.0" encoding="UTF-8"?><svg id="a" xmlns="http://www.w3.org/2000/svg" width="272.083" height="58.207" viewBox="0 0 272.083 58.207"><path d="M272.083,58.207H0V0h272.083v58.207Z" fill="none" stroke-width="0"/><path d="M91.783,30.753h-15.63c-1.33,0-2.429-.368-3.255-1.193-.458-.366-.733-.825-.917-1.375-.183-.458-.275-1.054-.275-1.697v-15.951h6.325c-.046.046-.046.366,0,1.008v5.317h7.288v-6.325h6.463v20.215ZM102.921,38.727v10.543h-6.371v-11.047h-21.498v-3.666h23.469c1.375,0,2.429.412,3.255,1.145.733.826,1.146,1.834,1.146,3.025ZM78.032,20.621v6.417h7.288v-6.417h-7.288ZM102.921,17.275h6.417v3.668s-.321-.046-.963-.046h-3.713c-.55,0-1.146.046-1.742.046v10.68h-6.371V9.803h6.371v7.472ZM136.938,31.302h-9.901v5.409h-6.463v-5.409h-8.709v-3.347h25.073v3.347ZM124.517,9.803c1.33,0,2.658.184,3.942.55,1.238.368,2.337.917,3.346,1.605.917.734,1.696,1.559,2.292,2.567.55,1.008.871,2.154.871,3.438s-.32,2.429-.871,3.438c-.642,1.008-1.421,1.879-2.338,2.521-1.008.733-2.108,1.237-3.346,1.558-1.284.368-2.613.55-3.896.55-1.33,0-2.613-.183-3.805-.55-1.283-.366-2.383-.871-3.3-1.603-1.008-.688-1.788-1.559-2.337-2.567-.596-.963-.871-2.063-.871-3.346,0-1.375.321-2.567.963-3.622.642-1.008,1.467-1.833,2.475-2.521,1.008-.641,2.108-1.145,3.346-1.513,1.192-.32,2.338-.504,3.53-.504ZM119.016,45.145v-6.554h6.417v7.242h22.048v3.62h-24.019c-1.375,0-2.429-.412-3.209-1.191-.825-.826-1.238-1.834-1.238-3.117ZM124.517,13.287c-1.467,0-2.521.458-3.163,1.284-.687.917-1.008,2.017-1.008,3.392s.366,2.475,1.146,3.3c.733.917,1.742,1.329,3.025,1.329,1.375,0,2.429-.458,3.163-1.375.687-.871,1.054-1.971,1.054-3.254,0-.55-.092-1.1-.229-1.697-.184-.55-.459-1.054-.779-1.513-.367-.412-.825-.779-1.33-1.054-.55-.275-1.146-.412-1.879-.412ZM139.689,40.012v-2.659c0-.275-.046-.596-.046-.963h-8.663v-3.254h8.663c0-2.109.046-4.172.046-6.097V9.987h6.463v30.024h-6.463ZM184.935,41.295v7.976h-6.462v-.368c0-.137,0-.275.045-.412v-5.5c0-.688-.045-1.422-.045-2.247-2.017,0-3.896-.046-5.639-.046h-13.567c-.412.046-.78.046-1.054.046h-.917v-3.666h11.138v-4.768h-15.034v-3.575h11.55c2.155.046,4.4.046,6.738.046,2.201,0,4.4,0,6.601-.046h11.596v3.575h-15.034v4.768h5.683c1.284,0,2.339.412,3.163,1.145.825.78,1.237,1.788,1.237,3.071ZM183.422,18.009c0,1.283-.32,2.429-.917,3.438-.641,1.099-1.467,2.016-2.521,2.75-1.099.779-2.337,1.375-3.712,1.787-1.467.458-2.98.642-4.584.642-1.741,0-3.346-.184-4.813-.642-1.467-.366-2.75-.963-3.758-1.741-1.1-.734-1.925-1.651-2.475-2.75-.596-1.008-.871-2.201-.871-3.484s.32-2.429.963-3.53c.596-1.008,1.467-1.925,2.567-2.751,1.053-.733,2.337-1.329,3.804-1.787,1.421-.412,2.934-.642,4.583-.642,1.467,0,2.934.184,4.4.55,1.376.368,2.659.917,3.759,1.605,1.054.734,1.925,1.651,2.612,2.704.642,1.1.963,2.385.963,3.851ZM177.006,18.009c0-1.467-.458-2.659-1.376-3.668-.963-.917-2.291-1.421-3.942-1.421-.917,0-1.695.138-2.337.412-.733.276-1.283.642-1.741,1.1-.504.504-.871,1.054-1.1,1.651-.275.641-.366,1.283-.366,1.925,0,1.467.458,2.612,1.375,3.529.871.918,2.246,1.376,4.171,1.376,1.742,0,3.071-.458,3.988-1.421.872-.918,1.33-2.109,1.33-3.484ZM217.21,15.076h5.593c0-.458.046-.918.046-1.376v-2.978c0-.504-.046-.78-.046-.78h6.463v22.232h-6.463v-4.997h-5.593v3.162h-15.63c-1.375,0-2.429-.366-3.208-1.099-.825-.688-1.238-1.742-1.238-3.117v-15.126h6.417c-.046,0-.046.32-.046.917v3.438c0,.504,0,1.008.046,1.513h7.196c0-.504.046-1.008.046-1.513v-3.438c0-.596-.046-.917-.046-.917h6.463v4.08ZM203.551,20.621v6.143h7.196v-6.143h-7.196ZM224.544,35.244c2.201,1.834,3.301,3.942,3.301,6.417,0,1.375-.322,2.567-.918,3.714-.641,1.099-1.513,2.062-2.52,2.888-1.1.779-2.339,1.421-3.714,1.879-1.421.458-2.888.688-4.446.688s-3.07-.23-4.446-.688c-1.421-.504-2.658-1.146-3.666-1.971-1.1-.825-1.925-1.787-2.521-2.888-.642-1.1-.917-2.337-.917-3.622,0-1.237.32-2.429.963-3.53.596-1.099,1.421-2.062,2.521-2.888,1.008-.825,2.246-1.467,3.666-1.971,1.375-.458,2.842-.687,4.4-.687,3.117,0,5.913.917,8.296,2.658ZM219.961,45.557c1.008-1.145,1.513-2.429,1.513-3.896,0-.641-.138-1.329-.414-2.017-.275-.641-.641-1.191-1.099-1.741-.504-.504-1.054-.917-1.651-1.238-.642-.275-1.329-.458-2.063-.458s-1.375.184-1.971.458c-.641.322-1.145.734-1.603,1.192-.458.55-.826,1.1-1.1,1.741-.276.688-.412,1.376-.412,2.063,0,.734.137,1.421.412,2.063.229.642.596,1.238,1.054,1.787.458.458,1.008.872,1.649,1.192.596.275,1.238.458,1.971.458,1.375,0,2.613-.55,3.714-1.605ZM217.21,23.601h5.593v-4.905h-5.593v4.905ZM261.541,31.302h-9.901v5.409h-6.463v-5.409h-8.709v-3.347h25.073v3.347ZM249.119,9.803c1.329,0,2.659.184,3.942.55,1.237.368,2.337.917,3.346,1.605.917.734,1.697,1.559,2.291,2.567.55,1.008.872,2.154.872,3.438s-.322,2.429-.872,3.438c-.641,1.008-1.421,1.879-2.337,2.521-1.008.733-2.109,1.237-3.346,1.558-1.283.368-2.613.55-3.896.55-1.329,0-2.613-.183-3.804-.55-1.284-.366-2.383-.871-3.3-1.603-1.008-.688-1.788-1.559-2.339-2.567-.595-.963-.871-2.063-.871-3.346,0-1.375.32-2.567.963-3.622.642-1.008,1.467-1.833,2.475-2.521,1.008-.641,2.109-1.145,3.346-1.513,1.192-.32,2.337-.504,3.53-.504ZM243.618,45.145v-6.554h6.417v7.242h22.048v3.62h-24.019c-1.375,0-2.429-.412-3.208-1.191-.826-.826-1.238-1.834-1.238-3.117ZM249.119,13.287c-1.467,0-2.521.458-3.163,1.284-.687.917-1.007,2.017-1.007,3.392s.366,2.475,1.145,3.3c.734.917,1.742,1.329,3.025,1.329,1.375,0,2.429-.458,3.162-1.375.688-.871,1.054-1.971,1.054-3.254,0-.55-.091-1.1-.229-1.697-.184-.55-.458-1.054-.78-1.513-.366-.412-.825-.779-1.329-1.054-.55-.275-1.146-.412-1.879-.412ZM264.291,40.012v-2.659c0-.275-.046-.596-.046-.963h-8.663v-3.254h8.663c0-2.109.046-4.172.046-6.097V9.987h6.463v30.024h-6.463ZM49.491,3.22l-7.172,13.411h3.586v26.032h-19.258v-13.559h13.149v-12.871h-13.016V3.22h-13.149v13.145H.083v12.684h13.548v13.874c0,6.635,5.429,12.064,12.064,12.064h22.092c6.635,0,12.064-5.429,12.064-12.064V3.22h-10.36Z" fill="#fff" stroke-width="0"/></svg>