<?xml version="1.0" encoding="UTF-8"?><svg id="a" xmlns="http://www.w3.org/2000/svg" width="272.083" height="58.207" viewBox="0 0 272.083 58.207"><path d="M272.083,58.207H0V0h272.083v58.207Z" fill="none" stroke-width="0"/><path d="M236.072,40.17c-1.745,0-3.153,1.408-3.153,3.137,0,1.745,1.408,3.153,3.153,3.153s3.137-1.408,3.137-3.153c0-1.729-1.4-3.137-3.137-3.137h0ZM236.072,46.081c-1.531,0-2.766-1.235-2.766-2.774,0-1.523,1.235-2.758,2.766-2.758,1.523,0,2.758,1.235,2.758,2.758,0,1.539-1.235,2.774-2.758,2.774h0Z" fill="#fff" fill-rule="evenodd" stroke-width="0"/><path d="M237.685,42.484c0-.296-.132-.609-.395-.758-.264-.156-.56-.173-.856-.173h-1.531v3.515h.428v-1.622h.79l1.004,1.622h.511l-1.062-1.622h0c.626-.017,1.111-.272,1.111-.963h0ZM235.99,43.109h-.658v-1.243h1.004c.436,0,.914.066.914.609,0,.716-.766.634-1.26.634h0Z" fill="#fff" fill-rule="evenodd" stroke-width="0"/><path d="M217.637,25.49l6.43-6.865h0c.372-.504.558-.857.558-1.159,0-.504-.434-.706-1.797-.706h-1.623v-4.334h17.561v4.334h-2.308c-2.664,0-3.16.403-6.877,5.089h0l-10.173,10.985v6.703h0c0,1.714.867,2.317,3.346,2.317h3.841v4.183h-24.595v-4.183h3.842c2.477,0,3.345-.603,3.345-2.317h0v-6.703l-11.981-13.253h0c-1.981-2.317-1.707-2.821-7.219-2.821h0v-4.334h22.244v4.334h-1.584c-1.611,0-2.293.302-2.293.907,0,.504.496.908.806,1.31h0l6.062,6.606h0c.718.749,1.596.846,2.417-.092h0Z" fill="#fff" fill-rule="evenodd" stroke-width="0"/><path d="M68.4,12.425h5.365v12.094h-4.955c-.439-2.418-1.951-3.358-3.332-4.627-2.49-2.288-7.879-4.192-12.414-4.192-5.851,0-10.79,1.815-10.79,4.485,0,7.409,33.467,1.513,33.467,15.522,0,7.307-7.169,11.389-20.042,11.389-4.457,0-11.201-1.383-15.18-3.496-1.248-.721-1.777.681-2.011,2.438h-5.502v-12.498h4.975c1.097,3.176,2.61,3.83,4,5.09,2.413,2.217,8.157,3.831,13.424,3.779,7.941-.078,10.673-1.814,10.673-4.334s-2.701-3.124-11.404-4.485h0l-7.389-1.209h0c-8.339-1.26-14.41-3.125-14.41-9.777,0-6.904,7.681-11.238,19.823-11.238,5.117,0,9.4.683,13.508,3.007,1.14.738,2.207.827,2.193-1.949h0Z" fill="#fff" fill-rule="evenodd" stroke-width="0"/><path d="M173.11,32.672l.106-13.441h0c0-1.763-.916-2.368-3.539-2.368h-3.081v-4.182h19.598v4.182h-2.555c-2.623,0-3.541.605-3.541,2.368h0v27.061l-7.672-.059-24.839-23.524v17.082h0c0,1.714.918,2.368,3.539,2.368h3.409v4.133h-20.352v-4.133h3.372c2.622,0,3.54-.654,3.54-2.368h0v-20.56h0c0-1.763-.918-2.368-3.54-2.368h-3.372v-4.182h17.598l21.328,19.992h0Z" fill="#fff" fill-rule="evenodd" stroke-width="0"/><path d="M107.464,11.112c-15.619,0-25.396,6.905-25.396,17.991,0,10.886,9.641,17.738,24.92,17.738,16.228,0,25.668-6.752,25.668-18.293,0-10.38-10.186-17.436-25.191-17.436h0ZM107.109,42.457c-8.645,0-13.615-4.99-13.615-13.606,0-8.415,5.186-13.405,14.047-13.405,8.501,0,13.471,5.09,13.471,13.758,0,8.466-5.042,13.253-13.902,13.253h0Z" fill="#fff" fill-rule="evenodd" stroke-width="0"/></svg>