<?xml version="1.0" encoding="UTF-8"?>
<svg xmlns="http://www.w3.org/2000/svg" width="272" height="58.207" viewBox="0 0 272 58.207"><path d="M39.827,32.866l17.941-17.941L42.843,0H0v57.262h42.843l15.259-15.259-18.275-9.138ZM54.322,14.925l-16.792,16.792L4.396,15.15,42.008,2.614l12.314,12.31ZM2.747,2.439h32.08L2.747,13.132V2.439ZM2.747,17.052l35.262,17.631h0l14.541,7.271h.002S2.747,54.406,2.747,54.406V17.052ZM41.832,54.823H11.118l40.953-10.236-10.24,10.236ZM102.953,37.667v-20.485h-5.141v6.281h-17.919v-6.281h-5.141v17.6l2.885,2.885h25.317ZM79.893,27.931h17.919v5.312h-17.919v-5.312ZM68.694,41.409h40.136v4.468h-17.408v11.411h-5.141v-11.411h-17.587v-4.468ZM144.856,27.635h5.922v4.468h-5.922v15.03h-5.097v-29.952h5.097v10.453ZM122.648,52.819h23.105v4.468h-25.362l-2.885-2.885v-10.96h5.141v9.377ZM188.257,26.693h5.922v4.468h-5.922v10.292h-5.097v-2.232h-29.417v-4.424h9.104v-7.836h5.141v7.836h15.172v-17.617h5.097v9.511ZM229.278,42.934l2.885,2.885v11.468h-5.141v-9.885h-24.496v-4.468h26.753ZM272,17.182v40.106h-5.097V17.182h5.097ZM173.57,23.086h-17.301v-4.424h19.513l2.885,2.885v11.363h-5.096v-9.824ZM173.924,41.698c-9.498-.019-15.208,2.84-15.219,8.225-.011,5.389,5.691,8.266,15.186,8.285,9.498.019,15.208-2.84,15.219-8.225.011-5.389-5.691-8.266-15.186-8.285ZM173.897,53.807c-6.268-.009-10.031-1.352-10.024-3.869.007-2.515,3.776-3.85,10.046-3.841,6.268.009,10.031,1.352,10.024,3.869-.007,2.515-3.776,3.85-10.046,3.841ZM227.066,21.893h-9.384c-2.006-2.475-5.142-3.988-8.846-3.988-6.469,0-11.213,4.61-11.213,10.913s4.744,10.913,11.213,10.913c3.817,0,7.033-1.606,9.028-4.217h9.202v6.048h5.097v-24.379h-5.097v4.711ZM208.836,35.187c-3.535,0-6.128-2.69-6.128-6.369s2.593-6.369,6.128-6.369,6.128,2.69,6.128,6.369-2.593,6.369-6.128,6.369ZM227.066,31.18h-7.252c.153-.755.235-1.544.235-2.362,0-.902-.1-1.767-.286-2.591h7.303v4.953ZM252.777,34.095l11.265,12.682-3.878,3.444-10.094-11.363-10.094,11.363-3.878-3.444,11.284-12.703v-16.058h5.394v16.079ZM124.272,31.647l-10.71,9.146-3.368-3.944,11.381-9.719v-9.114h5.394v9.114l11.382,9.719-3.368,3.944-10.71-9.146Z" fill="#fff" /></svg>
