<?xml version="1.0" encoding="UTF-8"?><svg id="a" xmlns="http://www.w3.org/2000/svg" width="272.083" height="58.207" viewBox="0 0 272.083 58.207"><path d="M272.083,58.207H0V0h272.083v58.207Z" fill="none" stroke-width="0"/><path d="M22.576,29.951h48.17v6.262c-16.228-2.566-31.925-2.568-48.17-.007v-6.255ZM22.576,37.917v6.63c16.814-5.741,31.4-5.728,48.17.039v-6.661c-16.23-2.567-31.922-2.568-48.17-.007ZM22.576,46.317v6.859c17.034-9.622,31.147-9.618,48.17.012v-6.831c-16.795-6.088-31.33-6.101-48.17-.04ZM22.576,22.001v6.255h48.17v-6.262c-16.228,2.566-31.925,2.568-48.17.007ZM22.576,13.66v6.63c16.248,2.561,31.94,2.56,48.17-.007v-6.661c-16.77,5.767-31.356,5.78-48.17.039ZM22.576,5.03v6.859c16.84,6.06,31.375,6.047,48.17-.04v-6.831c-17.023,9.63-31.136,9.634-48.17.012ZM101.467,35.657h-5.091v11.203c0,1.316.684,1.983,2.033,1.983h24.899v-4.096h-21.84v-9.089ZM97.295,31.71c-1.272-.495-2.381-1.183-3.295-2.044-.917-.86-1.628-1.89-2.114-3.058-.486-1.169-.733-2.441-.733-3.781,0-2.318.711-4.355,2.114-6.057h-4.084v-3.791h9.848v-5.463h5.133v5.463h9.766v3.791h-4.001c.676.824,1.207,1.744,1.577,2.737.385,1.037.583,2.154.583,3.32,0,1.342-.247,2.615-.735,3.781-.486,1.168-1.197,2.197-2.112,3.058-.917.861-2.033,1.549-3.317,2.044-1.286.496-2.734.747-4.305.747-1.598,0-3.052-.251-4.325-.747ZM96.582,24.905c.223.688.559,1.306.996,1.837.433.529.996.957,1.669,1.272.674.316,1.472.476,2.373.476s1.699-.16,2.373-.476c.674-.314,1.235-.742,1.669-1.272.437-.529.77-1.148.998-1.837.225-.692.338-1.42.338-2.166s-.113-1.474-.338-2.165c-.225-.688-.561-1.306-.998-1.838-.435-.529-.996-.957-1.669-1.272-.674-.315-1.472-.475-2.373-.475s-1.699.16-2.373.475c-.674.316-1.237.745-1.669,1.272-.439.533-.772,1.153-.996,1.838-.225.689-.34,1.417-.34,2.165s.115,1.476.34,2.166ZM121.98,8.302h-5.091v29.048h5.091v-13.021h6.764v-4.097h-6.764v-11.93ZM163.582,18.657c.126-1.862.192-3.708.192-5.487v-2.01c0-1.317-.683-1.983-2.031-1.983h-24.899v4.097h21.842c.024,3.422-.19,7.129-.636,11.022h-26.773v4.009h16.573v5.997h-11.563v4.097h22.698v11.099h5.089v-14.172c0-.395-.087-.669-.257-.813-.17-.14-.435-.211-.788-.211h-10.089v-5.997h16.573v-4.009h-6.541c.279-1.9.484-3.796.611-5.638ZM191.847,34.383c-.992-.911-1.883-1.951-2.645-3.092-.767-1.143-1.383-2.425-1.835-3.809-.452-1.381-.682-2.962-.682-4.7v-7.194h7.108v-4.315h-19.649v4.315h7.322v7.106c0,1.705-.235,3.301-.701,4.744-.47,1.447-1.116,2.802-1.922,4.027-.802,1.225-1.772,2.383-2.88,3.443-1.1,1.051-2.323,2.07-3.633,3.031l-.055.04,3.042,3.284.037.04.043-.032c2.021-1.483,3.805-3.081,5.299-4.75,1.466-1.638,2.653-3.39,3.532-5.212.903,1.791,2.076,3.485,3.485,5.037,1.438,1.584,3.007,2.903,4.66,3.922l.046.029,2.56-3.276.04-.049-.051-.038c-1.087-.789-2.138-1.648-3.119-2.552ZM203.948,49.323h5.091V8.302h-5.091v41.021ZM196.454,21.411h-5.909v4.403h5.909v23.509h4.961V8.302h-4.961v13.109ZM244.331,8.302v41.021h5.176V8.302h-5.176ZM237.361,34.226c-1.245-.924-2.386-1.995-3.394-3.181-1.004-1.184-1.821-2.523-2.432-3.983-.606-1.459-.915-3.076-.915-4.805v-6.888h8.736v-4.316h-22.775v4.316h8.821v6.8c0,1.703-.314,3.327-.936,4.827-.626,1.506-1.472,2.92-2.519,4.201-1.049,1.289-2.286,2.484-3.673,3.552-1.389,1.071-2.857,2.04-4.36,2.878l-.059.034,2.651,3.596.03.04.045-.02c1.023-.463,2.114-1.076,3.242-1.819,1.124-.741,2.222-1.588,3.26-2.518,1.037-.927,2.019-1.95,2.92-3.044.867-1.054,1.592-2.145,2.159-3.246.476.952,1.087,1.882,1.814,2.765.753.913,1.606,1.797,2.535,2.628.925.828,1.942,1.609,3.025,2.321,1.081.711,2.221,1.352,3.392,1.906l.049.023,2.211-3.586.034-.055-.057-.03c-1.274-.666-2.554-1.473-3.803-2.398Z" fill="#fff" stroke-width="0"/></svg>