<?xml version="1.0" encoding="UTF-8"?><svg id="a" xmlns="http://www.w3.org/2000/svg" width="271.809" height="58.293" viewBox="0 0 271.809 58.293"><path d="M56.88,25.892c2.096-1.085,1.864-3.721,1.864-3.721-.465-4.029-4.651-4.261-4.651-4.261-.387-5.582-6.048-3.719-6.048-3.719-1.317-3.335-4.957-2.486-4.957-2.486-.236-4.726-4.109-4.569-4.109-4.569.462-2.404-1.706-3.955-1.706-3.955-2.478-1.782-4.728.154-4.728.154C31.92-.228,28.668.003,28.668.003c-4.184.386-3.719,4.107-3.719,4.107-1.553-1.702-3.648-.775-3.648-.775-2.786,1.473-1.314,4.651-1.314,4.651-4.648-.694-4.262,4.577-4.262,4.577-1.859-2.097-4.11-.7-4.11-.7-1.859,1.007-1.396,3.413-1.396,3.413-1.627-2.015-4.03-.854-4.03-.854-2.865,1.706-1.778,4.805-1.778,4.805-3.103-.308-4.113,2.323-4.113,2.323-1.238,3.102,1.784,5.506,1.784,5.506-1.084,1.471-.931,3.26-.931,3.26.465,2.861,3.567,3.171,3.567,3.171-1.784,4.034,2.557,4.727,2.557,4.727-3.567,3.646.465,6.127.465,6.127-1.241,1.24-1.163,3.178-1.163,3.178.229,2.946,3.412,4.032,3.412,4.032-.157,3.407,1.47,4.262,1.47,4.262,2.559,2.399,5.741.463,5.741.463.926,1.859,2.711,2.017,2.711,2.017,3.484,0,3.872-2.562,3.872-2.562.621.775,2.483.857,2.483.857,2.168,0,3.179-2.247,3.179-2.247.775,2.013,3.41,2.63,3.41,2.63,1.939,0,2.713-1.082,2.713-1.082,1.317,2.247,3.563,2.247,3.563,2.247,3.102-.154,3.799-2.247,3.799-2.247,2.947,1.702,5.115,0,5.115,0,2.716-1.862.93-5.349.93-5.349,2.173,0,3.101-1.861,3.101-1.861,1.007-2.405-1.163-4.649-1.163-4.649,3.41-1.552.392-5.657.392-5.657,5.422-.546,3.485-5.351,3.485-5.351,3.023-.618,3.257-2.945,3.257-2.945.464-3.022-1.166-4.185-1.166-4.185ZM17.201,9.383s2.012-2.092,3.871.078c0,0-2.172-3.643.466-5.27,0,0,2.639-2.013,4.184,2.17,0,0-1.47-5.119,2.641-5.425,0,0,3.174-.931,3.641,4.264,0,0,2.013-3.022,4.492-1.322,0,0,2.483,1.631.624,4.652,0,0,2.636-1.239,4.029.235,0,0,1.782,1.314,0,4.183,0,0-.784,1.236-1.602,2.55-.815-.554-1.686-1.027-2.587-1.446.672-1.102,1.478-2.654,1.478-2.654.541-1.629-.928-.389-.928-.389-.658.554-1.656,1.642-2.282,2.342-.516-.178-1.041-.331-1.577-.463.432-1.972.678-4.952.678-4.952.078-1.241-.7-.234-.7-.234-.904,1.129-1.6,3.572-1.912,4.817-.658-.089-1.325-.145-2.004-.162-.329-.76-.733-1.348-.733-1.348-.313-.466-.39,0-.39,0l-.444,1.38c-.802.048-1.592.134-2.363.282-.536-1.138-1.578-3.265-2.193-3.991,0,0-.851-1.008-.698.389,0,0,.491,2.562.971,4.072-.643.197-1.27.43-1.881.694-.476-.616-1.213-1.516-1.994-2.251,0,0-1.242-1.24-.618.389,0,0,.75,1.499,1.285,2.502-.799.424-1.555.915-2.279,1.448-.991-1.659-2.572-4.864-1.174-6.539ZM46.634,30.721c0,9.588-7.801,17.388-17.39,17.388-.013,0-.026-.002-.04-.002v-.068h-.011l.002.068c-9.565-.027-17.339-7.814-17.339-17.385s7.8-17.389,17.388-17.389,17.39,7.801,17.39,17.389ZM5.647,36.279s-1.549-2.404,1.397-3.956c0,0-4.96.546-5.196-2.325,0,0-.228-3.099,3.57-3.099,0,0-5.973-.852-4.267-4.962,0,0,1.627-3.644,5.35-1.006,0,0-3.1-3.181-.156-5.351,0,0,2.715-1.859,4.881,1.398,0,0-1.547-2.79.853-4.417,0,0,2.764-1.797,5.895,3.659-.758.59-1.465,1.237-2.122,1.937-.44-.708-1.215-1.724-2.376-2.42,0,0-.622-.463-.386.462,0,0,.585,1.88,1.476,3.491-.328.436-.638.885-.927,1.35-1.241-.647-3.623-1.866-4.579-2.203,0,0-.856-.31-.388.388,0,0,1.737,2.186,3.888,3.812-.265.573-.503,1.161-.708,1.764-1.269.055-1.862.315-1.862.315.218.261.885.765,1.432,1.161-.197.787-.356,1.589-.447,2.412-1.753.279-4.317.849-4.317.849-1.321.538-.468.773-.468.773.562.165,3.237.312,4.668.381,0,.01-.001.019-.001.029,0,.58.034,1.152.087,1.718-3,1.138-3.202,1.827-3.202,1.827.374.265,2.275-.083,3.416-.324.146.819.335,1.622.586,2.4-2.032.668-5.31,1.459-6.095-.064ZM27.891,54.184s-.541,1.242-2.632,1.162c0,0-1.706-.233-1.936-1.549,0,0-.231,3.49-2.945,3.562,0,0-2.791.312-3.103-3.333,0,0-2.326,3.646-5.194,1.396,0,0-2.559-2.248,1.01-6.121,0,0-4.186,2.246-5.507-.776,0,0-.93-3.489,2.327-4.342,0,0-3.022-.308-3.331-2.711,0,0-.045-3.008,5.421-4.428.351.955.771,1.874,1.269,2.747-3.382,1.133-3.589,2.066-3.589,2.066.508.511,3.133-.177,4.526-.589.334.475.688.933,1.065,1.373-2.151,1.655-3.806,3.714-3.806,3.714-.547,1.238.925.465.925.465.898-.56,3.176-1.924,4.371-2.637.365.339.739.665,1.131.974-.456,1.695-.305,2.437-.305,2.437.343-.05,1.139-.862,1.678-1.451.618.401,1.265.759,1.931,1.086-.366,1.965-.589,5.017-.589,5.017,0,1.552.7.233.7.233.227-.848,1.249-3.227,1.785-4.451.55.196,1.112.366,1.685.51-.083,2.419.715,3.941.715,3.941.452-.279.674-2.45.762-3.635.891.147,1.798.239,2.727.252-.077,1.776-.333,3.961-1.088,5.088ZM51.382,41.393s-.313,2.249-2.714,2.096c0,0,3.565,2.092,2.245,4.73,0,0-.771,1.935-3.795,1.156,0,0,2.943,3.878-.156,5.739,0,0-3.179,1.862-5.424-2.248,0,0,1.083,3.565-1.939,4.11,0,0-3.022.848-4.109-2.869,0,0-.695,1.703-2.559,1.857,0,0-2.244.085-2.71-1.78,0,0-.522-2.751-.89-5.079,1.102-.005,2.178-.119,3.227-.31-.121,2.923.609,3.838.609,3.838.578.058.984-2.795,1.153-4.252.621-.179,1.229-.385,1.821-.626,1.251,4.719,2.449,5.264,2.449,5.264.67-.486-.354-4.367-.827-6.017.59-.31,1.165-.643,1.715-1.013.907.821,1.746,1.141,1.746,1.141.249-.301-.243-1.301-.624-1.975.654-.516,1.273-1.071,1.851-1.669,3.904,2.457,4.824,2.249,4.824,2.249.235-.836-2.418-2.747-3.652-3.583.43-.54.824-1.107,1.192-1.693,1.477.347,3.23.391,3.23.391.11-.274-1.562-1.123-2.53-1.587.359-.68.665-1.39.937-2.117l2.757.841s2.634.774,2.172,3.407ZM52.467,31.861s2.4,1.315,1.315,3.874c0,0-.774,2.168-4.959.93l-2.034-.434c.289-.917.487-1.87.63-2.842,1.009.316,2.895.815,3.237.254,0,0,.617-.833-3.062-2.105.012-.273.041-.541.041-.816,0-.463-.036-.917-.069-1.372,1.341.058,4.097.028,4.907-1.132,0,0-.502-.912-5.109-.528-.132-.788-.298-1.564-.527-2.315.676-.515,1.292-1.266,1.292-1.266.071-.309-1.866-.389-1.866-.389-.008,0-.013,0-.02,0-.267-.645-.568-1.272-.904-1.878.857-.889,2.263-2.393,2.79-3.236,0,0,.772-1.319-.467-.545,0,0-2.042,1.363-3.286,2.234-.37-.535-.77-1.044-1.193-1.536.516-.95,1.346-2.608,1.24-3.254,0,0-.733-.195-2.441,1.983-.64-.616-1.327-1.183-2.05-1.702.881-1.028,1.791-2.045,2.145-2.294,0,0,2.407-2.251,4.264-.385,0,0,1.088,1.084.545,2.787,0,0,3.565-2.945,5.349-.311,0,0,1.779,2.17-.621,4.186,0,0,4.263-2.016,5.583.623,0,0,1.857,3.719-2.095,5.267,0,0,2.013.391,1.937,3.336,0,0,.312,3.41-4.57,2.868ZM30.297,7.212h-2.713l1.239-2.012,1.475,2.012ZM14.641,49.301s1.005,1.006,1.781,1.393c0,0-1.706.775-2.247,1.085,0,0,.311-1.86.466-2.478ZM43.938,49.068s.231,1.472.078,2.4c0,0-1.474-.539-1.782-1.315,0,0,1.472-.696,1.705-1.085ZM50.681,22.171c.623.233,2.716.541,2.716.541-.314.157-2.019,2.015-2.019,2.015,0-.618-.697-2.556-.697-2.556ZM6.579,25.513s-1.704-1.857-2.019-2.015c0,0,2.092-.308,2.716-.541,0,0-.697,1.938-.697,2.556ZM29.244,13.936c-9.255,0-16.784,7.53-16.784,16.785s7.529,16.783,16.784,16.783,16.784-7.529,16.784-16.783-7.529-16.785-16.784-16.785ZM29.244,46.504c-8.704,0-15.784-7.08-15.784-15.783s7.081-15.785,15.784-15.785,15.784,7.081,15.784,15.785-7.081,15.783-15.784,15.783ZM28.449,35.837c-.017-.099-.028-.184-.032-.261-.005-.074-.007-.138-.007-.178l.03-1.262c0-.188-.005-.428-.016-.72l-.03-1.032c-.021-.359-.032-.681-.037-.966-.006-.286-.008-.52-.008-.699,0-.216.005-.419.015-.608.009-.184.023-.352.047-.567,0-.153.004-.312.014-.474.011-.182.017-.375.017-.591l-.045-1.834.003-.804c.008-.065.012-.132.012-.203,0-.146-.005-.288-.017-.431l-.09-.701c-.023-.133-.061-.252-.113-.356l-.098-.198-.213-.061c-.154-.044-.297-.08-.434-.108-.157-.032-.308-.048-.451-.048h-.712l-.146.148c-.094.095-.172.198-.231.301-.072.126-.119.258-.117.304-.045.133-.072.271-.079.405-.006.101-.009.203-.009.304l.067,1.529-.042.334c-.006.074-.01.16-.006.196-.023.187-.034.347-.034.481v2.326c0,.06.008.124.027.208.015.068.043.157.087.279l.039,3.467c-.052.107-.077.212-.077.317v.138c0,.087.017.173.052.261.002.011.005.021.007.031-.005.021-.008.042-.009.058-.034.118-.05.223-.05.321v.267c0,.103.014.216.033.285.011.112.022.207.033.275.005.044.01.078.008.145-.009.06-.013.122-.016.229-.006.043-.009.087-.011.131-.04.198-.065.364-.076.5-.011.146-.017.243-.017.29,0,.128.021.25.062.363.045.122.109.226.192.311.035.035.082.08.146.137.088.077.192.146.309.202l.402.066c.12,0,.247-.015.366-.041.119-.024.248-.062.386-.111l.177-.096c.058-.022.12-.049.185-.078.049-.022.108-.046.179-.073l.31-.112.022-.467c.014-.048.028-.106.05-.27v-.625c0-.075-.005-.17-.018-.281l-.035-.353ZM25.846,34.004s0,0,0,.002c.001-.006.002-.01.002-.01,0,0,0,.003-.001.008ZM25.497,35.335l.058.65c.002.184-.008.313-.027.434-.017.108-.037.212-.06.313-.104.263-.208.397-.336.492-.144.104-.311.157-.487.157l-.315-.016c-.042-.008-.089-.021-.141-.037-.001,0-.004,0-.007,0l-.144.078-.179-.036c-.136-.028-.262-.053-.379-.072-.176-.031-.3-.028-.499-.011l-.517.05c-.131.011-.184.014-.229.014h-.152c-.071,0-.14-.004-.21-.009-.092-.008-.163-.017-.235-.027-.172-.029-.304-.049-.401-.058-.005,0-.01,0-.014,0-.088.047-.164.076-.241.095-.087.018-.145.027-.202.034-.076.008-.132.012-.177.012h-.976c-.154,0-.217-.011-.283-.032l-.006-.002c-.083.042-.158.072-.221.093-.093.031-.183.048-.268.048h-.107c-.062,0-.14-.006-.232-.021-.051-.009-.1-.014-.153-.018-.097-.007-.202-.024-.312-.051-.127-.021-.249-.042-.333-.051,0-.01-.07,0-.17.009-.069.006-.147.009-.235.009h-.412c-.081,0-.152-.003-.213-.01l-.941-.051c-.175-.01-.278-.015-.312-.015l-.208-.002-.149-.15c-.039-.039-.077-.08-.116-.126-.041-.049-.077-.096-.105-.138-.014-.004-.069-.081-.111-.166-.054-.105-.083-.224-.083-.346.019-.164.038-.244.062-.318l.055-.211c.011-.041.026-.08.044-.116.054-.165.13-.294.23-.395.147-.146.327-.223.521-.223h.125l.111.06.152.046-.024.046.062.409.053-.508.24-.042c.101-.02.173-.025.226-.025l.089.008.293-.085c.095,0,.191.007.288.021.028.004.057.01.084.016l.245-.123.237.178h1.495c.043-.01.099-.021.166-.032.175-.029.603-.025.857-.035.363-.018.44-.008.63,0,.224.01.488.005.783.015.134.006.267.008.402.008h.396c.04,0,.077,0,.111-.005.27-.022.478-.009.661-.024.156-.012.291-.017.403-.017l.109-.012c.172-.017.229-.018.257-.018.218,0,.428.021.625.064h.003c.186.041.371.095.556.165l.294.11ZM16.479,30.494c.058.158.135.345.229.556.137.352.299.652.482.895.21.277.465.482.69.572.102.063.22.124.346.178.12.053.249.101.338.128.252.115.481.197.687.251.22.056.428.084.618.084.47,0,.928-.076,1.363-.226.433-.151.843-.379,1.222-.677.4-.317.711-.688.926-1.099.22-.421.331-.892.331-1.398,0-.082-.012-.17-.038-.272l-.035-.131.042-.847c0-.106-.032-.191-.076-.297l-.123-.279c-.103-.188-.181-.338-.233-.457-.031-.072-.055-.126-.082-.238-.054-.161-.17-.306-.377-.471-.137-.108-.325-.233-.583-.379-.249-.129-.461-.232-.638-.306-.203-.086-.382-.134-.546-.145-.125-.03-.25-.052-.374-.067-.115-.014-.23-.031-.428-.057-.111,0-.229-.005-.352-.014-.393-.029-.772-.023-1.086.074-.203.063-.39.159-.609.33-.056.056-.111.108-.171.164-.053.049-.107.096-.224.204-.036.043-.074.083-.121.126-.06.056-.119.11-.231.214l-.166.135c-.055.042-.117.097-.184.164-.136.135-.249.329-.346.594-.079.213-.153.486-.211.785-.023.082-.054.242-.089.483-.031.212-.067.487-.108.828l-.013.111.035.106c.032.095.076.222.134.38ZM19.143,30.456l-.078-.256-.173-.087c-.016-.045-.029-.087-.038-.128-.02-.083-.035-.162-.042-.234l-.024-.11c-.013-.039-.023-.087-.033-.145-.013-.074-.024-.16-.033-.186l-.459-.201.466.18v-.003c.029-.072.06-.158.096-.285l.044-.098c.021-.035.04-.07.062-.115.051-.088.105-.163.161-.222.055-.059.111-.107.173-.147.07-.047.155-.091.249-.133.072-.031.154-.064.246-.097.064.04.133.068.203.085.258.064.462.032.635.122.135.069.261.165.333.234.106.148.195.31.26.477.059.15.088.318.088.499,0,.123-.032.236-.098.347-.086.145-.208.288-.343.409-.171.14-.34.241-.5.304-.15.06-.292.088-.431.088-.037-.002-.086-.014-.142-.028s-.153-.049-.357-.152c-.103-.039-.188-.075-.263-.116ZM39.471,36.307l-.073-.183c-.006-.041-.015-.072-.024-.08v-.405l-.886-.186c-.174-.032-.295-.047-.282-.041-.071-.011-.138-.019-.211-.026-.139-.012-.303-.019-.441.02-.059.014-.109.028-.159.062h-.458c-.117,0-.246-.003-.387-.008-.233-.008-.541-.005-.787-.01.017-.038.034-.077.049-.116.066-.179.1-.36.1-.541,0-.215-.038-.418-.112-.605-.043-.107-.102-.207-.177-.308.161-.09.327-.199.499-.338.206-.166.413-.369.614-.604l.144-.262.133-.394c.014-.041.032-.083.077-.185l.059-.184c.011-.034.022-.069.036-.104l.094-.319-.056-1.123c0-.197-.058-.416-.178-.671-.095-.201-.225-.429-.407-.708-.047-.065-.094-.125-.141-.183.022-.006.044-.012.065-.019l.237.051c.171,0,.319-.002.442-.008.171-.008.318-.035.389-.066.234-.055.425-.164.57-.328.149-.173.228-.397.228-.647,0-.11-.012-.219-.035-.318l-.072-.295c-.04-.108-.081-.198-.122-.273-.044-.081-.095-.157-.154-.231l-.15-.19-.351-.005c-.032-.003-.066-.01-.189-.038-.076-.008-.138-.017-.185-.025-.1-.019-.168-.024-.204-.024-.08,0-.163.008-.25.024l-.206.037c-.053.013-.097.022-.205.038l-.232-.077c-.068-.024-.137-.037-.205-.037l-.164.019c-.028.003-.054.007-.079.013l-.218.074c-.019-.001-.039-.003-.058-.005l.004-.095c.004-.089.021-.219.048-.389l.009-.246c.007-.057.012-.117.012-.183,0-.21-.016-.387-.05-.543-.04-.178-.095-.32-.205-.48-.109-.13-.259-.229-.449-.296-.284-.098-.687-.099-1.033-.044l-.778.076v.323l-.129.247c-.038.096-.062.203-.071.322-.006.077-.009.168-.009.273v.191c0,.082.005.179.015.236l.015.391c0,.032-.002.062-.005.093-.006.069-.009.13-.009.182l-1.987-.158c-.229,0-.415.036-.573.109-.196.093-.341.238-.432.449-.042.118-.074.25-.093.391-.019.131-.028.287-.028.465,0,.143.012.263.036.364.022.096.055.184.099.261.062.158.181.282.335.349.111.05.216.075.32.075h.145c.085,0,.207-.011.282-.03.07,0,.136-.003.275-.015l.151-.015c.081.02.168.026.204.025l.219.033c-.042.048-.084.096-.131.146l-.024.02c-.157.125-.288.29-.39.488-.091.176-.163.378-.208.585-.058.221-.096.438-.113.649-.016.197-.024.394-.024.591v.236c0,.117.019.233.035.262.017.114.047.223.096.334.032.068.068.136.1.191.193.344.386.636.572.867.2.249.382.429.534.532.172.134.377.233.597.314-.047.086-.095.171-.123.272-.058.206-.087.441-.087.698,0,.143.016.274.047.397.011.042.025.084.042.124-.103.013-.187.021-.25.025l-.088.01-.283-.034c-.042-.021-.081-.038-.115-.052-.111-.047-.223-.07-.332-.07-.039,0-.119.005-.259.021l-.321.04c-.066,0-.132.008-.152.016h-.153c-.039,0-.119.005-.246.018l-.334.044c-.064,0-.124.007-.235.022l-.656-.048-.167.332c-.019.038-.038.084-.057.14l-.121.395c-.039.112-.058.229-.058.345l.172.504c.047.119.152.284.384.392.122.058.27.092.45.106.12.011.253.02.4.025.142.005.299.01.498.008l1.015-.034,1.213.125c.081,0,.152-.013.236-.031.055-.015.11-.036.182-.071.08.041.17.071.299.071l.324-.068c.053.009.125.019.126.013.099.033.201.055.303.062.232.021.41.008.565-.062.065-.027.134-.063.208-.108l.046-.027c.013,0,.026.003.04.005.074.01.16.022.27.043.129.023.232.037.33.046l.167.007c.073,0,.135-.004.211-.014.01,0,.02-.003.029-.005l.718.367v-.393l.449.036c.081.005.156.008.226.008l.254-.003c.337.035.515.049.584.049l.15-.018c.041-.008.088-.02.186-.059h.208l.146-.147c.118-.119.205-.268.259-.44.046-.146.069-.306.069-.477,0-.087-.009-.173-.031-.29l.021-.058ZM34.761,31.366c-.05.096-.131.197-.241.3-.106.099-.208.168-.304.206-.232.093-.461.062-.595-.005-.078-.039-.146-.104-.223-.215-.055-.072-.1-.166-.134-.277-.033-.11-.059-.242-.077-.393l.06-.197c.021-.066.042-.123.071-.183.021-.048.046-.088.076-.123.007-.008.01-.01.01-.01l.332-.178c.035-.017.07-.036.117-.061.014.004.025.007.029.009.024.012.049.022.074.03l.278.049c.07,0,.13.015.189.047.076.041.143.097.177.135.067.096.122.202.163.314.035.096.053.191.053.285,0,.104-.019.19-.058.266ZM35.473,26.481h-.002s-.002,0-.004,0h.006ZM30.963,28.301h0s0,0,0,0ZM34.403,37.348h0,0s0,0,0,0ZM36.62,37.197v-.009h0l.004.015-.004-.007ZM38.64,37.254h0s0,0,0,0ZM40.269,23.751h.725c.155,0,.311.017.466.048.138.029.28.065.428.111l.236.072.086.232c.035.094.068.194.097.3.033.117.056.242.069.372.002.147.007.244.016.341.011.127.017.254.017.381,0,.059-.004.116-.01.175l-.005.389c-.011.147-.016.235-.016.305v.634c0,.163.01.343.028.54.011.242.021.414.032.541.011.154.017.253.017.3,0,.081-.003.166-.009.253l-.025.272c.003.053-.003.167-.014.291-.009.094-.013.192-.013.297-.032.297-.049.503-.054.679-.005.182-.008.332-.008.45,0,.18.002.411.008.692.005.275.022.591.052.944.002.225.006.394.016.553.011.18.016.344.016.495l.022.375c.005.132.008.245.008.343,0,.057-.004.119-.011.183-.004.034-.004.068-.004.107,0,.071-.003.148-.009.232-.005.062-.007.121-.007.179-.021.207-.03.319-.03.397v.151c0,.052.001.11.006.18.004.074.015.156.032.255.015.162.025.263.035.35.012.113.018.212.018.3l-.04,1.291-.428.217c-.075.04-.145.073-.212.101l-.229.112c-.138.051-.266.087-.385.111-.12.026-.251.041-.381.041l-.394-.062-.271-.166c-.034-.024-.067-.054-.097-.088-.112-.085-.2-.192-.257-.316-.061-.132-.092-.282-.092-.446,0-.048.005-.145.017-.292.011-.138.033-.311.065-.519-.003.009-.002-.047.006-.11l.003-.438c-.016-.069-.025-.135-.028-.2-.021-.109-.032-.206-.032-.296v-.267c0-.077.01-.158.031-.246l.03-.14c-.009-.034-.017-.067-.022-.101-.015-.08-.023-.169-.023-.261l.077-3.615c-.012-.037-.021-.079-.026-.124l-.04-.142c-.043-.105-.067-.197-.077-.286-.007-.065-.01-.122-.01-.167v-2.364c0-.132.011-.282.035-.451.007-.119.018-.243.03-.335.006-.053.011-.094.011-.118-.011-.102-.015-.167-.015-.24,0-.036-.002-.073-.005-.112-.006-.073-.01-.151-.01-.239-.018-.07-.03-.208-.03-.336v-.609c0-.111.003-.22.009-.326.007-.132.024-.253.053-.364.007-.089.058-.234.14-.37.066-.11.146-.213.236-.303l.146-.145Z" fill="#fff" stroke-width="0"/><path d="M89.486,32.421v2.476c0,.176-.066.329-.198.462-.132.132-.286.197-.462.197h-12.276v9.042c0,.176-.066.33-.198.462-.132.133-.286.198-.462.198h-3.102v-9.702h-13.002v-3.135h29.7ZM85.658,26.944c0,.572-.198,1.045-.594,1.419s-.869.561-1.419.561h-17.985c-.594,0-1.078-.192-1.452-.577-.375-.385-.561-.853-.561-1.402v-12.672h3.696v4.059h14.586v-4.059h3.729v12.672ZM81.929,21.499h-14.586v4.026c0,.22.11.33.33.33h13.926c.22,0,.33-.11.33-.33v-4.026ZM101.267,21.499c0,.924.214,1.771.644,2.541.429.771,1.017,1.49,1.765,2.161.748.672,1.611,1.304,2.591,1.897.979.595,2.018,1.167,3.118,1.717l-2.112,2.31c-.66-.264-1.359-.61-2.096-1.039-.737-.43-1.463-.896-2.178-1.403-.715-.506-1.381-1.027-1.997-1.567-.616-.538-1.133-1.061-1.551-1.567-.792,1.057-1.837,2.14-3.135,3.251-1.298,1.111-2.838,2.128-4.62,3.052l-2.508-2.376c1.012-.483,2.018-1.05,3.02-1.699,1.001-.648,1.886-1.358,2.656-2.128.77-.771,1.397-1.59,1.881-2.459.483-.869.726-1.776.726-2.723v-7.193h3.795v7.227ZM116.216,44.598c0,.176-.066.33-.198.462-.132.133-.286.198-.462.198h-18.249c-.528,0-.996-.192-1.403-.577-.407-.386-.61-.864-.61-1.436v-8.349h3.795v6.896c0,.11.033.192.099.248.066.054.132.082.198.082h16.83v2.475ZM115.523,35.953c0,.176-.066.33-.198.462-.132.132-.287.198-.462.198h-3.102V13.842h3.762v8.613h4.653v3.168h-4.653v10.329ZM131.89,28.396c1.584.021,3.168-.066,4.752-.265,1.583-.198,3.08-.483,4.488-.857v2.706c-.023.286-.178.483-.463.594-1.408.396-3.107.66-5.097.792-1.992.132-4.152.198-6.484.198h-8.316v-3.168h5.907v-6.964h3.664v6.964h1.551ZM122.782,14.766h14.354c.572,0,1.05.188,1.435.562s.578.847.578,1.419v.429c0,.66-.033,1.397-.1,2.211-.064.814-.182,1.629-.346,2.442-.166.814-.375,1.606-.627,2.376-.254.771-.556,1.431-.908,1.979h-3.299c.176-.462.346-.984.512-1.567.164-.582.318-1.177.461-1.781.143-.605.264-1.199.363-1.782s.16-1.105.182-1.567l.066-1.254c0-.22-.111-.33-.33-.33h-12.343v-3.136ZM125.125,39.714c0-1.231.352-2.255,1.056-3.068.704-.814,1.584-1.458,2.641-1.931,1.055-.473,2.199-.803,3.432-.99,1.23-.187,2.375-.28,3.432-.28s2.21.094,3.464.28c1.254.188,2.42.518,3.498.99s1.98,1.116,2.705,1.931c.727.813,1.09,1.837,1.09,3.068,0,.836-.17,1.573-.512,2.211s-.797,1.188-1.369,1.65-1.227.842-1.963,1.139c-.738.297-1.502.533-2.295.709-.791.176-1.59.303-2.393.38-.802.076-1.544.115-2.226.115-1.057,0-2.201-.082-3.432-.247-1.232-.165-2.377-.474-3.432-.925-1.057-.451-1.937-1.078-2.641-1.881-.705-.803-1.056-1.854-1.056-3.151ZM128.986,39.714c0,.66.23,1.193.693,1.601.461.407,1.033.715,1.715.924s1.408.352,2.18.43c.77.076,1.473.115,2.111.115.615,0,1.324-.039,2.128-.115.803-.078,1.551-.227,2.244-.446.691-.22,1.281-.527,1.766-.924.482-.396.725-.924.725-1.584s-.246-1.193-.742-1.601c-.494-.406-1.094-.72-1.799-.94-.703-.22-1.445-.368-2.227-.445-.781-.077-1.468-.115-2.062-.115-.639,0-1.342.038-2.113.115-.77.077-1.5.226-2.193.445-.693.221-1.271.534-1.732.94-.463.407-.693.94-.693,1.601ZM146.278,32.421c0,.177-.066.33-.199.462-.131.132-.285.198-.461.198h-3.07V13.842h3.73v8.02h4.422v3.168h-4.422v7.392ZM174.592,31.861v-3.729h-7.096c-.771.814-1.688,1.414-2.755,1.799-1.067.385-2.195.577-3.383.577-1.145,0-2.228-.176-3.251-.527-1.022-.353-1.913-.863-2.673-1.535-.759-.671-1.364-1.512-1.814-2.524-.451-1.012-.677-2.178-.677-3.498,0-1.21.215-2.304.644-3.283.429-.979,1.023-1.815,1.782-2.508.759-.693,1.649-1.227,2.673-1.601,1.022-.374,2.128-.562,3.316-.562,1.254,0,2.387.221,3.399.66,1.011.44,1.892,1.045,2.64,1.815h7.194v-3.136h3.695v17.392c0,.176-.065.33-.197.462-.133.132-.287.198-.463.198h-3.035ZM156.64,22.389c0,.858.137,1.601.412,2.228s.638,1.145,1.089,1.552.957.709,1.519.907c.561.198,1.127.297,1.699.297,1.342,0,2.437-.451,3.283-1.354.847-.901,1.271-2.111,1.271-3.63,0-.682-.121-1.319-.362-1.914-.243-.594-.573-1.105-.99-1.534-.418-.429-.902-.764-1.452-1.007-.55-.241-1.134-.362-1.749-.362-.66,0-1.276.121-1.848.362-.572.243-1.073.578-1.502,1.007s-.765.94-1.007,1.534c-.242.595-.362,1.232-.362,1.914ZM178.222,44.598c0,.176-.066.33-.198.462-.132.133-.286.198-.462.198h-3.036v-8.184c0-.22-.11-.33-.33-.33h-17.226v-3.103h19.238c.55,0,1.023.188,1.419.562.396.374.595.847.595,1.419v8.976ZM169.609,22.422c0,.88-.121,1.738-.363,2.574h5.347v-4.917h-5.347c.242.836.363,1.617.363,2.343ZM193.83,25.492c0,.836.291,1.728.874,2.673.583.946,1.32,1.87,2.211,2.771.892.902,1.865,1.738,2.921,2.509s2.067,1.397,3.036,1.881l-2.311,2.739c-.682-.33-1.43-.776-2.244-1.337-.813-.561-1.616-1.172-2.408-1.831-.792-.66-1.529-1.331-2.211-2.014-.683-.682-1.232-1.309-1.65-1.881-.44.572-1.007,1.227-1.699,1.964-.693.737-1.431,1.463-2.211,2.178-.781.715-1.562,1.375-2.344,1.979-.781.605-1.468,1.052-2.062,1.337l-2.475-2.409c1.144-.66,2.244-1.419,3.3-2.276,1.057-.858,1.985-1.755,2.789-2.689.803-.936,1.446-1.893,1.93-2.871.484-.979.727-1.931.727-2.854v-10.131h3.828v10.263ZM205.149,45.258V13.842h3.696v30.756c0,.176-.065.33-.198.462-.132.133-.286.198-.462.198h-3.036ZM213.993,35.556h10.23c1.056,0,2.133-.027,3.233-.082,1.1-.055,2.15-.132,3.151-.231,1.001-.099,1.931-.214,2.789-.346.857-.133,1.572-.275,2.145-.43v2.673c0,.286-.154.484-.462.595-.638.197-1.419.357-2.343.479s-1.926.22-3.003.297c-1.078.077-2.184.127-3.316.148-1.134.022-2.217.033-3.251.033h-9.174v-3.136ZM214.95,22.951c0-1.254.231-2.397.693-3.433.462-1.033,1.1-1.913,1.914-2.64.813-.726,1.766-1.287,2.854-1.683,1.089-.396,2.249-.595,3.481-.595s2.387.188,3.465.562c1.077.374,2.013.919,2.805,1.634s1.419,1.589,1.881,2.623.693,2.211.693,3.531c0,1.386-.231,2.606-.693,3.663-.462,1.056-1.095,1.936-1.897,2.64s-1.743,1.232-2.821,1.584c-1.078.353-2.223.528-3.432.528-1.188,0-2.321-.187-3.399-.562-1.078-.373-2.029-.912-2.854-1.616s-1.479-1.579-1.964-2.624c-.483-1.045-.726-2.249-.726-3.613ZM218.448,22.917c0,.88.148,1.65.445,2.31.297.66.698,1.217,1.205,1.667.506.451,1.083.787,1.732,1.007.648.22,1.336.33,2.062.33.66,0,1.314-.104,1.963-.313.649-.209,1.227-.528,1.732-.957.506-.43.913-.979,1.222-1.65.308-.671.462-1.469.462-2.393,0-.748-.138-1.44-.413-2.079-.275-.638-.654-1.183-1.138-1.634-.484-.45-1.057-.803-1.717-1.056-.659-.253-1.364-.38-2.111-.38-.771,0-1.485.138-2.146.413s-1.237.644-1.732,1.105-.88,1.007-1.155,1.634-.412,1.292-.412,1.996ZM236.929,45.258V13.842h3.762v30.756c0,.176-.066.33-.198.462-.132.133-.286.198-.462.198h-3.102ZM244.98,37.273h8.481v-3.333c-.969-.154-1.859-.418-2.673-.792-.814-.374-1.514-.842-2.096-1.403-.583-.561-1.04-1.204-1.37-1.93-.329-.727-.494-1.519-.494-2.376,0-.969.214-1.859.644-2.674.429-.813,1.022-1.512,1.781-2.095.76-.583,1.645-1.04,2.657-1.37,1.011-.33,2.111-.495,3.3-.495,1.166,0,2.26.165,3.283.495s1.919.787,2.689,1.37c.77.583,1.375,1.281,1.815,2.095.439.814.659,1.705.659,2.674,0,.836-.164,1.611-.494,2.326s-.781,1.353-1.354,1.914c-.572.561-1.254,1.034-2.046,1.419s-1.65.654-2.574.809v3.366c1.65-.044,3.312-.154,4.983-.33s3.168-.43,4.488-.76v2.574c-.045.221-.122.363-.231.429-.11.066-.188.11-.231.133-.594.22-1.325.4-2.194.544-.869.143-1.82.253-2.854.33s-2.134.127-3.3.148-2.343.033-3.531.033h-9.339v-3.102ZM245.442,20.113v-3.201h7.788v-3.498h3.795v3.498h7.953v3.201h-19.536ZM250.689,27.439c0,.527.116,1.006.347,1.435.231.43.55.804.957,1.122.407.319.886.562,1.436.727s1.144.247,1.782.247c.66,0,1.271-.087,1.831-.264.562-.176,1.04-.418,1.436-.726.396-.309.71-.677.94-1.106.231-.429.347-.907.347-1.435s-.115-1.007-.347-1.436c-.23-.43-.544-.798-.94-1.105-.396-.309-.874-.55-1.436-.727-.561-.176-1.171-.264-1.831-.264-.639,0-1.232.082-1.782.247s-1.028.407-1.436.727c-.407.318-.726.692-.957,1.122-.23.429-.347.907-.347,1.436ZM268.047,45.258V13.809h3.762v30.789c-.022.309-.121.495-.297.562-.177.065-.297.099-.363.099h-3.102Z" fill="#fff" stroke-width="0"/></svg>