<?xml version="1.0" encoding="UTF-8"?><svg id="a" xmlns="http://www.w3.org/2000/svg" width="272.083" height="58.207" viewBox="0 0 272.083 58.207"><path d="M272.083,58.207H0V0h272.083v58.207Z" fill="none" stroke-width="0"/><path d="M50.084,18.274l-10.256,17.318h13.073v9.312h-29.581l5.13-8.355h-.002s8.713-14.408,8.713-14.408h-12.368v-9.312h28.783l-3.491,5.445ZM91.315,29.104c0,9.572-7.759,17.331-17.331,17.331s-17.331-7.759-17.331-17.331,7.759-17.331,17.331-17.331,17.331,7.759,17.331,17.331ZM80.472,29.104c0-3.584-2.905-6.488-6.488-6.488s-6.488,2.905-6.488,6.488,2.905,6.488,6.488,6.488,6.488-2.905,6.488-6.488ZM130.374,29.104c0,9.572-7.759,17.331-17.331,17.331s-17.331-7.759-17.331-17.331,7.759-17.331,17.331-17.331,17.331,7.759,17.331,17.331ZM119.532,29.104c0-3.584-2.905-6.488-6.488-6.488s-6.488,2.905-6.488,6.488,2.905,6.488,6.488,6.488,6.488-2.905,6.488-6.488ZM160.405,13.303l-4.902,16.566-4.491-16.566h-13.085l-4.386,33.132h10.409l2.17-20.257,5.995,20.257h6.927l5.995-20.257,2.17,20.257h10.892l-5.169-33.132h-12.526ZM200.216,46.435h11.382V13.303h-11.382v33.132ZM237.465,13.303v16.471l-10.606-16.471h-11.382v33.132h11.382v-16.21l10.606,16.21h11.382V13.303h-11.382ZM188.293,24.631c-2.293,0-4.152,1.859-4.152,4.152s1.859,4.152,4.152,4.152,4.152-1.859,4.152-4.152-1.859-4.152-4.152-4.152Z" fill="#fff" stroke-width="0"/></svg>