<?xml version="1.0" encoding="UTF-8"?><svg id="a" xmlns="http://www.w3.org/2000/svg" width="272.083" height="58.207" viewBox="0 0 272.083 58.207"><path d="M272.083,58.207H0V0h272.083v58.207Z" fill="none" stroke-width="0"/><path d="M197.7,42.652h9.633v3.27c0,.351-.176.643-.584.643h-15.646c-4.789,0-5.489-2.687-5.489-5.081V12.407c0-1.401.467-2.044,2.102-1.986h7.123v29.253c0,1.927.933,2.86,2.862,2.977ZM167.571,12.291v34.274h7.357c1.286,0,1.928-.409,1.928-1.927V10.421h-7.182c-1.635,0-2.103.76-2.103,1.87ZM23.705,15.384v31.18h7.357c1.518,0,2.219-.526,2.278-1.927v-14.597h13.487c.292,0,.525-.176.525-.468v-3.677h-14.012v-9.167c0-1.635.759-2.393,2.394-2.393h11.911c.351,0,.467-.233.467-.467v-3.446h-19.91c-4.496,0-4.496,2.219-4.496,4.963ZM74.91,12.232v25.749c0,2.744-.642,4.146-2.16,5.022-2.277,1.225-6.072,1.225-8.291-.059-1.635-.935-1.986-2.628-1.986-4.963V10.421h-7.415c-1.401,0-1.809.643-1.809,1.811v24.931c0,5.022,2.394,8.115,7.59,9.634,4.321,1.343,11.327,1.284,15.94.059,3.444-.935,7.357-3.504,7.357-9.693V10.421h-7.181c-1.636,0-2.044.643-2.044,1.811ZM237.695,10.421c-1.87,0-2.862.817-3.27,2.452l-5.956,24.931h-.116l-6.131-27.384h-8.291c-1.635,0-2.102.817-2.102,2.103v34.04h3.503c.525,0,.759-.292.759-.876v-28.552h.584l7.531,29.428h4.963c1.811,0,2.512-.76,2.979-2.628l6.772-26.799h.526v29.428h6.598c1.578,0,2.335-.643,2.335-2.219V10.421h-10.683ZM118.876,46.564h7.357c1.285,0,1.927-.409,1.927-1.927v-14.597h-9.283v16.524ZM118.876,12.348v17.459l8.758-6.833c.292-.233.525-.467.525-.992v-11.561h-7.182c-1.635,0-2.101.76-2.101,1.927ZM101.243,12.348v24.874c0,3.503-1.343,5.896-5.371,6.48-2.686.409-6.365.292-7.941.233v3.036c0,.292.117.467.467.525.233.059,1.927.292,5.838.292,6.715,0,9.809-1.46,11.62-2.744,3.445-2.452,4.612-5.371,4.612-11.152V10.421h-7.415c-.993,0-1.81.468-1.81,1.927ZM137.677,15.384v9.283c0,.235-.059.292-.176.409l-6.305,4.963h6.481v16.524h7.357c1.517,0,2.217-.526,2.276-1.927v-14.597h13.488c.349,0,.526-.176.526-.468v-3.677h-14.013v-9.167c0-1.635.817-2.393,2.393-2.393h11.912c.351,0,.467-.233.467-.467v-3.446h-19.909c-4.496,0-4.496,2.219-4.496,4.963Z" fill="#fff" stroke-width="0"/></svg>