<?xml version="1.0" encoding="UTF-8"?>
<svg id="Layer_1" data-name="Layer 1" xmlns="http://www.w3.org/2000/svg" width="272" height="58.2" version="1.1" viewBox="0 0 272 58.2">
  <defs>
    <style>
      .cls-1 {
        fill: #fff;
        stroke-width: 0px;
      }
    </style>
  </defs>
  <polygon class="cls-1" points="78.1 3.3 72.3 29.4 62.7 3.3 48.5 3.3 37.1 54.7 51.3 54.7 57.1 28.6 66.7 54.7 80.9 54.7 92.3 3.3 78.1 3.3"/>
  <polygon class="cls-1" points="154.6 17.1 138.7 17.1 127.4 30.9 133.5 3.3 119.3 3.3 107.9 54.7 122.1 54.7 126.3 35.5 131.8 54.7 146 54.7 140.2 34.6 154.6 17.1"/>
  <path class="cls-1" d="M103.4,14.2c5.1,0,8.5-1.7,9.5-6.3.8-3.5-2.2-6.3-6.7-6.3s-8.6,2.1-9.5,6.3c-.8,3.5,2.2,6.3,6.7,6.3Z"/>
  <polygon class="cls-1" points="95.6 17.1 95.6 17.1 87.3 54.7 101.5 54.7 109.8 17.1 95.6 17.1"/>
  <path class="cls-1" d="M225.5,16.3c-4.2,0-9.1,1.8-12.8,6.1l1.2-5.3h-14.2l-8.4,37.6h14.2l4.7-21c.7-3.2,3.7-4.6,5.2-4.6s4.7-.4,3.6,4.7l-4.7,20.9h14.2l6.1-27.4c1.5-7.7-3.4-11-9.1-11Z"/>
  <path class="cls-1" d="M174.3,16c-15,0-22.2,5.8-25.4,20.3-2.5,11.2,4.9,20.3,16.4,20.3s22.1-5.8,25.4-20.3c2.6-11.8-5-20.3-16.4-20.3ZM175.5,30.9l-2.4,10.8c-.5,2.5-3,4.5-5.4,4.5s-4-2-3.5-4.5l2.4-10.8c.5-2.5,3-4.5,5.4-4.5s4,2,3.5,4.5Z"/>
  <metadata>
    <sfw xmlns="http://ns.adobe.com/SaveForWeb/1.0/">
      <slices/>
      <sliceSourceBounds x="37.11" y="1.6" width="197.78" height="55" bottomLeftOrigin="true"/>
    </sfw>
  </metadata>
</svg>