<?xml version="1.0" encoding="UTF-8"?>
<svg id="Layer_1" data-name="Layer 1" xmlns="http://www.w3.org/2000/svg" width="272" height="58.2" version="1.1" viewBox="0 0 272 58.2">
  <defs>
    <style>
      .cls-1 {
        fill: #fff;
        fill-rule: evenodd;
        stroke-width: 0px;
      }
    </style>
  </defs>
  <path class="cls-1" d="M109.4,14.1c-3.9-3.9-10.1-2.1-10.1-2.1l-19.6,7.5h19.2l3,11.2c-2.9-2-6.7-3.2-10.8-3.2-9.1,0-16.5,5.9-16.5,13.1s7.4,13.1,16.5,13.1,12.3-3.1,14.9-7.5l1.9,7.2h15.3l-9.1-32s-.9-3.2-4.8-7.1ZM104.4,40.5c0,4-3.3,7.3-7.3,7.3s-7.3-3.2-7.3-7.3,3.3-7.3,7.3-7.3,5.2,1.6,6.5,3.8l.9,3.2c0,0,0,.2,0,.3Z"/>
  <path class="cls-1" d="M73.7,17c-5.3-8.5-15.9-14.3-28.2-14.3-17.5,0-31.7,11.8-31.7,26.4s14.2,26.4,31.7,26.4,21.1-4.8,26.7-12.1l-.6-2.9c-3.7,5.7-10.2,9.4-17.5,9.4-11.5,0-20.9-9.3-20.9-20.8s9.3-20.8,20.9-20.8,6.9.9,9.8,2.4l-10.6,18.4,20.4-12.1Z"/>
  <path class="cls-1" d="M156,11.5l-13.2,5.8c-3.5-7.8-9.1-5.8-9.1-5.8l-15.5,7.5h9.7v34.2h14.9v-31.6s.4-2.4,3.5-2.4,3.7,2.6,3.7,2.6v31.3h15.1V19c0-9.2-9.1-7.5-9.1-7.5Z"/>
  <path class="cls-1" d="M191.4,11.7c-11.8,0-21.4,9.5-21.4,21.3s9.6,21.3,21.4,21.3,2.6-.1,3.8-.4c10-1.8,17.5-10.5,17.5-20.9s-9.6-21.3-21.4-21.3ZM194.8,51.1c-1.8,0-3.4-1.1-4.1-2.6l-7.8-28.3c-.1-.4-.2-.8-.2-1.2,0-2.5,2-4.5,4.6-4.5s3.8,1.4,4.4,3.2l7.4,27c.2.5.4,1.1.4,1.8,0,2.5-2.1,4.6-4.6,4.6Z"/>
  <path class="cls-1" d="M249.2,11.5l-13.2,5.8c-3.4-7.8-9.1-5.8-9.1-5.8l-15.5,7.5h9.7v34.2h14.9v-31.6s.4-2.4,3.5-2.4,3.7,2.6,3.7,2.6v31.3h15.1V19c0-9.2-9.1-7.5-9.1-7.5Z"/>
  <metadata>
    <sfw xmlns="http://ns.adobe.com/SaveForWeb/1.0/">
      <slices/>
      <sliceSourceBounds x="13.74" y="2.67" width="244.52" height="52.86" bottomLeftOrigin="true"/>
    </sfw>
  </metadata>
</svg>