<?xml version="1.0" encoding="UTF-8"?>
<svg id="Layer_1" data-name="Layer 1" xmlns="http://www.w3.org/2000/svg" width="272" height="58.2" version="1.1" viewBox="0 0 272 58.2">
  <defs>
    <style>
      .cls-1 {
        fill: #fff;
        stroke-width: 0px;
      }
    </style>
  </defs>
  <polygon class="cls-1" points="89.2 33.7 100.6 33.7 100.6 43.4 105.1 43.4 105.1 33.7 116.5 33.7 116.5 30.2 89.2 30.2 89.2 33.7"/>
  <path class="cls-1" d="M96.9,27.8h13.2s2.6,0,2.6,0v-13.7h-4.3v3.4h-11.2v-3.4h-4.3v10.3s0,3.6,4.1,3.5ZM97.1,21h11.2v3.3h-10.1c-1.1,0-1.1-.9-1.1-.9v-2.3Z"/>
  <path class="cls-1" d="M128.2,39.7c-1.1,0-1.1-.9-1.1-.9v-6.4h-4.3v7.4s0,3.6,4.1,3.5h15.2v-3.5h-13.9Z"/>
  <path class="cls-1" d="M127.6,25.3c.8,1.1,1.9,2.3,2.7,2.9.8.7,2,1.5,3.6,2.4l2.4-3c-2.2-1.3-4-3-5-4.5-1-1.7-1.5-3.9-1.5-6.1v-2.9h-4.5v2.7c0,2.4-.6,4.9-1.7,6.6-1.1,1.8-3.1,3.7-5.5,5.1l2.6,2.9c1.1-.6,2.5-1.5,3.7-2.7,1.3-1.1,2.2-2.1,3.1-3.4Z"/>
  <polygon class="cls-1" points="146.1 20.8 142 20.8 142 13.5 137.7 13.5 137.8 35.6 142.1 35.6 142 24.2 146.1 24.2 146.1 20.8"/>
  <path class="cls-1" d="M159.3,39.6c-1.1,0-1.1-.9-1.1-.9v-6.4h-4.3v7.4s0,3.6,4.1,3.5h14.5v-3.5h-13.1Z"/>
  <path class="cls-1" d="M172.4,13.5h-4.3v12.5h-2.1v-8.5s0-3.6-4.1-3.4h-11.3v3.5h10c1.1,0,1.1.9,1.1.9v7.6h-3.6v-5.2h-4.4v5.3h-5.5v3.5h19.8v6h4.3v-11.3h4.1v-3.5h-4.1v-7.3Z"/>
  <path class="cls-1" d="M202.9,13.6h-4.3v12.5h-2.3v-8.6s0-3.6-4.1-3.5h-11.1v3.5h9.8c1.1,0,1.1.9,1.1.9v7.6h-3.2v-5.3c0,0-4.3,0-4.3,0v5.3h-5.5v3.5h23.9s0-5.3,0-5.3h4.1v-3.5h-4.1v-7.2Z"/>
  <path class="cls-1" d="M194.7,30.9c-4.4,0-8.2,3.2-8.2,7.2s3.8,7.1,8.2,7.1,8.2-3.3,8.2-7.1-3.8-7.2-8.2-7.2ZM194.6,41.6c-1.9,0-3.6-1.6-3.6-3.5,0-2,1.7-3.5,3.7-3.5s3.6,1.6,3.6,3.5-1.6,3.5-3.7,3.5Z"/>
  <path class="cls-1" d="M223.2,30.9c-4.4,0-8.2,3.2-8.2,7.2s3.8,7.1,8.2,7.1,8.2-3.3,8.2-7.1-3.8-7.2-8.2-7.2ZM223.1,41.6c-1.9,0-3.6-1.6-3.6-3.5,0-2,1.7-3.5,3.7-3.5s3.6,1.6,3.6,3.5-1.6,3.5-3.7,3.5Z"/>
  <path class="cls-1" d="M233.2,17.5s0-3.6-4.1-3.4h-16.1v3.5h14.7c1.1,0,1.1.9,1.1.9v7.6h-5.8v-5.3h-4.4v5.3h-9.5v3.5h27.6v-3.5h-3.7v-8.5Z"/>
  <path class="cls-1" d="M251.6,23.9c-.8-1.6-1.5-4.6-1.5-6.9v-2.9h-4.4v3c0,2-.5,5-1.3,6.5-.9,1.8-3.1,4.2-5.8,6.1l2.6,2.8c1.2-.8,2.6-1.9,3.9-3.1,1.2-1.1,2.2-2.4,2.8-3.3.6,1,1.8,2.2,2.9,3.3,1.2,1.1,2.5,2,3.6,2.7l2.4-2.8c-2.5-1.5-4.4-3.5-5.3-5.3Z"/>
  <polygon class="cls-1" points="262.5 20.8 262.4 13.5 258.1 13.5 258.1 43.5 262.4 43.5 262.4 24.3 266.5 24.3 266.6 20.8 262.5 20.8"/>
  <path class="cls-1" d="M20,16.9c-1.7,0-3.4.3-4.9.9v10.1c1.1-1.5,2.9-2.5,4.9-2.5s3.3.7,4.4,1.9c1,1,1.5,2.4,1.5,3.9,0,3.2-2.7,5.8-6,5.8s-3.3-.7-4.4-1.9c-1-1-1.5-2.4-1.5-3.9V4l-8.7,7.8v19.4c0,3.7,1.4,7,3.8,9.6,2.7,2.9,6.6,4.7,10.9,4.7,8.1,0,14.6-6.4,14.6-14.3s-1.4-7-3.8-9.6c-2.7-2.9-6.6-4.7-10.9-4.7Z"/>
  <path class="cls-1" d="M64.6,26.8c-7.2,0-13.2,4.7-14.5,11h-2.7s-1.2,0-2.1-1c-.6-.6-1-1.5-1-2.9v-6.9c0,0,5.8,0,5.8,0v-7.6h-5.8v-10c0,0-8.7,7.5-8.7,7.5,0,3.3,0,19,0,19,0,3.7,1.4,6,3.1,7.3,2.3,1.9,5.2,2.1,5.2,2.1h6.8c.7,1.7,1.7,3.3,3,4.6,2.7,2.7,6.6,4.4,10.8,4.4,8.2,0,14.8-6.1,14.8-13.7s-1.6-7.1-4.2-9.5c-2.7-2.6-6.5-4.2-10.6-4.2ZM64.6,46.4c-1.8,0-3.5-.8-4.6-2-.9-1-1.5-2.4-1.5-3.8,0-3.2,2.7-5.9,6-5.9s3.3.7,4.4,1.8c1,1,1.7,2.5,1.7,4,0,3.3-2.7,5.9-6,5.9Z"/>
  <metadata>
    <sfw xmlns="http://ns.adobe.com/SaveForWeb/1.0/">
      <slices/>
      <sliceSourceBounds x="5.4" y="4.03" width="261.2" height="50.14" bottomLeftOrigin="true"/>
    </sfw>
  </metadata>
</svg>