<?xml version="1.0" encoding="UTF-8"?>
<svg id="Layer_1" data-name="Layer 1" xmlns="http://www.w3.org/2000/svg" width="272" height="58.2" version="1.1" viewBox="0 0 272 58.2">
  <defs>
    <style>
      .cls-1 {
        fill: #fff;
        stroke-width: 0px;
      }
    </style>
  </defs>
  <polygon class="cls-1" points="4.4 22 12.7 22 12.7 43 20.4 43 20.4 22 28.7 22 28.7 15.3 4.4 15.3 4.4 22"/>
  <path class="cls-1" d="M52.8,28.5c1.2-.5,2.2-1.3,3-2.3.8-1,1.2-2.3,1.2-3.9h0c0-1-.2-1.9-.5-2.6-.3-.7-.7-1.4-1.3-1.9-.8-.8-1.8-1.4-3-1.9-1.2-.4-2.7-.6-4.4-.6h-14v27.7h14.1c3.3,0,5.8-.7,7.7-2,1.8-1.3,2.7-3.2,2.7-5.6h0c0-1.9-.5-3.4-1.5-4.4-1-1-2.3-1.9-4-2.4ZM41.2,21.4h4.9c1.2,0,2,.2,2.6.6.6.4.9,1,.9,1.8h0c0,.9-.3,1.5-.9,1.9-.6.4-1.5.6-2.7.6h-4.8v-4.9ZM50.7,34.3c0,.8-.3,1.4-.9,1.9-.6.4-1.5.6-2.7.6h-5.9v-5.1h5.8c1.3,0,2.2.2,2.8.7.6.4.9,1.1.9,1.8h0Z"/>
  <polygon class="cls-1" points="79.8 25.6 70 25.6 70 15.3 62.3 15.3 62.3 43 70 43 70 32.4 79.8 32.4 79.8 43 87.5 43 87.5 15.3 79.8 15.3 79.8 25.6"/>
  <path class="cls-1" d="M115.5,31.7h7.1v5.2c-.8.6-1.8,1.1-3,1.5-1.2.4-2.4.6-3.7.6s-2.7-.2-3.8-.8c-1.2-.5-2.1-1.2-3-2.1-.8-.9-1.5-1.9-1.9-3.1-.4-1.2-.7-2.5-.7-4h0c0-1.4.2-2.7.7-3.9.5-1.2,1.1-2.2,1.9-3.1.8-.9,1.7-1.6,2.8-2.1,1.1-.5,2.3-.8,3.5-.8s1.7,0,2.4.2c.7.1,1.4.3,2,.6.6.3,1.2.6,1.7.9.5.4,1.1.8,1.6,1.2l3.1-3.7c-.7-.6-1.4-1.1-2.2-1.6-.8-.5-1.6-.8-2.4-1.2-.8-.3-1.8-.6-2.7-.7-1-.2-2.1-.3-3.3-.3-2.1,0-4,.4-5.8,1.2-1.7.8-3.3,1.8-4.5,3.1-1.3,1.3-2.3,2.8-3,4.6-.7,1.7-1.1,3.6-1.1,5.5h0c0,2.1.3,4,1,5.7.7,1.7,1.7,3.2,2.9,4.5,1.3,1.3,2.8,2.3,4.5,3,1.8.7,3.7,1.1,5.9,1.1s2.4-.1,3.5-.3c1.1-.2,2.1-.5,3.1-.9,1-.4,1.9-.9,2.7-1.4.8-.5,1.6-1.1,2.3-1.7v-11.6h-11.8v4.2Z"/>
  <polygon class="cls-1" points="138.2 15.3 133.4 15.3 133.4 43 152.8 43 152.8 38.6 138.2 38.6 138.2 15.3"/>
  <path class="cls-1" d="M179.5,19c-1.3-1.3-2.8-2.3-4.5-3.1-1.8-.8-3.7-1.1-5.9-1.1s-4.1.4-5.9,1.1c-1.8.8-3.3,1.8-4.6,3.1-1.3,1.3-2.3,2.8-3,4.5-.7,1.7-1.1,3.6-1.1,5.5h0c0,2,.4,3.9,1.1,5.6.7,1.7,1.7,3.2,3,4.5,1.3,1.3,2.8,2.3,4.5,3.1,1.8.8,3.7,1.1,5.9,1.1s4.1-.4,5.9-1.1c1.8-.8,3.3-1.8,4.6-3.1,1.3-1.3,2.3-2.8,3-4.5.7-1.7,1.1-3.6,1.1-5.5h0c0-2-.3-3.9-1.1-5.6-.7-1.7-1.7-3.2-3-4.5ZM178.4,29.2c0,1.3-.2,2.6-.7,3.8-.5,1.2-1.1,2.2-1.9,3.1-.8.9-1.8,1.6-2.9,2.1-1.1.5-2.4.8-3.8.8s-2.6-.3-3.8-.8c-1.2-.5-2.2-1.2-3-2.1-.8-.9-1.5-1.9-1.9-3.1-.5-1.2-.7-2.5-.7-3.8h0c0-1.4.2-2.7.7-3.9.5-1.2,1.1-2.2,1.9-3.1.8-.9,1.8-1.6,2.9-2.1,1.2-.5,2.4-.8,3.8-.8s2.6.3,3.8.8c1.2.5,2.2,1.2,3,2.1.8.9,1.5,1.9,1.9,3.1.5,1.2.7,2.5.7,3.8h0Z"/>
  <path class="cls-1" d="M210.7,31c-.5-.5-1.1-1-1.7-1.4-.7-.4-1.4-.7-2.2-1,.5-.3,1-.6,1.5-.9.5-.4.9-.8,1.3-1.3.4-.5.6-1,.9-1.7.2-.6.3-1.4.3-2.3h0c0-1.9-.6-3.4-1.9-4.7-1.6-1.6-4-2.4-7.2-2.4h-12.4v27.7h12.8c1.5,0,2.9-.2,4.2-.5,1.3-.3,2.4-.8,3.2-1.4.9-.6,1.6-1.4,2.1-2.4.5-.9.7-2,.7-3.3h0c0-1-.1-1.9-.4-2.6-.3-.7-.6-1.3-1.1-1.9ZM194,19.6h7c1.6,0,2.8.3,3.6.9.8.6,1.2,1.5,1.2,2.6h0c0,1.3-.5,2.3-1.4,2.9-.9.6-2.2.9-3.8.9h-6.6v-7.4ZM207.3,34.9c0,1.3-.5,2.2-1.4,2.9-.9.6-2.3.9-3.9.9h-8v-7.6h7.7c1.9,0,3.4.3,4.3,1,.9.6,1.4,1.6,1.4,2.8h0Z"/>
  <path class="cls-1" d="M227.1,15.1l-12.2,27.9h5l2.8-6.7h13.1l2.8,6.7h5.1l-12.2-27.9h-4.5ZM224.6,32l4.7-11.1,4.8,11.1h-9.5Z"/>
  <polygon class="cls-1" points="253 38.6 253 15.3 248.2 15.3 248.2 43 267.6 43 267.6 38.6 253 38.6"/>
  <metadata>
    <sfw xmlns="http://ns.adobe.com/SaveForWeb/1.0/">
      <slices/>
      <sliceSourceBounds x="4.41" y="14.76" width="263.18" height="28.68" bottomLeftOrigin="true"/>
    </sfw>
  </metadata>
</svg>