<?xml version="1.0" encoding="UTF-8"?>
<svg id="Layer_1" data-name="Layer 1" xmlns="http://www.w3.org/2000/svg" width="272" height="58.2" version="1.1" viewBox="0 0 272 58.2">
  <defs>
    <style>
      .cls-1 {
        fill: #fff;
        stroke-width: 0px;
      }
    </style>
  </defs>
  <path class="cls-1" d="M59.2,9.4c-1,.5-2.2,1-3.2,1.6l42.6,5.5-10.4,6.3-41-5.5c-13.5,9.7-20.1,21-15.7,31.1,4.8,11.3,28.3,8.3,47.1,1.3,1.9-.7,4.6-1.9,6.5-2.9l-46.8-7.7,7-4.2,19.8-12,18.8,2.6-16.9,11.2,24.9,4.1c12.5-9.5,19.6-20.3,14.8-30C101.4-.2,80.3-.4,59.2,9.4Z"/>
  <path class="cls-1" d="M137.6,16h-15.2v3.5h10.1c-1.3,5.4-5.4,10.5-12.3,15.1l2.8,2.6c3.5-2.4,6.4-4.9,8.7-7.8l7.2,7.2,2.9-2.5-7.9-7.7c2-3.2,3.2-6.7,3.6-10.4Z"/>
  <rect class="cls-1" x="143.8" y="11.5" width="4.3" height="35"/>
  <path class="cls-1" d="M171.2,27.5h-3.6v-10.2h2.9v-3.4h-18.2v3.4h3.1c0,2.3,0,6.7,0,7.1v3h-3.6v3.4h19.4v-3.4ZM163.4,27.5h-3.8v-3.1c0-.6,0-4.6,0-7.1h3.8v10.2Z"/>
  <path class="cls-1" d="M175.8,34.7c-1-.7-2.2-1.2-3.6-1.6-1.4-.4-2.9-.6-4.4-.6s-3,.2-4.4.6c-1.4.4-2.6.9-3.6,1.6-1,.7-1.8,1.5-2.3,2.4-.6.9-.9,1.9-.9,2.9s.3,2,.9,2.9c.6.9,1.3,1.7,2.3,2.4,1,.7,2.2,1.2,3.6,1.6,1.4.4,2.9.6,4.4.6s3-.2,4.4-.6c1.4-.4,2.6-.9,3.6-1.6,1-.7,1.8-1.5,2.4-2.4.6-.9.9-1.9.9-2.9s-.3-2-.9-2.9c-.6-.9-1.4-1.7-2.4-2.4ZM172.4,42.9c-1.3.7-2.8,1.1-4.6,1.1s-3.3-.4-4.6-1.1c-1.3-.8-1.9-1.7-1.9-2.8s.6-2,1.9-2.8c1.3-.8,2.8-1.2,4.6-1.2s3.4.4,4.6,1.2c1.2.8,1.9,1.7,1.9,2.8s-.7,2-1.9,2.8Z"/>
  <polygon class="cls-1" points="174.9 18.2 170 18.2 170 21.3 174.9 21.3 174.9 23.4 170 23.4 170 26.6 174.9 26.6 174.9 32.7 179.1 32.7 179.1 11.5 174.9 11.5 174.9 18.2"/>
  <polygon class="cls-1" points="195.4 34.8 191.1 34.8 191.1 46.7 210.6 46.7 210.6 43.2 195.4 43.2 195.4 34.8"/>
  <polygon class="cls-1" points="198.1 25.6 205.8 25.6 205.8 36.9 210.1 36.9 210.1 11.5 205.8 11.5 205.8 22 198.1 22 198.1 25.6"/>
  <path class="cls-1" d="M195.9,25.6c2.5-3.2,3.9-7,4.2-11.2h-15.5v3.5h10.6c-.2,1.7-1.3,3.7-3.2,6.2-2,2.5-5.1,4.8-9.2,6.8l2.6,2.7c4.5-2.1,8.1-4.8,10.6-8Z"/>
  <polygon class="cls-1" points="236.8 30.2 241 30.2 241 11.5 236.8 11.5 236.8 18.4 229.4 18.4 229.4 21.9 236.8 21.9 236.8 30.2"/>
  <path class="cls-1" d="M223.5,23.5l6.9,6.4,2.8-2.5-8.1-7.3c.5-1.7.8-3.5.8-5.4v-1.6h-4.3v1.6c0,2.9-.7,5.4-2,7.6-1.4,2.1-3.5,4.1-6.4,5.8l2.8,2.6c3.5-2.2,6-4.5,7.5-7.1Z"/>
  <polygon class="cls-1" points="223.6 43.6 223.6 40.8 240.9 40.8 240.9 31.6 219.2 31.6 219.2 35.1 236.7 35.1 236.7 37.4 219.3 37.4 219.3 47.1 241.8 47.1 241.8 43.6 223.6 43.6"/>
  <metadata>
    <sfw xmlns="http://ns.adobe.com/SaveForWeb/1.0/">
      <slices/>
      <sliceSourceBounds x="30.17" y="2.27" width="211.65" height="53.68" bottomLeftOrigin="true"/>
    </sfw>
  </metadata>
</svg>