<?xml version="1.0" encoding="UTF-8"?>
<svg id="Layer_1" data-name="Layer 1" xmlns="http://www.w3.org/2000/svg" width="272" height="58.2" version="1.1" viewBox="0 0 272 58.2">
  <defs>
    <style>
      .cls-1 {
        fill: #fff;
        stroke-width: 0px;
      }
    </style>
  </defs>
  <path class="cls-1" d="M88.5,33.2s-6.1-3.3-6.1-8.4,7.6-10.6,13.5-13.3c5.8-2.8,15.3-5.6,20.5-6.9,0,0-14.8,2.3-28.2,7.7-12.2,4.9-15.7,10.5-15.7,14s2.3,8.2,14.7,12.4l1.3-5.5Z"/>
  <path class="cls-1" d="M176.9,46.5c-3.7-.5-5.4-3.5-4.1-9.3-3.8.8-8.1,1.6-12.6,2.4-.3,7.9,5,13.9,16.5,13.9s17.5-5.4,20.8-12.7l-10.9-.5c-1.9,4.4-5.9,6.6-9.7,6.1Z"/>
  <path class="cls-1" d="M198.5,25.8c-2.4-4.8-7.4-6.5-15.2-6.5s-20.7,7.8-22.7,17.2c0,.1,0,.2,0,.4,4.5-.7,8.9-1.5,12.9-2.3,1.6-4.8,4.6-8.4,9.1-8.4s5.6,2.4,4.7,7.1l12.2-.6c.2-2.4.2-4.8-.9-7Z"/>
  <path class="cls-1" d="M141.5,38.9l4.3-19.3h-11.5l-4.4,19.5c1.1,0,2.2,0,3.3,0,2.8,0,5.5-.1,8.3-.3Z"/>
  <path class="cls-1" d="M140.7,42.3c-1.3.1-2.6.2-3.9.3-2.6.1-5.2.2-7.7.3l-2.3,10.3h28.4l1.6-7.4h-16.9l.8-3.5Z"/>
  <path class="cls-1" d="M117.3,19.6l-4.2,18.6c2.9.3,6.2.5,9.6.7l4.3-19.3h-9.8Z"/>
  <path class="cls-1" d="M88.9,33.5c.9.3,4.7,1.6,11.3,2.9l3.8-16.8h-12l-3.1,13.9Z"/>
  <path class="cls-1" d="M110.4,45c-1.1.9-3.2,1.5-5.5,1.5s-3.9-.5-4.7-1c-.8-.4-1.7-1.3-1.4-2.9.1-.4.2-1.3.2-1.3v-.3c-4.1-.6-8-1.3-11.4-2.2l-.8,3.5h0c0,.1,0,.2,0,.3-.4,1.7.1,5.5,2,7.3,1.9,1.8,5.3,3.5,14.1,3.5s13.8-3.3,15.7-5.1c1.1-1.1,2.2-3.3,3-5.6-3.3,0-6.5-.2-9.5-.4-.4,1-1.1,2-1.7,2.6Z"/>
  <metadata>
    <sfw xmlns="http://ns.adobe.com/SaveForWeb/1.0/">
      <slices/>
      <sliceSourceBounds x="72.45" y="4.59" width="127.1" height="49.02" bottomLeftOrigin="true"/>
    </sfw>
  </metadata>
</svg>