<?xml version="1.0" encoding="UTF-8"?>
<svg id="Layer_1" data-name="Layer 1" xmlns="http://www.w3.org/2000/svg" width="272" height="58.2" version="1.1" viewBox="0 0 272 58.2">
  <defs>
    <style>
      .cls-1 {
        fill: #fff;
        stroke-width: 0px;
      }
    </style>
  </defs>
  <g>
    <path class="cls-1" d="M32.7,2C17.3,2,4.8,14.2,4.8,29.3s12.4,27.2,27.8,27.2,27.8-12.2,27.8-27.2S48,2,32.7,2ZM32.7,55.4c-14.7,0-26.7-11.7-26.7-26.1S17.9,3.2,32.7,3.2s26.7,11.7,26.7,26.1-11.9,26.1-26.7,26.1Z"/>
    <path class="cls-1" d="M32.7,3.4C18.1,3.4,6.3,15,6.3,29.3s11.8,25.8,26.4,25.8,26.4-11.6,26.4-25.8S47.2,3.4,32.7,3.4ZM32.7,53.7c-13.8,0-24.9-10.9-24.9-24.4S18.9,4.9,32.7,4.9s24.9,10.9,24.9,24.4-11.2,24.4-24.9,24.4Z"/>
    <polygon class="cls-1" points="32.7 4 28.2 27.1 32.5 29.1 32.7 4"/>
    <polygon class="cls-1" points="32.4 4 36.8 27.1 32.5 29.1 32.4 4"/>
    <polygon class="cls-1" points="9.5 41 32.4 34.1 32.2 29.4 9.5 41"/>
    <polygon class="cls-1" points="9.6 41.3 28.4 26.6 32.2 29.4 9.6 41.3"/>
    <polygon class="cls-1" points="55.5 41 32.6 34.1 32.8 29.4 55.5 41"/>
    <polygon class="cls-1" points="55.4 41.3 36.7 26.6 32.8 29.4 55.4 41.3"/>
  </g>
  <g>
    <path class="cls-1" d="M113.2,40.6v2.7h-37.1v-2.7h37.1ZM94.6,23.2c-.4.9-2,2.4-5.2,4.5-2.7,1.8-6.3,3.9-9.5,5.7l-1.7-2.5c3.8-2,7.2-4,9.3-5.4,4.4-3,5.4-4.3,5.4-9.1v-4.9h3.2v4.9c0,4.8,1,6.1,5.3,9.1,2.1,1.4,5.4,3.4,9.2,5.4l-1.6,2.4c-3.1-1.7-6.7-3.8-9.4-5.6-3.2-2.1-4.8-3.6-5.2-4.5h0Z"/>
    <path class="cls-1" d="M135.3,11.8v2.8h-15.3v9h14.4v2.8h-14.4v9.4h5.7c4.1,0,8.7-.2,13.4-.9l.4,2.8c-4.7.8-9.9,1-14.5,1h-8V11.8h18.4ZM146,23.7h6.7v2.8h-6.7v22.5h-3.1V8.6h3.1v15.2Z"/>
    <path class="cls-1" d="M175.8,15.1h-9.1v6.3c0,3.4.3,4.8,2.6,7.5,1.7,2,4.3,4.6,7.6,7.5l-2,2.1c-3-2.8-5.2-5-6.9-6.9-1.3-1.4-2.5-2.7-2.7-3.3h0c-.2.8-1.9,2.8-3.2,4.2-1.2,1.2-4.2,4.4-6.8,6.7l-2.1-2.1c2.8-2.5,5.3-4.9,7.3-7.2,2.8-3.1,3.2-4.8,3.2-8.2v-6.5h-9.3v-2.7h21.6v2.7ZM184.4,24h6.7v2.8h-6.7v22.2h-3.1V8.6h3.1v15.4Z"/>
    <path class="cls-1" d="M208.6,28.5v-5.1h-11.4v-13.2h25.8v2.7h-22.7v7.9h22.9v2.7h-11.5v5.1h17v2.7h-37.1v-2.7h17ZM222.7,41.5v1.5c0,4.6-5.9,7.1-12.6,7.1s-12.6-2.4-12.6-7.1v-1.5c0-4.7,5.9-7.1,12.6-7.1s12.6,2.4,12.6,7.1ZM219.7,42.8v-1.1c0-3-4.8-4.6-9.5-4.6s-9.5,1.6-9.5,4.6v1.1c0,3,4.8,4.6,9.5,4.6s9.5-1.6,9.5-4.6Z"/>
    <path class="cls-1" d="M243.7,14.7h9.4v2.7h-9.4v4.6c0,3.4.3,4.8,2.6,7.5,1.7,2,4.3,4.6,7.6,7.5l-2,2.1c-3-2.8-5.2-5-6.9-6.9-1.3-1.4-2.5-2.7-2.7-3.3h0c-.2.8-1.9,2.8-3.2,4.2-1.2,1.2-4.2,4.4-6.8,6.7l-2.1-2.1c2.8-2.5,5.3-4.9,7.3-7.2,2.8-3.1,3.2-4.8,3.2-8.2v-4.8h-9.6v-2.7h9.6v-5.9h3.1v5.9ZM261.4,24.1h6.7v2.8h-6.7v22.1h-3.1V8.6h3.1v15.5Z"/>
  </g>
  <metadata>
    <sfw xmlns="http://ns.adobe.com/SaveForWeb/1.0/">
      <slices/>
      <sliceSourceBounds x="4.85" y="1.71" width="263.27" height="54.47" bottomLeftOrigin="true"/>
    </sfw>
  </metadata>
</svg>