<?xml version="1.0" encoding="UTF-8"?>
<svg id="Layer_1" data-name="Layer 1" xmlns="http://www.w3.org/2000/svg" width="272" height="58.2" version="1.1" viewBox="0 0 272 58.2">
  <defs>
    <style>
      .cls-1 {
        fill: #fff;
        stroke-width: 0px;
      }
    </style>
  </defs>
  <polygon class="cls-1" points="121.7 27 121.7 32.9 135.5 32.9 135.5 48.2 130.8 48.2 130.8 37 103.1 37 103.1 32.9 117 32.9 117 27 100.2 27 100.2 22.9 130.6 22.9 130.6 14.8 103.6 14.8 103.6 10.7 135.3 10.7 135.3 22.9 138.7 22.9 138.7 27 121.7 27"/>
  <path class="cls-1" d="M161.1,26h-12.9v-10.6h12.9v10.6ZM165.7,11.3h-22.3v18.8h22.3V11.3Z"/>
  <polygon class="cls-1" points="177.3 48 147.7 48 147.7 34.2 152.4 34.2 152.4 44 177.3 44 177.3 48"/>
  <rect class="cls-1" x="172.2" y="10.4" width="4.7" height="24.8"/>
  <polygon class="cls-1" points="219.6 34.2 219.6 30.1 181.1 30.1 181.1 34.2 185.3 34.2 185.3 48 216 48 216 44 190 44 190 34.2 219.6 34.2"/>
  <path class="cls-1" d="M200.4,23.7c-4.9,0-8.8-1.7-8.8-5.4s3.9-5.4,8.8-5.4,8.8,1.7,8.8,5.4-3.9,5.4-8.8,5.4M200.4,8.5c-7.6,0-13.8,3.2-13.8,9.7s6.2,9.7,13.8,9.7,13.8-3.3,13.8-9.7-6.2-9.7-13.8-9.7"/>
  <polygon class="cls-1" points="243.9 28.9 248.4 28.9 248.4 21.5 251.1 21.5 251.1 30.1 255.6 30.1 255.6 10.4 251.1 10.4 251.1 17.6 248.4 17.6 248.4 10.4 243.9 10.4 243.9 28.9"/>
  <path class="cls-1" d="M241.8,12h-8.3v-3.3h-4.7v3.3h-8.4v4h3.4c-1.7,1.3-2.7,3.1-2.7,5.6,0,5.1,4.5,7.7,10,7.7s10-2.6,10-7.7-1-4.3-2.7-5.6h3.4v-4ZM231.1,25c-2.9,0-5.2-1.2-5.2-4s2.3-4,5.2-4,5.2,1.3,5.2,4-2.3,4-5.2,4"/>
  <path class="cls-1" d="M242.2,45.4c-4.8,0-8.7-1.7-8.7-5.5s3.9-5.5,8.7-5.5,8.7,1.7,8.7,5.5-3.9,5.5-8.7,5.5M242.2,30.3c-7.5,0-13.6,3.2-13.6,9.7s6.1,9.7,13.6,9.7,13.6-3.2,13.6-9.7-6.1-9.7-13.6-9.7"/>
  <path class="cls-1" d="M56.8,10.8h18.4c8.8,0,13.3,2.9,13.3,9.3s-3.2,7.7-7.4,8.5v.2c6,.7,8.9,4.7,8.9,9.1s-4.1,10.4-14.3,10.4h-19V10.8ZM62.8,26.6h12.2c4.5,0,7.9-1.7,7.9-5.7s-1.6-5.8-8.5-5.8h-11.5v11.5ZM62.8,44h11.8c7.3,0,9.3-2.9,9.3-6.5s-3-6.7-9.6-6.7h-11.5v13.2Z"/>
  <polygon class="cls-1" points="16.2 10.8 22.2 10.8 22.2 27.6 42.4 10.8 50.8 10.8 29.6 27.7 52.6 48.3 44.2 48.3 22.2 28.2 22.2 48.3 16.2 48.3 16.2 10.8"/>
  <metadata>
    <sfw xmlns="http://ns.adobe.com/SaveForWeb/1.0/">
      <slices/>
      <sliceSourceBounds x="16.24" y="8.54" width="239.52" height="41.12" bottomLeftOrigin="true"/>
    </sfw>
  </metadata>
</svg>