<?xml version="1.0" encoding="UTF-8"?>
<svg id="Layer_1" data-name="Layer 1" xmlns="http://www.w3.org/2000/svg" width="272" height="58.2" version="1.1" viewBox="0 0 272 58.2">
  <defs>
    <style>
      .cls-1 {
        fill: #fff;
        stroke-width: 0px;
      }
    </style>
  </defs>
  <g>
    <path class="cls-1" d="M138.3,17c5.4,0,7.7-7.7,7.7-7.7h-58.9l-11.6,10-6.2-9.8h-18.7l12.8,20.2-23.1,19.9h13.3c3,0,6.9-2.7,8.4-4.1.4-.4,3.4-3,7.4-6.4l6.6,10.5h18.7l-13.2-21c7.2-6.1,13.6-11.6,13.6-11.6h12.7l-11.1,32.6h17.2l11.4-32.6h12.9Z"/>
    <path class="cls-1" d="M129.6,27.6c-1.2,0-4.3,1.2-5.4,3.6-1.1,2.5-4.5,12.8-4.8,13.6-.2.8.5,4.7,3.3,4.8,2.8.1,15.1,0,16.4,0s5.2-2.3,5.1-5.4h-16.5l1-2.7s11.1-.1,12.1-.1,5.2-1,6.5-4.3c1.3-3.2,3.4-9.4,3.4-9.4h-21.1ZM139.1,36.6h-8.7l1.3-3.9h9.6c0,.7-1.4,3.9-2.2,3.9Z"/>
    <path class="cls-1" d="M157.4,41.4s11.1-.1,12.1-.1,5.2-1,6.5-4.3c1.3-3.2,3.3-9.4,3.3-9.4h-21.1c-1.2,0-4.3,1.2-5.4,3.6-1.1,2.5-4.5,12.8-4.7,13.6-.3.8.4,4.7,3.2,4.8,2.8.1,15.1,0,16.4,0s5.2-2.3,5.1-5.4h-16.4l1-2.7ZM160.4,32.7h9.6c0,.7-1.4,3.9-2.2,3.9h-8.7l1.3-3.9Z"/>
    <path class="cls-1" d="M186.1,27.6c-4.3,0-5.9,5.4-6.3,6.6-.4,1.1-4.8,13.8-5.3,15.5h8.8c.6-1.9,4.8-14.7,5.1-15.4.2-.8.7-1.6,1.4-1.6s4.9,0,8.1.1c4.1,0,4.9-5.2,4.9-5.2h-16.7Z"/>
  </g>
  <g>
    <path class="cls-1" d="M150.7,9.3h3.2v4.4h3.9v-4.4h3.3v12.5h-3.3v-5.1h-3.9v5.1h-3.2v-12.5Z"/>
    <path class="cls-1" d="M162.3,9.3h3.8l2.2,4.4,2.6-4.4h3.8l-4.3,7.3-.2,5.2h-3.4l-.2-5.2-4.3-7.3Z"/>
    <path class="cls-1" d="M183.4,9.3h3.4v7.4c0,.7-.1,1.4-.3,2.1-.2.7-.5,1.2-1,1.7-.4.5-.9.8-1.4,1-.7.3-1.6.4-2.6.4s-1.3,0-1.9-.1c-.6,0-1.2-.3-1.6-.5-.4-.3-.8-.6-1.2-1.1-.4-.5-.6-.9-.7-1.4-.2-.8-.3-1.5-.3-2.1v-7.4h3.4v7.6c0,.7.2,1.2.5,1.6.3.4,1,.6,1.6.6s1.2-.2,1.6-.6c.3-.4.5-.9.5-1.6v-7.6Z"/>
    <path class="cls-1" d="M188.9,9.3h4.3l4,8.2v-8.2h3.2v12.5h-4.1l-4.3-8.5v8.5h-3v-12.5Z"/>
    <path class="cls-1" d="M202.8,9.3h5.9c1.2,0,2.1.2,2.8.5.7.3,1.3.7,1.8,1.3.5.6.8,1.2,1,2,.2.8.3,1.6.3,2.4,0,1.3-.2,2.4-.5,3.1-.3.7-.7,1.4-1.3,1.9-.6.5-1.2.8-1.8,1-.9.2-1.7.3-2.4.3h-5.9v-12.5ZM206.2,12.1v6.8h1.5c.8,0,1.4,0,1.8-.3.4-.2,1-.5,1.2-.9.2-.4.5-.8.5-2.2s-.4-2.2-.8-2.7c-.4-.5-1.5-.7-2.6-.7h-1.5Z"/>
    <path class="cls-1" d="M223.6,19.4h-4.4l-.6,2.4h-3.9l4.7-12.5h4.2l4.7,12.5h-4l-.6-2.4ZM222.8,16.7l-1.4-4.1-1.4,4.1h2.7Z"/>
    <path class="cls-1" d="M229.3,9.3h3.3v12.5h-3.3v-12.5Z"/>
  </g>
  <metadata>
    <sfw xmlns="http://ns.adobe.com/SaveForWeb/1.0/">
      <slices/>
      <sliceSourceBounds x="40.4" y="8.51" width="192.2" height="40.42" bottomLeftOrigin="true"/>
    </sfw>
  </metadata>
</svg>