<?xml version="1.0" encoding="UTF-8"?>
<svg id="Layer_1" data-name="Layer 1" xmlns="http://www.w3.org/2000/svg" width="272" height="58.2" version="1.1" viewBox="0 0 272 58.2">
  <defs>
    <style>
      .cls-1 {
        fill-rule: evenodd;
      }

      .cls-1, .cls-2 {
        fill: #fff;
        stroke-width: 0px;
      }
    </style>
  </defs>
  <g>
    <path class="cls-1" d="M252.3,23.1c0-6.5,0-13,0-19.4,0-.4,0-.5.5-.5,2.6,0,5.2,0,7.8,0,.4,0,.4,0,.4.4,0,9.5,0,18.9,0,28.4,0,.3,0,.4-.4.4-3.8,0-7.5,0-11.3,0-1,0-1.7-.4-2.2-1.3-3.2-5.9-6.5-11.8-9.7-17.7,0,0,0-.2-.2-.2v.5c0,6.1,0,12.2,0,18.3,0,.4,0,.5-.5.5-2.7,0-5.3,0-8,0-.4,0-.5-.1-.5-.5,0-9.4,0-18.9,0-28.3,0-.4.1-.5.5-.5,3.7,0,7.4,0,11.1,0,1,0,1.8.4,2.3,1.3,3.3,6,6.6,12.1,9.8,18.1,0,.2.1.3.3.5Z"/>
    <path class="cls-1" d="M66.5,3.1c4.7,0,9.3,0,14,0,.4,0,.5.1.5.5,0,2,0,4.1,0,6.1,0,.4-.1.5-.5.5-5.9,0-11.8,0-17.7,0-.4,0-.5,0-.5.5,0,1.1,0,2.1,0,3.2,0,.3,0,.4.4.4,5.8,0,11.6,0,17.4,0,.4,0,.6,0,.5.5,0,1.9,0,3.9,0,5.8,0,.4-.1.5-.5.5-5.8,0-11.6,0-17.4,0-.4,0-.5.1-.5.5,0,1,0,2,0,3,0,.4,0,.5.5.5,5.9,0,11.7,0,17.6,0,.4,0,.6,0,.6.6,0,2.1,0,4.2,0,6.3,0,.3,0,.5-.4.5-8.8,0-17.7,0-26.5,0s-1.9-.7-1.9-1.9c0-8.9,0-17.9,0-26.9,0-.4,0-.4.4-.4,4.7,0,9.3,0,14,0Z"/>
    <path class="cls-1" d="M141.1,3.1c4.6,0,9.3,0,13.9,0,.4,0,.5,0,.5.5,0,2,0,4.1,0,6.1,0,.4,0,.5-.5.5-5.9,0-11.8,0-17.7,0-.4,0-.5,0-.5.5,0,1.1,0,2.1,0,3.2,0,.3.1.4.4.4,5.8,0,11.6,0,17.4,0,.4,0,.5,0,.5.5,0,1.9,0,3.9,0,5.8,0,.4-.1.5-.5.5-5.8,0-11.6,0-17.4,0-.4,0-.6.1-.5.5,0,1,0,2,0,3.1,0,.4,0,.4.4.4,5.9,0,11.8,0,17.7,0,.4,0,.5.1.5.5,0,2.1,0,4.3,0,6.4,0,.3,0,.4-.4.4-8.9,0-17.8,0-26.6,0s-1.9-.7-1.9-1.9c0-9,0-17.9,0-26.9,0-.3,0-.4.4-.4,4.7,0,9.4,0,14.1,0Z"/>
    <path class="cls-1" d="M83.9,3.1h.4c3.4,0,6.8,0,10.2,0,.3,0,.5.1.6.4,2.9,7.1,5.7,14.3,8.6,21.4,0,.1,0,.2.2.4.3-.8.6-1.5.9-2.2,2.6-6.5,5.3-13.1,7.9-19.6,0-.2.1-.4.5-.4,3.4,0,6.9,0,10.3,0,0,0,.1,0,.2,0,0,.2-.1.4-.2.6-3.9,9-7.9,18-11.8,27-.5,1.1-1.2,1.6-2.4,1.6-3.7,0-7.3,0-11,0-1.2,0-1.9-.5-2.4-1.6-3.9-9.1-7.9-18.2-11.8-27.3,0-.1,0-.2-.2-.4Z"/>
    <path class="cls-1" d="M159.6,17.1c0-4.5,0-9,0-13.5,0-.4,0-.5.5-.5,3.1,0,6.2,0,9.2,0,.4,0,.5,0,.5.5,0,6.9,0,13.7,0,20.6,0,.4.1.5.5.5,5.8,0,11.6,0,17.4,0,.4,0,.5,0,.5.5,0,2.2,0,4.5,0,6.7,0,.3,0,.4-.4.4-8.8,0-17.5,0-26.3,0s-1.9-.7-1.9-1.9v-13.4Z"/>
    <path class="cls-1" d="M47.7,14c-1.3-3-2.9-5.9-4.8-8.5-1.1-1.6-2.7-2.4-4.7-2.4-8.6,0-17.2,0-25.8,0-.3,0-.4,0-.4.4,0,4.7,0,9.4,0,14.2s0,9.4,0,14.1c0,.4,0,.5.5.5,8.6,0,17.1,0,25.7,0,2.2,0,3.8-.9,5-2.7,1.6-2.4,3-4.8,4.2-7.4,1.3-2.7,1.5-5.5.3-8.2ZM36.7,21.2c0,1.5-.5,2.2-1.9,2.7-4,1.5-7.9,3-12,4.3q-.5.2-.5-.4V7.1c1.1.4,2.2.7,3.3,1.1,3.1,1.1,6.1,2.2,9.2,3.3,1.4.5,1.9,1.3,1.9,2.7,0,2.3,0,4.7,0,7Z"/>
    <path class="cls-1" d="M224.7,14c-.9-5.2-3.8-8.6-8.8-10.2-2.8-.9-5.7-1.1-8.6-1.1-.7,0-1.5,0-2.2,0-2.2,0-4.4.4-6.5,1.1-4.4,1.4-7.3,4.2-8.4,8.8-.7,2.8-.8,5.7-.4,8.6.3,2.1,1,4,2.2,5.8,1.8,2.6,4.3,4.1,7.3,5,3.1.9,6.2,1.1,9.4,1,2.5,0,5-.4,7.4-1.2,4.3-1.5,7.2-4.4,8.3-8.9.7-2.9.8-5.9.3-8.8ZM214.4,20.8c-.6,2.4-2.2,3.8-4.6,4.3-.8.2-1.7.2-2.5.2-1.3,0-2.7-.1-3.9-.7-1.5-.6-2.5-1.8-3-3.3-.7-2.2-.7-4.5-.1-6.8.6-2.3,2.2-3.7,4.5-4.2,2-.4,4-.4,6,.2,1.8.5,3,1.7,3.6,3.6.6,2.2.7,4.4.1,6.6Z"/>
  </g>
  <g>
    <path class="cls-2" d="M72.7,52c-.5,0-1,.2-1.6.3-.6,0-1.2.1-1.8.2-.6,0-1.3,0-1.9,0-.7,0-1.3,0-1.9,0h-1.1c-.1,0-.2,0-.3,0,0,0,0-.1,0-.3v-9.4c0-.1,0-.2,0-.3,0,0,.1,0,.3,0h6.5v1.1h-5.5v7.8h.7c1.1,0,2.3,0,3.4-.1,1.2,0,2.2-.2,3.3-.4v1.1ZM74.8,56.3h-1.3v-14.7h1.3v14.7Z"/>
    <path class="cls-2" d="M88.3,49.2h-1.3v-3.3h-1.9v2.4c0,.1,0,.2,0,.3,0,0-.1,0-.3,0h-4.8c-.1,0-.2,0-.3,0,0,0,0-.1,0-.3v-6.1h1.2v2.1h3v-2.1h1.3v2.6h1.9v-2.9h1.3v7.3ZM83.9,47.6v-2.1h-3v2.1h3ZM91.5,56.2h-9.7c-.1,0-.2,0-.3,0,0,0,0-.1,0-.3v-2.9c0-.1,0-.2,0-.3,0,0,.1,0,.3,0h8v-1.5h-8.3v-1.1h9.4c.1,0,.2,0,.3,0,0,0,0,.1,0,.3v2.9c0,.1,0,.2,0,.3,0,0-.1,0-.3,0h-8v1.5h8.6v1.1ZM91.2,49.2h-1.3v-7.6h1.3v7.6Z"/>
    <path class="cls-2" d="M108.3,51.1h-13.4v-1.1h6v-1.7h-3.8c-.1,0-.2,0-.3,0,0,0,0-.1,0-.3v-3c0-.1,0-.2,0-.3,0,0,.1,0,.3,0h8v-1.6h-8.4v-1.1h9.4c.1,0,.2,0,.3,0,0,0,0,.1,0,.3v3c0,.1,0,.2,0,.3,0,0-.1,0-.3,0h-8.1v1.6h8.7v1.1h-4.5v1.7h6.1v1.1ZM107.1,56h-10c-.1,0-.2,0-.3,0,0,0,0-.1,0-.3v-3.5h1.3v2.8h9.1v1.1Z"/>
    <path class="cls-2" d="M130.9,51.4h-6v4.9h-1.3v-4.9h-6.1v-1.1h13.5v1.1ZM129.1,48.1c0,.1,0,.2,0,.3,0,0-.1,0-.3,0h-9.2c-.1,0-.2,0-.3,0,0,0,0-.1,0-.3v-6.1h1.3v1.9h7.3v-1.9h1.3v6.1ZM127.8,47.3v-2.4h-7.3v2.4h7.3Z"/>
    <path class="cls-2" d="M141.5,49.8c-.3-.1-.6-.3-1-.6-.4-.2-.7-.5-1-.8-.3-.3-.6-.6-.9-1-.3-.4-.5-.7-.7-1.1-.2.4-.4.8-.6,1.2-.3.4-.6.7-.9,1.1-.3.3-.7.6-1.1.9-.4.3-.7.5-1.1.7l-1-.9c.5-.3,1.1-.6,1.5-.9.5-.4.9-.8,1.3-1.2.4-.5.7-1,.9-1.5.2-.5.3-1.2.3-1.8v-1.8h1.4v1.7c0,.6.1,1.2.3,1.7.2.5.5,1,.9,1.4.4.4.8.8,1.2,1.1.5.3.9.6,1.4.7l-.9,1ZM145.7,56h-9.3c-.1,0-.2,0-.3,0,0,0,0-.1,0-.3v-4.3h1.3v3.6h8.3v1.1ZM145.2,52.4h-1.3v-10.8h1.3v4.4h2v1.2h-2v5.3Z"/>
    <path class="cls-2" d="M163.1,51.4h-6v4.9h-1.3v-4.9h-6.1v-1.1h13.5v1.1ZM161.3,48.1c0,.1,0,.2,0,.3,0,0-.1,0-.3,0h-9.2c-.1,0-.2,0-.3,0,0,0,0-.1,0-.3v-6.1h1.3v1.9h7.3v-1.9h1.3v6.1ZM160,47.3v-2.4h-7.3v2.4h7.3Z"/>
    <path class="cls-2" d="M177.4,55.8c0,.1,0,.2,0,.3,0,0-.1,0-.3,0h-9.1c-.1,0-.2,0-.3,0,0,0,0-.1,0-.3v-3.9c0-.1,0-.2,0-.3,0,0,.1,0,.3,0h3.9v-1.8h-6.1v-1.1h13.5v1.1h-6.1v1.8h3.9c.1,0,.2,0,.3,0,0,0,0,.1,0,.3v3.9ZM178,47.3h-10.9v-1.1h2v-3h-1.7v-1.1h10.3v1.1h-1.7v3s2,0,2,0v1.1ZM176.1,55.1v-2.5h-7.2v2.5h7.2ZM174.7,46.2v-3s-4.4,0-4.4,0v3h4.4Z"/>
    <path class="cls-2" d="M188.5,49.9c-.6-.4-1.1-.8-1.6-1.4-.5-.6-.9-1.2-1.2-1.9-.3.8-.6,1.5-1.1,2.1-.5.6-1.1,1.2-1.7,1.6l-1.1-.9c1.1-.6,1.9-1.4,2.4-2.3.5-.9.8-2.1.8-3.4v-1.7h1.4v1.7c0,1.3.3,2.4.9,3.2.6.9,1.3,1.5,2.2,2l-.8.9ZM194.7,56h-9.6c-.1,0-.2,0-.3,0,0,0,0-.1,0-.3v-4.3h1.3v3.6h8.6v1.1ZM191.6,52.2h-1.3v-6.3h-2.4v-1.2h2.4v-2.9h1.3v10.3ZM194.3,52.6h-1.3v-10.9h1.3v10.9Z"/>
    <path class="cls-2" d="M207.5,52.2c-.5,0-1,.2-1.5.3-.6,0-1.2.1-1.8.2-.6,0-1.2,0-1.9,0-.6,0-1.2,0-1.7,0h-.9c-.1,0-.2,0-.3,0,0,0,0-.1,0-.3v-9.7c0-.1,0-.2,0-.3,0,0,.1,0,.3,0h6.3v1.1h-5.3v3.4h4.7v1.1h-4.7v3.6h1.2c.4,0,.9,0,1.4,0,.5,0,1,0,1.6-.1.5,0,1,0,1.5-.1.5,0,.9-.1,1.2-.2v1.1ZM210.2,56.3h-1.3v-8.5h-2.5v-1.2h2.5v-5h1.3v14.7Z"/>
  </g>
  <metadata>
    <sfw xmlns="http://ns.adobe.com/SaveForWeb/1.0/">
      <slices/>
      <sliceSourceBounds x="12" y="1.86" width="249" height="53.67" bottomLeftOrigin="true"/>
    </sfw>
  </metadata>
</svg>