<?xml version="1.0" encoding="UTF-8"?>
<svg id="Layer_1" data-name="Layer 1" xmlns="http://www.w3.org/2000/svg" width="272" height="58.2" version="1.1" viewBox="0 0 272 58.2">
  <defs>
    <style>
      .cls-1 {
        fill: #fff;
        stroke-width: 0px;
      }
    </style>
  </defs>
  <g>
    <path class="cls-1" d="M117.8,30.3c.6,0,1,0,1.3-.2.4-.2.6-.5.6-.9v-10.6c0-.5-.1-.8-.4-1-.3-.2-.8-.3-1.6-.3v-.5h6v.5c-.8,0-1.3.1-1.7.3-.3.2-.5.5-.5,1v5.9l6.2-5.9c.3-.3.4-.6.2-.8-.2-.2-.7-.3-1.6-.3v-.6h5.3v.5c-.4,0-.9,0-1.3.2-.6.2-1.1.5-1.6.9l-3.6,3.3,5.2,7.4c.3.4.7.7,1.1.9.4.2.8.2,1.3.2v.6h-6.3v-.5c.8,0,1.3,0,1.5-.1.4-.1.4-.4.2-.8l-4.4-6.3-2.3,2.2v3.9c0,.4.2.7.6.9.3.1.8.2,1.5.3v.5h-6v-.5Z"/>
    <path class="cls-1" d="M147.1,29.3c.2.4.4.7.8.8.2,0,.5,0,1,0h.1v.6h-5.9v-.6c.7,0,1.2,0,1.4-.2.3-.2.4-.5.3-1.1l-1.2-3.2h-5.7l-1,2.6c-.2.6-.1,1.1.3,1.4.3.3.8.4,1.5.4v.6h-4.9v-.6c.7,0,1.2-.1,1.5-.3.4-.3.7-.8,1-1.6l4.2-11.3,1.8-.4,4.8,12.8ZM138.2,25.2h5.2l-2.6-7.4-2.6,7.4Z"/>
    <path class="cls-1" d="M149.7,30.3c.7,0,1.2,0,1.6-.2.4-.2.7-.7.7-1.3v-10.1c0-.4-.1-.8-.4-1-.4-.3-1-.4-1.9-.4v-.5h3.7l8.3,11.1v-9.4c0-.4-.2-.7-.4-.9-.3-.2-.9-.3-1.6-.3v-.5h4.7v.5c-.6,0-1.1,0-1.4.3-.4.2-.6.5-.6.9v12.5h-.5l-9.2-12.3v10.1c0,.5.2,1,.6,1.2.4.2,1,.3,1.7.3v.5h-5.2v-.5Z"/>
    <path class="cls-1" d="M179.4,25.3c-.7,0-1.2,0-1.5.3-.2.2-.3.4-.3.8v4.5h-.4l-1.2-1.2c-.6.5-1,.8-1.4,1-.6.3-1.4.4-2.5.4-2,0-3.5-.7-4.7-2.1-1.2-1.3-1.8-3.1-1.8-5.2s.6-3.7,1.8-5.2c1.3-1.5,2.9-2.3,5-2.3s.9,0,1.3.1c.2,0,.6.1.9.3.4.1.7.2.9.2.3,0,.5-.2.8-.6h.5c0,0,1.3,3.6,1.3,3.6h-.5c0,.1,0,0,0,0-.7-.9-1.2-1.6-1.8-2-.9-.8-2-1.2-3.2-1.2s-2.8.7-3.6,2c-.7,1.2-1.1,2.7-1.1,4.7s.4,4.2,1.3,5.4c.7,1.1,1.7,1.6,3,1.6s1.8-.2,2.5-.5c.8-.4,1.3-.9,1.4-1.7v-2.1c0-.4-.2-.6-.6-.8-.4-.2-.9-.3-1.5-.3v-.6h5.6v.6Z"/>
    <path class="cls-1" d="M180.3,30.3c.8,0,1.3,0,1.6-.2.3-.2.5-.5.5-1.1v-10.1c0-.5-.1-.9-.4-1.2-.3-.3-.9-.4-1.7-.4v-.5h6v.5c-.6,0-1.1.1-1.5.3-.4.3-.6.6-.6,1v4.8h6.7v-4.6c0-.5-.2-.8-.6-1.1-.3-.2-.8-.4-1.4-.4v-.5h6v.5c-.6,0-1.1.1-1.4.3-.4.3-.7.6-.7,1v10.4c0,.5.2.9.6,1.1.2.1.8.2,1.5.2v.6h-6.1v-.6h.2c.6,0,1.1,0,1.3-.1.4-.2.6-.5.6-1v-5.1h-6.7v4.9c0,.6.2,1.1.5,1.2.2.1.8.2,1.6.2v.6h-6.1v-.6Z"/>
    <path class="cls-1" d="M200.7,16.8v.6c-.6,0-1.1,0-1.2.1-.3.1-.4.4-.3.8l2.9,9.5,2.5-8.5-.3-1.2c-.1-.3-.2-.5-.5-.6-.2-.1-.6-.2-1.1-.2v-.6h5v.6c-.6,0-1.1,0-1.3.2-.2.2-.3.4-.2.8l2.9,9.5,2.7-9c.2-.5,0-.8-.2-1.1-.3-.2-.8-.4-1.5-.4v-.6h4.1v.6c-.5,0-1,.1-1.2.3-.3.2-.5.6-.6,1.2l-3.7,12.3h-.5l-3.3-10.9-3.3,10.9h-.5l-4-13.1c0-.4-.3-.6-.5-.7-.2,0-.5,0-1,0v-.6h5.1Z"/>
    <path class="cls-1" d="M227.7,29.3c.2.4.4.7.8.8.2,0,.6,0,1,0h.1v.6h-5.9v-.6c.7,0,1.2,0,1.4-.2.3-.2.4-.5.2-1.1l-1.1-3.2h-5.7l-1,2.6c-.2.6-.1,1.1.3,1.4.3.3.8.4,1.5.4v.6h-4.9v-.6c.7,0,1.2-.1,1.5-.3.4-.3.7-.8,1-1.6l4.2-11.3,1.7-.4,4.8,12.8ZM218.8,25.2h5.2l-2.6-7.4-2.6,7.4Z"/>
    <path class="cls-1" d="M118.6,39.4h-.9v12.1h4.4v-1.2h-3.5v-10.9Z"/>
    <path class="cls-1" d="M127,43.1c-.1-1-.4-1.8-.7-2.2-.3-.4-.7-.5-1.1-.5-.6,0-1.1.4-1.5,1.3-.5.9-.7,2.2-.7,3.8s.2,2.8.5,3.8c.4,1,.9,1.4,1.6,1.4s.8-.2,1.1-.7c.4-.6.6-1.5.8-2.7h.9c-.2,1.9-.6,3.2-1.3,3.9-.4.4-.9.7-1.5.7s-1.5-.5-2-1.5c-.6-1.1-.9-2.8-.9-4.9s.3-3.4.7-4.5c.6-1.2,1.3-1.8,2.3-1.8s1.5.4,2,1.2c.4.7.6,1.6.7,2.8h-.9Z"/>
    <path class="cls-1" d="M127.7,39.4h5.4v1.2h-2.3v10.9h-.9v-10.9h-2.3v-1.2Z"/>
    <path class="cls-1" d="M136.5,51.5h-.9v-12.1h2.9c.7,0,1.2.3,1.6.9.3.5.5,1.4.5,2.6s-.2,2-.5,2.6c-.3.6-.9.9-1.7.9h-2v5.2ZM136.5,45.1h1.8c.5,0,.9-.1,1.1-.4.2-.3.4-.9.4-1.8s-.1-1.5-.4-1.8c-.2-.3-.5-.4-1-.4h-1.9v4.5Z"/>
    <path class="cls-1" d="M142,51.5h-.9v-12.1h4.6v1.2h-3.7v4h3.2v1.2h-3.2v5.8Z"/>
    <path class="cls-1" d="M150.5,39.4h.9l-2.5,12.4h-.8l-2.5-12.4h.9l2,10,2-10Z"/>
    <path class="cls-1" d="M158.5,43.1c-.1-1-.3-1.8-.7-2.2-.3-.4-.6-.5-1.1-.5-.6,0-1.1.4-1.5,1.3-.4.9-.7,2.2-.7,3.8s.2,2.8.5,3.8c.4,1,.9,1.4,1.6,1.4s.8-.2,1.2-.7c.4-.6.6-1.5.7-2.7h.9c-.1,1.9-.6,3.2-1.3,3.9-.4.4-.9.7-1.5.7s-1.5-.5-2-1.5c-.6-1.1-.9-2.8-.9-4.9s.2-3.4.7-4.5c.5-1.2,1.3-1.8,2.3-1.8s1.5.4,1.9,1.2c.4.7.6,1.6.7,2.8h-.9Z"/>
    <path class="cls-1" d="M160.3,43.5c.4-.9,1-1.4,1.7-1.4s1.3.4,1.7,1.3c.4.8.6,2,.6,3.5s-.2,2.6-.5,3.5c-.4.9-1,1.4-1.8,1.4s-1.3-.5-1.7-1.5c-.4-.9-.6-2-.6-3.4s.2-2.6.6-3.4ZM160.9,49.5c.2.7.6,1.1,1.1,1.1s.9-.4,1.2-1.1c.2-.6.3-1.5.3-2.7s0-1.8-.3-2.4c-.2-.7-.6-1.1-1.2-1.1s-.9.3-1.1,1.1c-.2.6-.3,1.4-.3,2.5s.1,2.1.3,2.6Z"/>
    <path class="cls-1" d="M165.8,49.8h-1v1.7h1v-1.7Z"/>
    <path class="cls-1" d="M166.4,49.9h1v1.4c0,.7,0,1.2-.3,1.5-.1.3-.4.4-.7.5v-.7c.2,0,.3-.2.4-.3,0-.2,0-.4,0-.8h-.5v-1.6Z"/>
    <path class="cls-1" d="M171.1,50.4h3.6v1.2h-4.4v-12.1h.9v10.9Z"/>
    <path class="cls-1" d="M175.9,43.5v6.5c0,.3,0,.4.2.5,0,0,.1,0,.3,0h.4v1.2c-.1,0-.2,0-.4,0h-.3c-.3,0-.6-.1-.7-.4-.2-.3-.2-.8-.2-1.5v-6.3h-.6v-1.2h.6v-2.5h.8v2.5h.8v1.2h-.8Z"/>
    <path class="cls-1" d="M181.3,51.5h-.9v-1c-.1.4-.3.7-.6.9-.2.2-.5.3-.9.3-.8,0-1.3-.5-1.6-1.6-.3-.8-.4-2-.4-3.4s.2-2.5.6-3.3c.4-.8.9-1.2,1.5-1.2s.7.1,1,.4c.1.1.3.4.5.7h0c0,.1,0-3.9,0-3.9h.9v12.1ZM178.1,49.6c.2.7.6,1,1,1s.7-.3.9-.8c.3-.6.4-1.5.4-2.6s-.1-2.2-.4-2.8c-.2-.7-.6-1-1.1-1s-.8.4-1,1.1c-.2.6-.2,1.4-.2,2.5s0,2,.3,2.6Z"/>
    <path class="cls-1" d="M182.9,51.5h-.9v-1.7h.9v1.7Z"/>
    <path class="cls-1" d="M185.7,38.9c-.4.9-.7,2-1,3-.3,1.2-.4,2.4-.4,3.5s.2,2.5.5,3.7c.2,1,.6,1.9,1,2.7l-.8,1.1c-.5-1.1-.8-2.3-1.1-3.5-.2-1.3-.4-2.6-.4-3.9s.1-2.4.3-3.6c.2-1.2.6-2.5,1.1-3.7l.8.8Z"/>
    <path class="cls-1" d="M190.1,42.7c0-.7-.2-1.2-.5-1.7-.3-.4-.7-.6-1.1-.6s-.7.1-.9.4c-.3.3-.4.8-.4,1.3s0,1.1.3,1.4c.2.3.6.7,1.4,1.2.9.6,1.4,1,1.7,1.4.4.5.5,1.3.5,2.3s-.2,2-.6,2.6c-.4.5-1,.8-1.8.8s-1.6-.4-2-1.1c-.4-.7-.6-1.7-.6-3h.8c0,1.1.1,1.8.4,2.3.3.4.7.6,1.3.6s1-.1,1.2-.4c.3-.3.4-.8.4-1.6s0-.6,0-.8c0-.3-.1-.5-.2-.7-.1-.2-.3-.4-.6-.6-.2-.2-.5-.4-.9-.7h-.1c-.8-.6-1.3-1.1-1.6-1.4-.3-.5-.5-1.2-.5-2.1s.2-1.7.5-2.3c.4-.6,1-.9,1.7-.9s1.6.4,2,1.2c.3.6.5,1.3.5,2.3h-.9Z"/>
    <path class="cls-1" d="M195.7,44.9c0-1.1-.2-1.8-.6-2.3-.3-.3-.7-.5-1.2-.5s-.7.2-1,.5c-.2.3-.4.5-.5.8v-4.2h-.8v12.1h.8v-6c0-.5.1-1,.4-1.5.3-.5.6-.7,1-.7s.6.2.8.5c.1.3.2.8.2,1.4v6.2h.8v-6.6Z"/>
    <path class="cls-1" d="M196.2,44.8c0-.9.2-1.6.6-2.1.3-.5.8-.7,1.5-.7s.8.2,1.1.5c.5.5.7,1.3.7,2.2v5.1c0,.2,0,.3,0,.4,0,0,.1.1.2.1h.3c0,0,0,1.1,0,1.1,0,0-.1,0-.2,0-.1,0-.2,0-.3,0-.3,0-.6-.1-.7-.3-.1-.2-.2-.4-.2-.7-.2.3-.3.5-.6.7-.3.3-.8.4-1.3.4s-.8-.2-1.1-.7c-.3-.5-.4-1.2-.4-2s0-1.3.2-1.7c.2-.6.6-.9,1.2-1.1.5-.2.8-.3,1-.3.2,0,.4-.2.6-.3.1,0,.2-.2.3-.3,0,0,0-.2,0-.4,0-.7,0-1.1-.3-1.4-.1-.2-.5-.3-.9-.3s-.8.1-.9.3c-.1.2-.2.6-.3,1.2h-.8ZM199.3,46.8c0,0-.2.2-.4.2-.2,0-.5.2-1,.3-.4.1-.7.3-.9.4-.2.2-.3.7-.3,1.2s0,.9.2,1.1c.2.3.4.5.8.5s.7-.2,1-.6c.3-.4.5-.8.5-1.3v-1.9Z"/>
    <path class="cls-1" d="M201.8,42.5v1.1c.2-.4.3-.7.6-1,.3-.2.7-.4,1.1-.4v1.3c-.6,0-1,.2-1.3.7-.3.4-.4.9-.4,1.5v5.8h-.8v-9.1h.8Z"/>
    <path class="cls-1" d="M208.3,48.7c0,.9-.3,1.6-.6,2.2-.4.6-1,1-1.7,1s-1.3-.5-1.7-1.5c-.3-.9-.5-2.1-.5-3.5s.2-2.5.6-3.4c.4-.9,1-1.4,1.7-1.4s1.2.4,1.6,1.3c.4.9.6,2.2.6,3.8h-3.7c0,1,.1,1.9.3,2.5.3.6.6,1,1.1,1s.8-.2,1-.5c.2-.3.4-.8.4-1.4h.8ZM207.5,46c0-.8-.2-1.5-.4-1.9-.3-.5-.6-.7-1.1-.7s-.8.2-1,.8c-.2.5-.3,1.1-.3,1.9h2.8Z"/>
    <path class="cls-1" d="M212.8,51.5h-.9v-6.2c0-.6,0-1.1-.2-1.4-.2-.4-.4-.5-.8-.5s-.7.2-1,.7c-.3.5-.4,1-.4,1.5v6h-.8v-12.1h.8v4.2c.1-.3.3-.6.5-.8.3-.4.6-.5,1-.5s.9.2,1.2.5c.4.4.6,1.2.6,2.3v6.6Z"/>
    <path class="cls-1" d="M213.9,43.5c.4-.9,1-1.4,1.7-1.4s1.3.4,1.7,1.3c.4.8.6,2,.6,3.5s-.2,2.6-.5,3.5c-.4.9-1,1.4-1.8,1.4s-1.3-.5-1.7-1.5c-.4-.9-.6-2-.6-3.4s.2-2.6.6-3.4ZM214.5,49.5c.2.7.6,1.1,1.1,1.1s.9-.4,1.2-1.1c.2-.6.3-1.5.3-2.7s0-1.8-.3-2.4c-.3-.7-.6-1.1-1.2-1.1s-.9.3-1.1,1.1c-.2.6-.3,1.4-.3,2.5s0,2.1.3,2.6Z"/>
    <path class="cls-1" d="M219.3,51.5h-.8v-12.1h.8v12.1Z"/>
    <path class="cls-1" d="M224.1,51.5h-.8v-1c-.2.4-.4.7-.6.9-.2.2-.5.3-.9.3-.8,0-1.3-.5-1.6-1.6-.3-.8-.4-2-.4-3.4s.2-2.5.6-3.3c.4-.8.8-1.2,1.5-1.2s.7.1,1,.4c.2.1.3.4.5.7h0c0,.1,0-3.9,0-3.9h.8v12.1ZM220.8,49.6c.2.7.6,1,1,1s.7-.3.9-.8c.3-.6.4-1.5.4-2.6s-.1-2.2-.4-2.8c-.3-.7-.6-1-1.1-1s-.8.4-1,1.1c-.2.6-.2,1.4-.2,2.5s0,2,.3,2.6Z"/>
    <path class="cls-1" d="M228.9,48.7c0,.9-.3,1.6-.6,2.2-.4.6-1,1-1.7,1s-1.3-.5-1.7-1.5c-.3-.9-.5-2.1-.5-3.5s.2-2.5.6-3.4c.4-.9,1-1.4,1.7-1.4s1.2.4,1.6,1.3c.4.9.6,2.2.6,3.8h-3.7c0,1,.1,1.9.3,2.5.3.6.6,1,1.1,1s.8-.2,1-.5c.2-.3.4-.8.5-1.4h.8ZM228.1,46c0-.8-.1-1.5-.4-1.9-.2-.5-.6-.7-1.1-.7s-.8.2-1,.8c-.3.5-.4,1.1-.4,1.9h2.8Z"/>
    <path class="cls-1" d="M230.2,42.5v1.1c.2-.4.4-.7.6-1,.3-.2.7-.4,1.2-.4v1.3c-.6,0-1.1.2-1.3.7-.2.4-.4.9-.4,1.5v5.8h-.8v-9.1h.8Z"/>
    <path class="cls-1" d="M234.1,41.9c.3,1.2.4,2.4.4,3.6s-.1,2.6-.4,3.9c-.3,1.3-.6,2.5-1.1,3.5l-.8-1.1c.4-.8.7-1.7,1-2.7.3-1.2.4-2.4.4-3.7s-.1-2.3-.4-3.5c-.2-1.1-.6-2.1-1-3l.8-.8c.5,1.3.8,2.5,1.1,3.7Z"/>
  </g>
  <polygon class="cls-1" points="95.6 54 112.6 54 76.5 4.7 38.6 54.1 38.5 54.3 45.4 54.3 75.7 12.8 104.2 49.1 98.2 49.1 76.8 21.1 51.5 54.3 69.3 54.3 75.7 46.2 82.6 54.3 89.2 54.3 75.7 37.6 66.5 50.2 59.6 50.2 75.7 28.6 95.6 54 95.6 54"/>
  <metadata>
    <sfw xmlns="http://ns.adobe.com/SaveForWeb/1.0/">
      <slices/>
      <sliceSourceBounds x="38.52" y="3.92" width="195.97" height="49.55" bottomLeftOrigin="true"/>
    </sfw>
  </metadata>
</svg>