<?xml version="1.0" encoding="UTF-8"?>
<svg id="Layer_1" data-name="Layer 1" xmlns="http://www.w3.org/2000/svg" width="272" height="58.2" version="1.1" viewBox="0 0 272 58.2">
  <defs>
    <style>
      .cls-1 {
        fill: #fff;
        stroke-width: 0px;
      }
    </style>
  </defs>
  <path class="cls-1" d="M56.3,32.9v6.5h-4.5v-6.5h-12.8v-3.7h29.1v3.7h-11.8ZM41.6,25.6v-14.9h23.7v14.9h-23.7ZM41.6,47.3v-10.7h4.5v7.1h20.1v3.7h-24.7ZM60.7,14.4h-14.6v7.5h14.6v-7.5Z"/>
  <path class="cls-1" d="M85.2,34.5h8.4v3.7h-21.6v-3.7h8.7v-2.2c-1.8-.5-3.4-1.4-4.6-2.9-1.2-1.4-1.8-3.1-1.8-4.9s.9-4.1,2.6-5.7c1.7-1.6,3.8-2.4,6.2-2.4s4.5.8,6.2,2.4c1.7,1.6,2.6,3.5,2.6,5.7s-.6,3.5-1.9,5c-1.2,1.5-2.8,2.4-4.7,2.8v2.2ZM72.8,16.2v-3.7h7.9v-2.7h4.5v2.7h7.9v3.7h-20.3ZM86,21.4c-.8-.8-1.8-1.3-3-1.3s-2.1.4-3,1.3c-.8.8-1.3,1.8-1.3,3s.4,2.1,1.3,3c.8.8,1.8,1.3,3,1.3s2.2-.4,3-1.3c.8-.8,1.2-1.8,1.2-3s-.4-2.1-1.2-3ZM99.4,27.2v20.2h-4.5V10.7h4.5v12.8h3.7v3.7h-3.7Z"/>
  <path class="cls-1" d="M122.7,29.8l-5.9-10.6-5.9,10.6h-4.8l8.4-15.4h-7.2v-3.7h19.1v3.7h-7.2l8.4,15.4h-4.8ZM129.8,47.2v-10.9h-20.8v-3.7h25.3v14.5h-4.5ZM129.8,30.8V10.7h4.5v20.1h-4.5Z"/>
  <path class="cls-1" d="M158,29.7v2.2h9.6v9.6h-19.2v2.2h20.1v3.7h-24.7v-9.5h19.2v-2.3h-19.2v-3.7h9.6v-2.2h-12.3v-3.7h29.2v3.7h-12.3ZM143.9,23.5v-12.8h23.7v12.8h-23.7ZM163,14.4h-14.6v5.5h14.6v-5.5Z"/>
  <path class="cls-1" d="M182.8,49.1c-1.1-1.3-2.5-3.7-4.4-7.1-1.8-3.4-2.8-7.7-2.8-12.8s.6-7.6,1.8-10.7c1.2-3.1,3-6.3,5.2-9.5h3c-2.3,4.3-3.8,7.7-4.5,10.1-.6,2.4-1.1,5.7-1.2,9.7,0,5,.6,9,1.8,12,1.2,3,2.6,5.8,4.3,8.2h-3.3Z"/>
  <path class="cls-1" d="M207,32.6v14.7h-4.6v-14.7h-12.3v-3.7h29.2v3.7h-12.3ZM212.6,26.4l-8-8.4-8,8.4h-5.7l11.2-12h-10.1v-3.7h25.3v3.7h-10.1l11.2,12h-5.7Z"/>
  <path class="cls-1" d="M231.4,39.5c-1.1,3.2-2.9,6.5-5.4,9.7h-3c1-1.7,2.2-4.1,3.6-7.2,1.4-3.1,2.2-7.2,2.2-12.4s-.3-5.6-.9-8.6c-.6-3-2.2-6.8-4.9-11.5h3.3c1.8,2.9,3.4,5.7,4.8,8.6,1.3,2.9,2,6.5,2,10.9s-.6,7.3-1.7,10.6Z"/>
  <metadata>
    <sfw xmlns="http://ns.adobe.com/SaveForWeb/1.0/">
      <slices/>
      <sliceSourceBounds x="38.91" y="9.09" width="194.18" height="40.02" bottomLeftOrigin="true"/>
    </sfw>
  </metadata>
</svg>