<?xml version="1.0" encoding="UTF-8"?>
<svg id="Layer_1" data-name="Layer 1" xmlns="http://www.w3.org/2000/svg" width="272" height="58.2" version="1.1" viewBox="0 0 272 58.2">
  <defs>
    <style>
      .cls-1 {
        fill-rule: evenodd;
      }

      .cls-1, .cls-2 {
        fill: #fff;
        stroke-width: 0px;
      }
    </style>
  </defs>
  <path class="cls-1" d="M13,5.2c4.9,0,9.2,3,11.1,7.3,4.4-4.4,10.5-7.1,17.2-7.1,13.4,0,24.3,10.8,24.3,24.2s-10.9,24.2-24.3,24.2-24.2-10.8-24.2-24.2v-1.1c-1.3.4-2.6.7-4,.7-6.7,0-12-5.4-12-12S6.4,5.2,13,5.2Z"/>
  <path class="cls-1" d="M48.3,31.4c-2.7,0-5.2,0-7.8-.2-2.9-.4-5.6-1.1-8.5-1.9-.7-.1-3.6-2.5-3.5-2.6-1.3-2-1.9-3.6-1.6-5.9.3-.6.3-1.1,1.1-1.1,6.5,0,13-.1,19.6,0,1.1-.4.3-1.1.6-1.8v-.2c-.2,0-.4-.1-.6-.2-3.1,0-6.3,0-18.9,0s-.5,0-.9,0c-.5,0-1.2,0-1.5-.4,0-.6,0-1.2.2-1.8,0-.6.3-.9.8-1,1.1,0,2.2,0,3.2,0,4.9,0,9.8-.2,14.7-.1,1.1,0,2.3-.1,3.5,0,2.1,0,4.2,0,6.3,0,.6,0,1.1,0,1.1.7,0,2.1,0,4.4-.2,6.5h0c-.1.6-1.3,1.3-2,1.6h-7c-4,0-8,0-12,0-.1,0-.3,0-.4.1,0,.3,0,1.3.4,1.4,0,.1.7.7.8.8.4.2.8.4,1.1.6,3.4.9,6.9,1.2,10.5,1.2,2.3-.1,4.6,0,6.8-.3,1.1-.1,2.2-.4,3.2,0,.2.1.3.3.3.6-.7,1.3-1.6,2-2.7,2.8-1.2.4-2,.6-2.5.8-1.3.3-2.6.3-3.9.3Z"/>
  <path class="cls-1" d="M20.2,24.9c-.3,0-.6,0-1-.2-.3-.7-.3-1.5-.4-2.2,0-.5,0-1-.1-1.6-.2-1.1-.8-2-1.5-3-.1-.1-.3-.4-.4-.5-.4-.4-.8-.6-1.3-.8-.5-.4-1.1-.4-1.8-.6-.3,0-6.6,0-7,0-.4-.1-.9-.4-1.4-.6-.6-.4-1-.7-1.4-1.3-.6-2.1-.1-3.5,1.6-5,3.7-.8,7.5-.3,11.3-.1,1.1.2,2.5.8,3.5,1.4.3.3.6.6,1,.8,0,0,.6.6.8.6.1.4.3.5.5.8h0c.3.8.9,1.1,1.1,1.8.5.3,1.1,2.7,1.1,3.2.2.6.2.8.3.9q.1.9.3,1.5c0,1.3,0,2.5,0,3.7,0,.4,0,.6-.3,1q0,0-.3.1h-4.7Z"/>
  <path class="cls-1" d="M57.3,41.2c0-2.3,0-4.6,0-7,0,0,0-.2-.1-.3h0c-.1-.1-.3-.3-.5-.4-4.7,0-9.4,0-14.2,0h-14.2c-.7.1-.6.4-.6,1.1v9.6c.1.4.3.4.8.5q.8,0,3.9-.1h22.9c.8,0,1.2.1,1.6.1.8-.4.5-1.6.5-2.4s0-.8,0-1.3ZM50.2,41.8c-.2.2-.3.3-.6.3h-14.4c-.1,0-.2-.1-.3-.1-.2-.2-.3-.5-.1-1.1v-3c0-.6-.4-1.3.4-1.5h7.2c6.1,0,6.3,0,7.2,0s.4.1.6.3c0,1.7,0,3.3,0,5Z"/>
  <path class="cls-1" d="M22.4,26.1c2,0,3.6,1.6,3.6,3.6s-1.6,3.6-3.6,3.6-3.6-1.6-3.6-3.6,1.6-3.6,3.6-3.6Z"/>
  <path class="cls-2" d="M272,21.2c0,.6-.2,1.3-.6,1.8-.4.5-.9.8-1.5.8s-1.1-.2-1.5-.8c-.4-.5-.5-1.1-.5-1.8s.1-1.4.5-1.9c.4-.5.8-.7,1.5-.7s1.1.2,1.5.7c.3.6.6,1.2.6,1.9h0Z"/>
  <path class="cls-2" d="M267.6,42.1c.2.8,0,1.5-.4,2-.5.6-1.1.8-2,.8s-1.6-.2-2-.8c-.5-.6-.6-1.2-.4-2,.2-4.9.3-9.2.3-12.7s-.1-7-.3-13c-.1-.8,0-1.6.4-2,.4-.6,1.1-.8,2-.8s1.5.2,2,.8c.4.5.6,1.2.4,2-.2,4-.4,7.6-.4,10.9s.1,8,.4,14.8Z"/>
  <path class="cls-2" d="M259,15.2c-.5-.6-1.3-.8-2.2-.6-2.7,0-4.9.1-6.3.1h-.4c-1.8,0-3.4,0-4.9-.1-.6-.2-1,0-1.3.4-.4.4-.5,1.1-.5,1.8s.1,1.3.5,1.8c.4.4.8.6,1.3.4.8-.2,1.9-.3,3.2-.4h1.7c1.1,0,2.4.1,3.8.2.3,0,.5.2.6.5,0,.3.1.6.1,1.1.1,1.3.1,3.4.1,6.1,0,2.6-.1,4.7-.3,6.3-.1.8,0,1.4.5,1.9.5.4,1.1.6,1.8.7.8,0,1.4-.2,1.9-.7s.7-1.1.6-1.9c-.1-1.8-.2-4.2-.2-7.1s0-5.5.2-8c.2-1.1,0-2-.4-2.5Z"/>
  <path class="cls-2" d="M251.9,23.3c-.5-.6-1.1-.8-1.8-.8s-1.3.3-1.8.8c-.4.5-.6,1.1-.6,2s.2,1.4.6,2c.4.6,1.1.8,1.8.8s1.3-.3,1.8-.8c.4-.6.6-1.3.6-2s-.2-1.5-.6-2Z"/>
  <path class="cls-2" d="M238.2,17.1c0,.7-.1,1.2-.4,1.6-.2.4-.6.6-.9.4-4-.1-7.2-.2-9.6-.2s-5.2,0-7.9.2c-.3,0-.5.4-.4,1.1,0,.8.1,1.2.4,1.2,2.7.1,5.3.2,7.7.2s5.3,0,9.4-.2c.4,0,.7,0,.9.5.2.4.4,1,.4,1.7,0,.6-.1,1.2-.4,1.5-.3.4-.6.4-.9.2-3.7-.1-6.8-.3-9.2-.3s-5.3,0-7.9.3c-.4,0-.6.3-.6,1.1s.2,1.1.6,1.1c2.6.1,5.3.2,8,.2,2.5,0,5.6-.1,9.5-.2.4-.1.6,0,.9.4.2.4.3,1,.3,1.7s-.1,1.2-.4,1.6c-.2.5-.5.7-.8.6-4.6-.2-8.2-.3-10.8-.3-3.3,0-6.3.1-9.2.3-1.1.2-1.8,0-2.2-.6-.5-.6-.6-1.6-.4-3,.1-1.8.1-3.3.1-4.6s0-2.5-.1-5c-.2-1.4,0-2.4.4-3,.4-.7,1.2-.8,2.2-.6,3.2.1,6.3.2,9.2.2s6.5,0,10.8-.2c.4-.1.7,0,.9.5.2.4.4,1,.4,1.6h0Z"/>
  <path class="cls-2" d="M239.6,39.3c0,.8-.2,1.5-.6,1.9-.4.3-.8.5-1.3.3-4.4-.3-8.2-.4-11.5-.4s-7.2.1-11.9.4c-.5.2-1,0-1.3-.3-.4-.4-.6-1.1-.6-1.9s.2-1.6.6-2c.3-.4.7-.5,1.3-.3,5.5.2,9.6.3,12.4.3s7,0,11-.3c.6-.2,1-.1,1.3.3.4.4.6,1.1.6,2Z"/>
  <path class="cls-2" d="M204.8,16.4c.1-.8,0-1.6-.4-2-.4-.5-1.1-.7-2-.7h0c-.8,0-1.5.2-2,.7-.4.5-.6,1.2-.4,2,.1,3.9.2,6.4.2,7.3,0,1.7,0,4.2-.1,7.4-.2.8,0,1.5.4,2,.4.5,1.1.7,2,.7s1.5-.2,1.9-.7c.4-.6.5-1.2.4-2-.2-4.3-.3-7.4-.2-9.2,0-1.8.1-3.6.4-5.5Z"/>
  <path class="cls-2" d="M194.2,23.5v-.4.2h0Z"/>
  <path class="cls-2" d="M194.2,15.7c0,.2,0,.4.1.6,0,1,0,3.4.1,7.3,0,3.9,0,6.6,0,8.2-.1.4,0,.9.4,1.3.4.4,1,.6,1.8.6s1.4-.2,1.8-.7c.4-.6.5-1.2.3-2,0-4.3,0-7.3,0-8.9s.1-3.7.3-5.7c.2-.8,0-1.6-.3-2s-1.1-.7-2-.7-1.5.2-1.9.7c-.3.4-.4.6-.4,1.1v.3Z"/>
  <path class="cls-2" d="M194.2,15.4v.3-.3h0Z"/>
  <path class="cls-2" d="M193.6,21.6c-.4-.5-.9-.8-1.5-.8s-1.1.3-1.4.7h0c-.4.5-.6,1.1-.6,1.8s.2,1.3.6,1.8c.3.5.8.8,1.4.8s1.1-.3,1.5-.8c.4-.5.6-1,.6-1.6v-.4c0-.6-.2-1.1-.6-1.6Z"/>
  <path class="cls-2" d="M190.9,25.9s0,0-.1-.1c-.3-.1-.6-.2-.9-.1l-2.3.4c-.5.1-1.1.2-1.7.2h-1.9c-.2,0-.4-.5-.4-1.1s0-1.1.3-1.1c0-.2.4-.3,1.1-.3s1.6,0,2.5.2c.8.2,1.6,0,2.2-.7.5-.6.6-1.5.4-2.5v-3c.2-1.2,0-2-.4-2.5-.5-.6-1.2-.8-2.2-.6-.7.1-1.7.2-2.8.2s-2.4,0-3.7-.2c-.5-.2-.8-.1-1.1.1-.3.4-.4.8-.4,1.6s.1,1.3.4,1.7c.3.3.7.3,1.1.1,1-.1,2-.3,3-.3s1.6,0,1.7.2c0,.3,0,.8,0,1.2,0,.8,0,1.2-.2,1.2-.7,0-1.3.1-1.9.2h-1.8c-.8-.3-1.5-.1-1.9.4-.4.6-.6,1.4-.4,2.5v3c-.1,1.2,0,2,.5,2.6.5.6,1.2.8,2.2.6h3.7c.6,0,1.2-.1,1.9-.1.6,0,1.3-.2,2-.4.3,0,.6-.2.9-.5,0,0,.1-.1.1-.2.3-.4.4-.8.4-1.3s-.1-1.1-.4-1.3Z"/>
  <path class="cls-2" d="M205.9,39.4c-.4-.3-.9-.4-1.6-.1-.6,0-1.3,0-1.9,0-2.7.1-5.1.2-7.3.2h-4.4c-1,0-2.1,0-3.2,0-.7,0-1.1-.3-1.2-.8,0-.4,0-1.6,0-3.7.4-.9.4-1.6,0-2.2-.5-.5-1.3-.8-2.4-.8s-1.9.3-2.4.8c-.5.6-.5,1.3-.1,2.2,0,.8.1,1.8.1,2.7s0,1.9-.1,2.9c-.2,1.1,0,2,.4,2.5.5.6,1.3.8,2.2.6,2.5-.1,4.7-.2,6.8-.2s2,0,2.9,0,.4,0,.6,0c2.3,0,5,0,8.2.1.6,0,1.3,0,1.9,0,.8.1,1.3,0,1.7-.4.4-.4.6-1,.6-2s-.2-1.6-.6-1.9Z"/>
  <path class="cls-2" d="M173.5,21.2c0,.6-.2,1.3-.6,1.8-.4.5-.9.8-1.5.8s-1.1-.2-1.4-.8c-.3-.5-.6-1.1-.6-1.8s.2-1.4.6-1.9c.4-.5.8-.7,1.4-.7s1.1.2,1.5.7c.4.6.6,1.2.6,1.9h0Z"/>
  <path class="cls-2" d="M169.2,27c.2.8,0,1.5-.4,2-.4.6-1.1.8-2,.8s-1.6-.3-2-.8c-.5-.5-.6-1.2-.4-2,0-2.3,0-4.4.1-6.1,0-2,0-3.5-.1-4.4-.2-.8,0-1.6.4-2,.4-.6,1.1-.8,2-.8s1.5.2,2,.8c.5.5.6,1.2.4,2-.1,1.1-.2,2.7-.2,4.8s0,4,.2,5.8Z"/>
  <path class="cls-2" d="M105.8,41.9c.1.8,0,1.5-.4,2-.4.5-1.1.7-2,.7s-1.6-.2-2-.7c-.4-.5-.6-1.2-.4-2,0-2.1.1-4.4.1-7,0-1.4,0-4.9,0-10.4-.3.2-.6.4-1,.4-.3,0-.7-.1-1-.4,0,4.7,0,8,0,9.8s.1,4.7.3,7.6c.2.8,0,1.5-.4,2-.4.5-1.1.7-1.9.7s-1.6-.2-2-.7c-.5-.5-.6-1.2-.4-2,.1-5.1.1-9.5.1-13.3s0-8-.1-12.3c-.2-.8-.1-1.5.3-2,.4-.4,1.1-.7,2-.7s1.5.3,2,.7c.4.5.6,1.1.4,2l-.2,3.8c.3-.2.6-.4,1-.4s.6.1,1,.4v-2.1c0-.7,0-1.3-.1-1.7-.2-.8,0-1.6.4-2,.4-.5,1.1-.7,2-.7s1.7.2,2.1.7.5,1.2.4,2c-.2,4.4-.4,8.4-.4,12,0,3.1.1,7.6.4,13.6h0Z"/>
  <path class="cls-2" d="M162.2,25.4c-.4-.3-.7-.4-1.1-.3-.4.1-.7.2-1.1.3-.4,0-.9.1-1.3.1h-.2c-1.6,0-3,.1-4.4.1-1.7,0-3.1,0-4.2-.1-.3,0-.4-.4-.4-.9s.1-.9.4-.9c.8-.1,2.1-.2,3.9-.2s3.2,0,4.6.2h.1c.7,0,1.3-.3,1.8-.8.5-.6.7-1.3.7-2.3v-3c.1-1.2,0-2.1-.4-2.7-.5-.5-1.2-.7-2.1-.5h-.1c-1.5.1-3.5.1-5.9.1s-4.1,0-5.9-.1c-.4-.2-.8-.2-1.1.1-.3.3-.4.8-.4,1.6s.1,1.3.4,1.7c.2.3.6.3,1.1.1,1.3-.2,2.6-.3,4-.2,1.2,0,3,0,5.5.2.2,0,.4.3.4.9s-.1,1-.4,1c-2,0-3.7.1-5.1.1s-2.4,0-3.3-.1c-1-.3-1.7-.1-2.2.5-.5.6-.6,1.4-.4,2.6v3.3c-.2,1.1,0,2,.4,2.5.5.6,1.2.8,2.2.6,1.3-.1,3-.2,5.1-.3h8.4c.6,0,1.1-.3,1.4-.8.3-.5.4-1,.3-1.6,0-.6-.3-1-.6-1.3Z"/>
  <path class="cls-2" d="M170.2,37.5c0-.9,0-1.9.1-2.8.2-1.2,0-2-.4-2.6-.5-.6-1.3-.8-2.3-.5-3.8,0-6.9.1-9.3.1h-.4c-3.1,0-6,0-8.8-.1-1-.3-1.8-.1-2.2.5-.6.6-.7,1.4-.5,2.6.1.5.2,1.3.2,2.3s0,2-.2,3.5c-.2,1.1,0,2,.5,2.5.4.6,1.2.8,2.2.6,3.1,0,6.2,0,9.2,0h.2c3.1,0,6.1,0,9.1,0,1,.2,1.8,0,2.3-.6.5-.6.6-1.4.4-2.5,0-1.1-.1-2-.1-3ZM165.5,39.1c-.1.3-.3.5-.5.5-2.4.1-4.6.2-6.5.2h-.1c-2,0-4.2,0-6.5-.2-.2,0-.4-.1-.6-.4-.1-.3-.2-.8-.2-1.3s0-1,.2-1.3c.1-.4.3-.6.6-.5,1.5-.2,3.6-.3,6.1-.3h.5c2.2,0,4.4.1,6.6.3.2,0,.4,0,.5.5.1.3.2.8.2,1.3,0,.5-.1.9-.2,1.3Z"/>
  <path class="cls-2" d="M94.1,30.4c-1.3-3.3-2.3-5.8-2.7-7.4-.6-1.8-1.2-3.9-1.8-6.4,0-.6-.2-1.1-.6-1.4-.4-.4-.9-.5-1.5-.5s-1.1.1-1.5.5c-.4.4-.6.8-.6,1.4-.5,2.3-1,4.4-1.6,6.2-.4,1.4-1.4,4.4-3,9-.3.5-.4,1.1-.2,1.8.1.6.5,1.1,1.1,1.5.5.3,1,.4,1.5.3.6,0,1-.5,1.3-1.1.2-.8.6-2.3,1.3-4.5.6-2,1-3.4,1.1-4.2.2-.5.4-.7.6-.7s.5.2.7.7c0,.5.4,1.7,1,3.5.6,2.2,1.1,3.7,1.3,4.6.2.8.7,1.3,1.3,1.5.6.3,1.1.1,1.7-.2.6-.5,1-1.1,1.1-1.9.1-.8,0-1.8-.4-2.8h0Z"/>
  <path class="cls-2" d="M139.3,21.2c0,.6-.2,1.3-.6,1.8-.4.5-.9.8-1.5.8s-1.1-.2-1.5-.8c-.4-.5-.5-1.1-.5-1.8s.1-1.4.5-1.9c.4-.5.8-.7,1.5-.7s1.1.2,1.5.7c.4.6.6,1.2.6,1.9h0Z"/>
  <path class="cls-2" d="M134.9,42.1c.2.8,0,1.5-.4,2-.5.6-1.1.8-2,.8s-1.6-.2-2-.8c-.5-.6-.6-1.2-.4-2,.2-4.9.3-9.2.3-12.7s0-7-.3-13c-.1-.8,0-1.6.4-2,.4-.6,1.1-.8,2-.8s1.5.2,2,.8c.4.5.6,1.2.4,2-.2,4-.4,7.6-.4,10.9s.1,8,.4,14.8h0Z"/>
  <path class="cls-2" d="M126.7,32.9c0,.8-.1,1.4-.6,1.9-.5.5-1.1.7-1.9.7-.7,0-1.3-.3-1.8-.7-.5-.5-.7-1.1-.6-1.9.1-1.4.2-2.9.2-4.6s0-3.5,0-7.9c0-.5,0-.8-.1-1.1-.1-.3-.4-.4-.6-.5-2.2-.1-4-.2-5.5-.2-1.3,0-2.5.1-3.2.4-.6.1-1,0-1.3-.4-.4-.4-.5-1-.5-1.8s.1-1.3.5-1.8c.4-.4.8-.6,1.3-.4,1.6.1,3.4.1,5.4.1s3.5,0,6.3-.1c.9-.2,1.7,0,2.2.6.5.6.6,1.4.4,2.5-.1,2.5-.1,5.2-.1,8,0,2.9,0,5.3.1,7.1Z"/>
  <metadata>
    <sfw xmlns="http://ns.adobe.com/SaveForWeb/1.0/">
      <slices/>
      <sliceSourceBounds x="1" y="4.37" width="271" height="48.66" bottomLeftOrigin="true"/>
    </sfw>
  </metadata>
</svg>