<?xml version="1.0" encoding="UTF-8"?>
<svg id="Layer_1" data-name="Layer 1" xmlns="http://www.w3.org/2000/svg" width="272" height="58.2" version="1.1" viewBox="0 0 272 58.2">
  <defs>
    <style>
      .cls-1 {
        fill: #fff;
        stroke-width: 0px;
      }
    </style>
  </defs>
  <g>
    <path class="cls-1" d="M94.6,49.3h-26.6c-.6,0-1-.1-1.2-.4-.2-.2-.3-.6-.3-1.2v-10.5h5.8v7.2h22.3v4.9Z"/>
    <polygon class="cls-1" points="93.4 39.7 87.7 39.7 87.7 9.1 93.4 9.1 93.4 21 98.7 21 98.7 26.1 93.4 26.1 93.4 39.7"/>
    <path class="cls-1" d="M73.1,35.4c-3.4,0-6.1-.7-8-2.1-1.9-1.4-2.8-3.2-2.8-5.2s1-3.7,2.8-5.2c1.8-1.4,4.5-2.1,8-2.1s6.1.7,7.9,2.1c1.9,1.4,2.9,3.1,2.9,5.2s-1,3.8-2.9,5.2c-1.9,1.4-4.6,2.1-7.9,2.1ZM73.1,25.3c-1.6,0-2.8.3-3.7.8-.9.5-1.3,1.2-1.3,2.1s.4,1.7,1.3,2.1c.9.5,2.1.7,3.7.7s2.7-.2,3.6-.7c.9-.4,1.3-1.1,1.3-2.1s-.4-1.5-1.3-2c-.9-.5-2.2-.8-3.7-.8Z"/>
    <rect class="cls-1" x="61" y="15.3" width="24.2" height="4.5"/>
    <rect class="cls-1" x="66.4" y="8.9" width="13.2" height="4.5"/>
  </g>
  <g>
    <rect class="cls-1" x="127.7" y="9.1" width="5.7" height="40.9"/>
    <path class="cls-1" d="M120.2,40.2h-16.6c-.6,0-1-.1-1.2-.3-.2-.2-.3-.6-.3-1.2V13.1c0-.5.1-.9.3-1.2.2-.3.6-.4,1.2-.4h16.5c1,0,1.6.6,1.6,1.6v25.5c0,.6-.1,1-.4,1.2-.3.2-.6.4-1.2.4ZM107.7,35.3h8.3v-18.8h-8.3v18.8Z"/>
  </g>
  <g>
    <path class="cls-1" d="M172.6,49.3h-26.7c-.6,0-1-.1-1.2-.4-.2-.2-.3-.6-.3-1.2v-11.9h5.9v8.6h22.4v4.9Z"/>
    <polygon class="cls-1" points="171.3 39.4 165.6 39.4 165.6 9.1 171.3 9.1 171.3 20.7 176.6 20.7 176.6 25.6 171.3 25.6 171.3 39.4"/>
    <path class="cls-1" d="M141,33.6l-4.4-3.9.4-.2c1.4-.7,2.7-1.4,4-2.4,1.2-.9,2.3-2,3.2-3.1.9-1.2,1.7-2.4,2.2-3.8.5-1.4.8-2.8.8-4.4v-5.8h6v5.7c0,1.3.2,2.7.7,3.9.5,1.2,1.2,2.4,2.1,3.5.9,1.1,1.9,2.1,3.1,2.9,1.2.9,2.4,1.5,3.8,2l.4.2-3.6,4.3h-.2c-1-.6-1.9-1.2-2.9-1.8-1-.6-1.8-1.3-2.7-2-.8-.7-1.6-1.4-2.2-2.2-.5-.6-.9-1.2-1.3-1.8-.3.7-.7,1.4-1.3,2.1-.6.9-1.4,1.7-2.2,2.5-.8.8-1.8,1.6-2.7,2.3-1,.7-1.9,1.3-2.9,1.9h-.2Z"/>
  </g>
  <g>
    <path class="cls-1" d="M210.4,49.7h-24.5c-.6,0-1-.1-1.2-.4-.2-.2-.4-.6-.4-1.2v-15.9h5.6v4.3h16.3v-4.3h5.6v15.9c0,.6-.1,1-.4,1.2-.3.2-.6.4-1.2.4ZM190,44.9h16.3v-3.8h-16.3v3.8Z"/>
    <path class="cls-1" d="M212,31.2h-5.7v-8.8h-6.3c-.3,1.1-.7,2.1-1.2,3-.6,1-1.4,1.8-2.3,2.5-.9.7-2,1.3-3.1,1.7-1.2.4-2.5.6-3.8.6s-3.1-.3-4.4-.8c-1.3-.5-2.5-1.3-3.4-2.2-1-.9-1.7-2-2.2-3.3-.5-1.3-.8-2.6-.8-4.1s.3-2.8.8-4c.5-1.2,1.3-2.3,2.2-3.3.9-.9,2.1-1.7,3.4-2.2,1.3-.6,2.8-.8,4.4-.8,2.9,0,5.3.8,7.1,2.4,1.8,1.5,3,3.4,3.5,5.6h6.2v-8.4h5.7v22.1ZM189.5,14.3c-1.7,0-2.9.5-3.7,1.6-.9,1-1.3,2.4-1.3,3.9s.1,1.5.3,2.1c.2.7.6,1.2,1,1.7.4.5.9.9,1.6,1.2.6.3,1.3.4,2.2.4s1.6-.1,2.1-.4c1-.5,1.7-1.2,2.2-2,.5-.9.8-1.9.8-3s-.1-1.5-.4-2.1c-.2-.6-.6-1.2-1-1.7-.4-.5-1-.9-1.6-1.2-.6-.3-1.4-.4-2.2-.4Z"/>
  </g>
  <metadata>
    <sfw xmlns="http://ns.adobe.com/SaveForWeb/1.0/">
      <slices/>
      <sliceSourceBounds x="61" y="8.14" width="151" height="41.11" bottomLeftOrigin="true"/>
    </sfw>
  </metadata>
</svg>