<?xml version="1.0" encoding="UTF-8"?>
<svg id="Layer_1" data-name="Layer 1" xmlns="http://www.w3.org/2000/svg" width="272" height="58.2" version="1.1" viewBox="0 0 272 58.2">
  <defs>
    <style>
      .cls-1 {
        fill: #fff;
        stroke-width: 0px;
      }
    </style>
  </defs>
  <path class="cls-1" d="M104.4,10.2c-2.5,0-4.5,1.7-4.5,3.9s0,0,0,0v19.5c0,.1,0,.3,0,.4,0,3.8-3.6,5-6.8,5h-8c-3.2,0-6.8-1.2-6.8-5s0-.3,0-.4V14.2s0,0,0,0c0-2.2-2-3.9-4.5-3.9s-4.5,1.7-4.5,3.9h0v21.9h0c.3,7,6.6,11.1,15.2,11.1h9.3c8.5,0,14.8-4.1,15.2-11.1h0V14.2s0,0,0,0c0-2.2-2-3.9-4.5-3.9Z"/>
  <path class="cls-1" d="M181.8,32.2v-7.1h0v-3.7h0c-.3-7-6.6-11.1-15.2-11.1h-9.3c-8.5,0-14.8,4-15.2,11.1h0v3.6h0v7.3h0v3.8h0c.3,7,6.6,11.1,15.2,11.1h9.3c8.5,0,14.8-4.1,15.2-11.1h0v-3.6h0v-.2ZM172.8,34.1c0,3.8-3.6,5-6.8,5h-8c-3.2,0-6.8-1.2-6.8-5s0-.3,0-.4v-1.3h0v-7.3h0v-1.4c0-.1,0-.3,0-.4,0-3.8,3.6-5,6.8-5h8c3.2,0,6.8,1.2,6.8,5s0,.3,0,.4v1.3s0,0,0,0,0,0,0,0v7.2s0,0,0,0,0,0,0,0v1.3c0,.1,0,.3,0,.4Z"/>
  <path class="cls-1" d="M136.4,11h-6.8c-8.5,0-14.8,4-15.2,11.1h0v22s0,0,0,0c0,2.1,2,3.9,4.5,3.9s4.5-1.7,4.5-3.9,0,0,0,0v-19.7c0-.1,0-.3,0-.4,0-3.8,3.6-5,6.8-5h6.1s0,0,0,0c1.9,0,3.5-1.8,3.5-4s-1.5-4-3.5-4Z"/>
  <path class="cls-1" d="M243,43.4v-22.1h0c-.3-7-6.6-11.1-15.2-11.1h-2.2c-4.3,0-8,1-10.7,2.9-2.7-1.9-6.4-2.9-10.7-2.9h-2.2c-8.5,0-14.8,4-15.2,11.1h0v22.1h0c0,2.2,2,4,4.5,4s4.5-1.7,4.5-3.9,0,0,0,0v-19.8c0-.1,0-.3,0-.4,0-3.8,3.6-5,6.8-5h.9c3.2,0,6.8,1.2,6.8,5s0,.3,0,.4v19.8s0,0,0,0c0,2.2,2,3.9,4.5,3.9s4.5-1.7,4.5-3.9,0,0,0,0v-18.4h0s0-1.4,0-1.4c0-.1,0-.3,0-.4,0-3.8,3.7-5,6.8-5h.9c3.2,0,6.8,1.2,6.8,5s0,.3,0,.4v19.8h0c0,2.2,2,4,4.5,4s4.5-1.7,4.5-3.9h0Z"/>
  <path class="cls-1" d="M63.6,44V14.2s0,0,0,0c0-2.2-2-3.9-4.5-3.9s-4.5,1.7-4.5,3.9h0v10.2c-1.6-.4-5.3-1.2-11.2-1.2s-8.7.6-10.6,1.1v-10s0,0,0,0c0-2.2-2-3.9-4.5-3.9s-4.5,1.7-4.5,3.9h0v29.9h0c0,2.2,2,4,4.5,4s4.5-1.7,4.5-3.9,0,0,0,0h0v-11.5c1.9-.5,5.6-1.1,10.9-1.1s9.4.8,10.9,1.2v11.4h0c0,2.2,2,4,4.5,4s4.5-1.7,4.5-3.9,0,0,0,0h0Z"/>
  <metadata>
    <sfw xmlns="http://ns.adobe.com/SaveForWeb/1.0/">
      <slices/>
      <sliceSourceBounds x="23.71" y="10.2" width="219.29" height="37.8" bottomLeftOrigin="true"/>
    </sfw>
  </metadata>
</svg>