<?xml version="1.0" encoding="UTF-8"?>
<svg id="Layer_1" data-name="Layer 1" xmlns="http://www.w3.org/2000/svg" width="272" height="58.2" version="1.1" viewBox="0 0 272 58.2">
  <defs>
    <style>
      .cls-1 {
        fill: #fff;
        stroke-width: 0px;
      }
    </style>
  </defs>
  <path class="cls-1" d="M39.2,48.7c-.2.3-.4.5-.6.5-.2,0-.5,0-.8-.2-1.5-.9-2.9-2.1-4.2-3.4-1.3-1.3-2.5-2.9-3.4-4.5-1-1.7-1.7-3.5-2.3-5.5-.6-2-.8-4-.8-6.2s.3-4.3.8-6.2c.6-2,1.3-3.8,2.3-5.5,1-1.7,2.1-3.2,3.4-4.5,1.3-1.3,2.7-2.5,4.2-3.4.3-.2.6-.2.8-.2.2,0,.4.2.6.5.3.5.2.9-.3,1.3-1.1.9-2.1,2-3,3.3-.9,1.3-1.7,2.8-2.3,4.4-.7,1.6-1.2,3.3-1.5,5.1-.4,1.8-.5,3.6-.5,5.4s.2,3.6.5,5.4c.4,1.8.9,3.5,1.5,5.1.7,1.6,1.4,3,2.3,4.4.9,1.3,1.9,2.4,3,3.3.4.4.5.8.3,1.3Z"/>
  <path class="cls-1" d="M61,31.9v7.4c0,3.2-.2,5.5-.7,7.1-.5,1.6-1.2,2.4-2.1,2.5-.6,0-1.1-.5-1.4-1.8-.3-1.3-.5-3.1-.5-5.6v-9.5c-1.3,0-2.4,0-3.5.1-1.1,0-2,0-2.8.1-.3,0-.5,0-.7.1-.2,0-.4.1-.6.2-.2,0-.3.1-.5.2-.2,0-.4.1-.5.2-.4.2-.9.3-1.4.4-.5,0-1.1,0-1.7-.2-.5-.2-1.2-.4-1.9-.7-.7-.3-1.5-.7-2.2-1.1-1-.6-1.4-1.1-1.2-1.6.2-.5.8-.6,1.9-.5.9.1,2,.2,3.4.3,1.4,0,3,.1,4.9.1s3.3,0,4.8,0c1.5,0,2.9,0,4.2,0s2.5,0,3.6,0c1.1,0,2,0,2.7-.1.8,0,1.5,0,2-.1.5,0,.9-.1,1.2-.2.1,0,.3,0,.4-.2.2,0,.3-.2.5-.2.2,0,.4-.1.6-.2.2,0,.4,0,.5-.1.9,0,1.8,0,2.7,0,.9,0,1.8.1,2.5.3.6.1,1,.3,1.3.6.3.3.5.6.4,1,0,.5-.3.9-.7,1.2-.4.3-.9.4-1.6.4s-1,0-1.6,0c-.6,0-1.3,0-2,0-.7,0-1.4,0-2.2,0-.8,0-1.6,0-2.4,0s-1.7,0-2.6,0c-.9,0-1.9,0-2.9,0ZM60.6,19.6c.5.1,1.1.2,1.7.4.6.1,1.2.2,1.7.4.6.1,1,.2,1.5.3.4,0,.7.1.9.1.3,0,.5,0,.6,0s.3,0,.5,0c.1,0,.3,0,.4,0,.1,0,.3,0,.4,0,0,0,.1,0,.2,0s.2,0,.2,0c0,0,.2,0,.3,0,0,0,.2,0,.3,0,.7.3,1.3.6,2,.9.6.3,1.1.6,1.5.8.4.3.6.7.6,1,0,.4,0,.7-.2.9-.2.3-.6.5-1.1.5-.5,0-1.1,0-1.8-.3-.5-.1-1.2-.4-2.2-.6-1-.3-2.1-.6-3.2-1-1.2-.3-2.4-.7-3.6-1-1.2-.3-2.3-.7-3.2-.9-2.1,1-4.2,2-6.5,2.8-2.2.9-4.5,1.5-6.7,2-.7.2-1.2.2-1.6.2-.4,0-.7-.2-.9-.3-.2-.2-.2-.4-.2-.6,0-.2.2-.4.5-.5,1.9-.7,3.8-1.4,5.7-2.3,1.9-.8,3.6-1.7,5.3-2.7,1.6-1,3.2-1.9,4.6-2.9,1.4-1,2.6-2,3.7-2.9-.7,0-1.5,0-2.3.1-.8,0-1.6,0-2.4.1-.7,0-1.4,0-2.1.1-.6,0-1.1,0-1.4.1-.2,0-.5.1-.8.2-.3,0-.6.1-.8.2-.3,0-.5.2-.7.2-.2,0-.3,0-.4,0-.2.1-.5.2-.7.3-.3,0-.6,0-1-.1-.4,0-.9-.3-1.5-.5-.6-.3-1.2-.6-1.8-1-.9-.6-1.2-1-1-1.4.2-.4.8-.5,1.6-.5.1,0,.4,0,.7,0,.3,0,.7,0,1.1,0,.4,0,.8,0,1.3.1.5,0,.9,0,1.4,0h2.2c.9,0,1.7,0,2.6,0,.9,0,1.7,0,2.6-.1.8,0,1.6-.1,2.2-.2.3,0,.6,0,.9,0,.3,0,.5-.1.7-.2,0,0,.2-.1.4-.2.2,0,.4,0,.6-.1.7,0,1.5,0,2.3,0,.8,0,1.5,0,2,.1.6,0,.9.3,1,.7.1.4,0,.8-.1,1.2,0,.1-.2.3-.3.4,0,.1-.2.2-.3.4-.1.1-.3.3-.4.4-.2.1-.3.3-.5.5-.8.8-1.8,1.6-2.9,2.4-1.1.8-2.3,1.5-3.6,2.3Z"/>
  <path class="cls-1" d="M82.4,45.5c-1.3,1.4-2.7,2.5-4.2,3.4-.3.2-.6.2-.8.2-.2,0-.4-.2-.6-.5-.3-.5-.2-.9.2-1.3,1.1-.9,2.1-2,3-3.3.9-1.3,1.7-2.8,2.4-4.4.6-1.6,1.2-3.3,1.5-5.1.4-1.8.5-3.6.5-5.4s-.2-3.6-.5-5.4c-.4-1.8-.9-3.5-1.5-5.1-.7-1.6-1.4-3.1-2.4-4.4-.9-1.3-1.9-2.4-3-3.3-.4-.4-.5-.8-.2-1.3.2-.3.4-.5.6-.5.2,0,.5,0,.8.2,1.5.9,2.9,2.1,4.2,3.4,1.3,1.3,2.5,2.9,3.4,4.5,1,1.7,1.7,3.5,2.3,5.5.6,2,.8,4,.8,6.2s-.3,4.3-.8,6.2c-.6,2-1.3,3.8-2.3,5.5-1,1.7-2.1,3.2-3.4,4.5Z"/>
  <path class="cls-1" d="M102.8,24.9c.5.7,1.1,1.3,1.6,1.9.5.6,1.1,1.1,1.6,1.5.2.2.3.3.5.4.1,0,.3.1.4.2.1,0,.2,0,.3.1h.3c.2.2.3.3.5.4.1.1.3.3.4.5.3.6.7,1.2,1,2,.3.7.6,1.3.7,1.8.1.6.1,1,0,1.5-.1.4-.3.7-.6.8-.3.2-.7.2-1.1,0-.4-.2-.8-.6-1.3-1.3-.3-.4-.7-.9-1.2-1.6-.5-.7-1-1.3-1.5-2-.5-.7-1.1-1.4-1.6-2-.5-.6-1-1.2-1.4-1.5-1.2,1.5-2.4,3-3.7,4.4-1.3,1.4-2.7,2.7-4.1,3.8-.5.4-.9.7-1.3.8-.4.1-.7.1-.8,0-.2,0-.3-.3-.3-.5s.1-.5.4-.8c1.1-1.1,2.1-2.3,3.1-3.7,1-1.4,1.9-2.7,2.6-4.2.8-1.4,1.5-2.9,2.1-4.4.6-1.5,1-2.9,1.3-4.3.1-.7,0-1.3,0-1.7-.2-.4-.7-.8-1.5-1-.7-.3-1.1-.7-.9-1.1.1-.5.6-.7,1.3-.6.9,0,1.8.3,2.9.5,1.1.3,2,.6,2.7.9.4.2.6.4.8.6.2.2.2.4.2.6s0,.5-.1.7c0,.3-.2.6-.3.9-.4,1.1-.9,2.1-1.3,3.2-.5,1.1-1,2.1-1.6,3.1ZM113.1,25.7c-.5,0-.9,0-1.3.2-.4.1-.7.2-1,.3-.2.1-.5.2-.8.2-.3,0-.6,0-1-.2-.3,0-.8-.3-1.3-.6-.5-.3-1.1-.7-1.6-1.1-.5-.4-.7-.8-.5-1,.2-.3.6-.4,1.2-.4.2,0,.5,0,.9,0,.4,0,.8,0,1.2,0,.4,0,.9,0,1.4,0h2.7v-6.6c0-.6,0-1.1-.2-1.6-.1-.5-.4-.8-.7-1.1-.4-.2-.8-.5-1.3-.6-.5-.2-1-.3-1.5-.4-.3,0-.4-.2-.5-.4,0-.2,0-.4,0-.6,0-.2.2-.4.4-.6.2-.2.4-.2.7-.2,1,0,2.2,0,3.5.3,1.3.2,2.5.4,3.5.6.2,0,.4.3.5.5,0,.3.1.5,0,.8-.2.4-.3.8-.3,1.3,0,.4,0,.9,0,1.3v21.6c0,3.2-.2,5.7-.6,7.4-.4,1.7-1,2.6-1.8,2.6-.6,0-1-.6-1.3-1.9-.3-1.3-.4-3.3-.4-5.9v-14ZM124.7,14v25c0,3.2-.2,5.7-.6,7.4-.4,1.7-1.1,2.6-1.9,2.6-.5,0-.9-.6-1.2-1.9-.3-1.3-.5-3.3-.5-5.9V14.8c0-.6,0-1.1-.2-1.6-.1-.5-.3-.8-.7-1.1-.4-.3-.8-.5-1.4-.7-.5-.2-1.1-.3-1.7-.4-.2,0-.4-.1-.5-.3,0-.2,0-.4,0-.6,0-.2.2-.4.4-.6.2-.2.4-.3.7-.3,1,0,2.3,0,3.7.3,1.4.2,2.6.4,3.7.6.2,0,.4.3.5.5,0,.3,0,.6,0,.8-.1.4-.2.8-.3,1.3,0,.4,0,.9,0,1.3Z"/>
  <path class="cls-1" d="M160.5,14.1v9.4c.6,0,1.3,0,1.9-.2.6,0,1.1-.3,1.5-.6.1-.2.6-.3,1.4-.4.8,0,1.5,0,2.1.1.7.2,1.2.4,1.5.8.3.4.4.7.4,1.1,0,.4-.3.7-.7,1-.4.3-1,.4-1.7.4h-6.4v.9c0,2.7-.3,4.7-.8,5.9-.6,1.2-1.2,1.8-1.8,1.8-.5,0-.9-.3-1.2-1.1-.3-.8-.5-2.1-.6-4-1.1.2-2.4.5-3.9.7-1.5.3-3,.5-4.6.7-1.6.2-3,.4-4.4.7-1.4.2-2.6.4-3.5.4-.2,0-.5,0-.7.1-.2,0-.4.1-.6.2l-.6.3c-.2,0-.4.2-.5.3-.3.1-.7.2-1,.3-.3,0-.7,0-1.2-.2-.7-.2-1.4-.5-2.2-.8-.8-.4-1.5-.8-2.2-1.3-.7-.5-1.1-.9-1.1-1.4,0-.5.5-.7,1.5-.6.3,0,.7,0,1.2.1.5,0,1,0,1.5.1.5,0,1,0,1.5,0,.5,0,1,0,1.4,0,.4,0,.8,0,1.3,0,.5,0,.9,0,1.4,0v-3.8c0-.5,0-.9-.2-1.2-.1-.3-.3-.6-.5-.8-.2-.2-.5-.3-.9-.5-.3-.1-.7-.2-1.1-.3-.2,0-.3-.1-.4-.3,0-.2-.1-.4,0-.6,0-.2,0-.4.2-.5.1-.2.4-.3.7-.3.9,0,2,0,3.3,0,1.3,0,2.4.3,3.2.5.2,0,.3.2.3.5,0,.2,0,.5,0,.8,0,.3-.1.6-.2,1,0,.3,0,.7,0,1v4.3c2.1-.2,4.2-.4,6.3-.6,2.1-.2,4.2-.5,6.3-.8v-12.4c0-.6,0-1.1-.3-1.6-.2-.4-.4-.8-.7-1-.4-.3-.9-.6-1.5-.8-.6-.2-1.2-.4-1.8-.5-.2,0-.4-.1-.4-.3,0-.2,0-.4,0-.6,0-.2.2-.4.4-.6.2-.2.4-.3.7-.3.5,0,1.1,0,1.8.1.7,0,1.4.1,2.2.2.7.1,1.5.2,2.2.4.7.1,1.3.2,1.8.4.3,0,.4.3.5.5,0,.3,0,.6,0,.8-.1.4-.2.8-.3,1.3,0,.4-.1.9-.1,1.3ZM152.4,16.9c0,.3-.1.7-.2,1,0,.4-.2.8-.2,1.3,0,.5-.2.9-.3,1.4-.1.5-.2.9-.4,1.4-.4,1.3-.9,2.3-1.4,3.1-.5.8-1.2,1.1-2,.9-.3,0-.5-.2-.7-.4-.1-.2-.2-.5-.2-.8,0-.3,0-.7,0-1.2,0-.5.2-1,.3-1.7.1-.9.2-1.8.3-2.8.1-1,.2-1.9.2-2.7-.8,0-1.9,0-3.3.2-1.4.1-2.6.2-3.7.3-.2,0-.4,0-.6.1-.2,0-.4.1-.5.2-.2,0-.3.2-.5.2-.2,0-.3.1-.5.2-.2,0-.5.1-.8.2s-.6,0-1-.2c-.5-.2-1.2-.4-2.1-.8-.8-.4-1.6-.8-2.1-1.2-.5-.3-.7-.7-.7-1.1,0-.4.6-.6,1.5-.5.2,0,.6,0,1,.1.4,0,.9,0,1.3.1.5,0,.9,0,1.4.1.5,0,.9,0,1.4,0,.9,0,1.7,0,2.6,0,.9,0,1.7,0,2.5-.1.8,0,1.5,0,2.1-.1.6,0,1-.1,1.3-.2,0,0,.2,0,.3,0,0,0,.2,0,.3-.1,0,0,.2,0,.3-.1h.3c.6-.1,1.2-.1,2-.1.7,0,1.3,0,1.7,0,.6,0,.9.3,1,.7.1.3.1.7,0,1.1l-.2.4c0,.1-.1.3-.2.5,0,.1-.1.3-.2.4,0,.2,0,.3-.1.4ZM160.3,41.1c0,2.2-.8,4-2.4,5.4-1.6,1.3-3.7,2-6.2,2s-2.4-.2-3.5-.5c-1.1-.4-2-.9-2.8-1.5-.8-.7-1.4-1.5-1.8-2.4-.4-.9-.7-1.9-.7-3s.2-2.1.7-3c.4-.9,1-1.7,1.8-2.3.8-.7,1.7-1.2,2.8-1.5,1.1-.4,2.2-.5,3.5-.5,2.6,0,4.6.7,6.2,2.1,1.6,1.4,2.4,3.2,2.4,5.3ZM151.7,45.6c1.3,0,2.3-.5,3-1.4.8-.9,1.2-2.1,1.2-3.4s-.4-2.4-1.1-3.3c-.8-1-1.8-1.4-3.1-1.4s-2.2.4-3,1.3c-.8.9-1.1,2-1.1,3.4s.4,2.5,1.1,3.4c.8.9,1.8,1.4,3,1.4Z"/>
  <path class="cls-1" d="M185.2,26.8c-.2.2-.4.3-.6.5-.3.2-.6.3-1,.3-.5,0-1.3,0-2.3.1-1.1,0-2.1,0-3.1,0v4.6c0,.6.1,1,.4,1.1.3.2.6.2,1,.2,1.4,0,2.8-.3,4.3-.6,1.5-.3,2.8-.6,3.9-1,.3-.1.5,0,.6,0,.1.1.2.3.2.6,0,.3-.1.5-.3.8-.2.3-.4.5-.7.7-1.3.7-2.9,1.4-4.8,2-1.8.6-3.8,1-6,1.2-1.1.1-1.9,0-2.4-.5-.5-.5-.8-1.3-.8-2.6v-13.3c0-.8-.2-1.4-.7-1.7-.5-.3-1.2-.6-2.2-.7-.3,0-.4-.1-.5-.3,0-.2-.1-.4-.1-.6,0-.2.2-.4.3-.6.2-.2.4-.3.7-.3.9,0,1.9,0,3.2,0,1.2,0,2.4.2,3.5.4.4,0,.9,0,1.6,0,.7,0,1.3-.1,1.8-.4.2,0,.3-.2.5-.3.2-.1.4-.2.6-.3.6,0,1.1-.1,1.7-.1s1.2,0,1.8.1c.4,0,.8.3,1,.6.2.3.4.7.4,1s-.1.7-.4,1c-.3.3-.7.5-1.3.5-.4,0-1,0-1.7,0-.7,0-1.4,0-2.2,0-.8,0-1.5,0-2.2,0h-1.5v5.8c.3,0,.6,0,.8,0,.2,0,.4-.1.6-.3,0,0,.2,0,.2-.1,0,0,.2-.1.3-.2,0,0,.2-.1.3-.1,0,0,.2,0,.2-.1.5,0,1-.1,1.6,0,.6,0,1.1,0,1.6,0,0,0,.1,0,.2,0,0,0,.1,0,.2,0,0,0,.1,0,.2,0,0,0,.1,0,.2,0s.2,0,.2,0c0,0,.1,0,.2,0h.5c.4,0,1.1,0,2,0,.9,0,1.9,0,2.9,0v-7.9c0-.6,0-1.1-.2-1.6-.1-.5-.4-.8-.7-1.1-.3-.3-.7-.5-1.2-.6-.5-.2-1-.3-1.5-.4-.2,0-.4-.2-.5-.4,0-.2,0-.4,0-.6,0-.2.2-.4.4-.6.2-.2.4-.3.7-.3,1,0,2.2,0,3.6.3,1.3.2,2.5.4,3.5.6.2,0,.4.3.5.5,0,.3.1.5,0,.8-.1.4-.2.8-.2,1.2,0,.4,0,.8,0,1.2v21.6c0,3.2-.1,5.7-.6,7.4-.4,1.7-1.1,2.5-1.9,2.6-.6,0-1-.6-1.3-1.9-.3-1.3-.4-3.3-.4-5.8v-12.3c-.2,0-.4,0-.5,0-.1,0-.3,0-.4.1-.2.1-.5.2-.8.2-.3,0-.6,0-1-.1-.1,0-.3,0-.5-.1-.2,0-.3-.2-.5-.2-.2,0-.5-.2-.7-.3-.2-.1-.5-.2-.7-.3ZM202.1,14v25c0,3.2-.2,5.7-.7,7.4-.4,1.7-1.1,2.6-1.9,2.6-.6,0-1-.6-1.3-1.9-.3-1.3-.4-3.3-.4-5.9V14.8c0-.6,0-1.1-.2-1.6-.1-.5-.4-.8-.7-1.1-.4-.3-.8-.5-1.3-.7-.5-.2-1.1-.3-1.7-.4-.2,0-.4-.1-.4-.3,0-.2,0-.4,0-.6,0-.2.2-.4.4-.6.2-.2.4-.3.7-.3,1,0,2.3,0,3.7.3,1.4.2,2.7.4,3.7.6.2,0,.4.3.5.5,0,.3,0,.6,0,.8-.1.4-.2.8-.3,1.3,0,.4,0,.9,0,1.3Z"/>
  <path class="cls-1" d="M231.4,39.4c0-.4,0-.8.1-1.3,0-.5.2-1.1.4-1.7.1-.6.3-1.3.5-2.1.2-.8.4-1.6.5-2.5,0-.5.2-1,.3-1.6,0-.6.2-1.2.3-1.8-.9.1-2,.2-3.2.4-1.2.1-2.3.2-3.4.4-1.1.1-2.1.3-3.1.4-.9.1-1.6.2-2.1.2-.3,0-.6.1-1,.2-.3,0-.6.2-.8.4-.4.2-.9.4-1.4.5-.5,0-1.1,0-1.9-.2-.5-.1-1.1-.3-1.7-.6-.6-.3-1.2-.6-1.8-.9-.8-.4-1.2-.9-1.1-1.4,0-.5.6-.7,1.8-.6.7,0,1.6,0,2.9,0,1.3,0,2.6,0,4-.1,1,0,2.1-.1,3.2-.2,1.2,0,2.3-.2,3.4-.3,1.1-.1,2.2-.2,3.3-.3,1.1,0,2.1-.2,3-.3.2-1.6.4-3.1.5-4.6.1-1.5.2-2.8.3-3.9-.7,0-1.6,0-2.6.1-1,0-2.1,0-3.2.1-1.1,0-2.1.1-3.2.2s-1.9.1-2.6.2c-.2,0-.4,0-.6.1-.2,0-.4.1-.6.2-.2,0-.4.2-.6.2-.2,0-.4.1-.6.2-.4.1-.7.2-1.1.2-.4,0-.8,0-1.4-.2-.5-.1-1-.4-1.7-.7-.6-.3-1.3-.7-2.1-1.3-.7-.5-1-1-.9-1.4.1-.4.8-.6,1.8-.4.6,0,1.5.2,2.8.2,1.3,0,2.6.1,3.9.1,1.9,0,3.8,0,5.7,0,1.9,0,3.4-.1,4.7-.2.4,0,.7,0,1-.1.3,0,.5,0,.6-.1,0,0,.2,0,.2,0,0,0,.2,0,.3-.1,0,0,.2,0,.3-.1.1,0,.2,0,.4,0,.7,0,1.3,0,2,0,.7,0,1.3,0,1.9.1.6,0,.9.3,1,.7,0,.4,0,.7,0,1.1,0,.1,0,.3-.1.4,0,.1,0,.3-.1.4,0,.1-.1.3-.1.4,0,.1,0,.3,0,.4-.1,1-.3,2.1-.5,3.3-.2,1.2-.4,2.4-.6,3.7-.2,1.2-.5,2.5-.7,3.7-.3,1.2-.5,2.4-.8,3.4-.2.7-.4,1.4-.6,2-.2.7-.4,1.3-.6,2-.2.6-.5,1.2-.7,1.8-.3.6-.6,1.1-.9,1.5.5,0,.9,0,1.1,0,.3,0,.5,0,.6-.1.2-.1.6-.2,1-.4.4-.2.8-.3,1.1-.3.9,0,1.8,0,2.7,0,.9,0,1.8.1,2.5.3.6.1,1,.3,1.3.6.3.3.5.6.5,1,0,.5-.3.9-.7,1.2-.4.3-.9.4-1.6.4s-1,0-1.6,0c-.6,0-1.3,0-2,0-.7,0-1.4,0-2.2,0s-1.6,0-2.4,0c-1.3,0-2.7,0-4.2,0-1.5,0-2.9,0-4.3,0-1.4,0-2.8,0-4,.1-1.3,0-2.4.1-3.3.2-.3,0-.5,0-.7.1-.2,0-.4.1-.6.2-.2,0-.4.1-.6.2-.2,0-.4.1-.5.2-.4.2-.9.3-1.4.4-.5,0-1.1,0-1.8-.2-.5-.2-1.2-.4-1.9-.7-.7-.3-1.5-.7-2.2-1.1-1-.6-1.4-1.1-1.2-1.6.2-.5.8-.6,1.9-.5.9.1,2,.3,3.4.3,1.4,0,3,.1,4.9.1s2.8,0,4,0c1.3,0,2.5,0,3.6,0s2.1,0,3.1,0c1,0,1.8,0,2.6,0Z"/>
  <metadata>
    <sfw xmlns="http://ns.adobe.com/SaveForWeb/1.0/">
      <slices/>
      <sliceSourceBounds x="27" y="9.07" width="218" height="40.07" bottomLeftOrigin="true"/>
    </sfw>
  </metadata>
</svg>