<?xml version="1.0" encoding="UTF-8"?>
<svg id="Layer_1" data-name="Layer 1" xmlns="http://www.w3.org/2000/svg" width="272" height="58.2" version="1.1" viewBox="0 0 272 58.2">
  <defs>
    <style>
      .cls-1 {
        fill: #fff;
        stroke-width: 0px;
      }
    </style>
  </defs>
  <polygon class="cls-1" points="189.8 22.2 196.3 15.5 202.7 22.2 206.7 18.3 199.1 10.7 199.1 2.6 193.5 2.6 193.5 10.7 185.8 18.3 189.8 22.2"/>
  <polygon class="cls-1" points="61.8 26.4 65.7 30.3 72.2 23.6 78.7 30.3 82.6 26.4 75 18.7 75 10.7 69.4 10.7 69.4 18.7 61.8 26.4"/>
  <polygon class="cls-1" points="122.9 26.4 115.3 18.7 115.3 16.9 122.3 16.9 122.3 11.3 102.6 11.3 102.6 16.9 109.6 16.9 109.6 18.7 102 26.4 106 30.3 112.5 23.6 118.9 30.3 122.9 26.4"/>
  <polygon class="cls-1" points="182.1 30.3 193.5 30.3 193.5 33.2 187.8 33.2 187.8 38.9 199.1 38.9 199.1 41.6 187.8 41.6 187.8 55.6 204.7 55.6 204.7 50 193.5 50 193.5 47.2 204.7 47.2 204.7 33.2 199.1 33.2 199.1 30.3 210.2 30.3 210.2 24.7 182.1 24.7 182.1 30.3"/>
  <polygon class="cls-1" points="126.7 33.2 121 33.2 121 48.3 137.9 48.3 137.9 42.7 126.7 42.7 126.7 33.2"/>
  <polygon class="cls-1" points="87.4 30.3 93 30.3 93 16.9 97.7 16.9 97.7 11.3 93 11.3 93 2.6 87.4 2.6 87.4 30.3"/>
  <rect class="cls-1" x="128.1" y="2.6" width="5.6" height="27.7"/>
  <polygon class="cls-1" points="158.6 16.9 164.2 16.9 164.2 19.9 158.6 19.9 158.6 25.5 164.2 25.5 164.2 30.3 169.8 30.3 169.8 3.4 164.2 3.4 164.2 11.3 158.6 11.3 158.6 16.9"/>
  <rect class="cls-1" x="172.7" y="3.4" width="5.6" height="26.9"/>
  <path class="cls-1" d="M147.4,24c-2.2,0-4-1.8-4-4s1.8-4,4-4,4,1.8,4,4-1.8,4-4,4M147.4,10.3c-5.3,0-9.7,4.3-9.7,9.7s4.3,9.6,9.7,9.6,9.7-4.3,9.7-9.6-4.3-9.7-9.7-9.7"/>
  <metadata>
    <sfw xmlns="http://ns.adobe.com/SaveForWeb/1.0/">
      <slices/>
      <sliceSourceBounds x="61.77" y="2.6" width="148.46" height="53" bottomLeftOrigin="true"/>
    </sfw>
  </metadata>
</svg>