<?xml version="1.0" encoding="UTF-8"?>
<svg id="Layer_1" data-name="Layer 1" xmlns="http://www.w3.org/2000/svg" width="272" height="58.2" version="1.1" viewBox="0 0 272 58.2">
  <defs>
    <style>
      .cls-1 {
        fill: #fff;
        stroke-width: 0px;
      }
    </style>
  </defs>
  <g>
    <path class="cls-1" d="M125.4,47v-24.4c0-.8.4-1.1,1.3-1.1.8,0,1.2.4,1.3,1.1v24.4c0,.2,0,.4-.2.6-.2.4-.6.5-1.1.6-.8,0-1.2-.4-1.3-1.1Z"/>
    <path class="cls-1" d="M145,40.1v7c0,.7-.4,1.1-1.2,1.2-.9,0-1.4-.4-1.5-1.2v-7h-10.5c-.6,0-1-.4-1-1.2,0-.8.3-1.3,1-1.4h23.4c.6,0,1,.4,1,1.2,0,.8-.3,1.3-1,1.4h-10.1ZM143.6,28.8c-.3.4-.5.6-.6.8-1.4,1.7-3.6,3-6.4,4.1-1.6.6-2.9.9-3.7.9-.8,0-1.2-.4-1.2-1.1,0-.6.6-1,1.8-1.4,1.8-.5,3.6-1.2,5.1-2.1,2.1-1.3,3.3-2.9,3.5-4.6h-9c-.6,0-1-.4-1-1.2,0-.8.3-1.3,1-1.4h20.4c.6,0,1,.4,1,1.1,0,.8-.3,1.3-1,1.5h-8.5c0,.9.4,1.6.9,2.3.5.7,1.2,1.3,2.2,1.9,1.6,1,3.2,1.6,4.8,2,.8.2,1.2.3,1.4.4.6.2.8.6.8,1.1,0,.8-.5,1.2-1.5,1.2-1.1,0-2.5-.4-4.2-1.1-2.6-1.1-4.5-2.5-5.9-4.3Z"/>
    <path class="cls-1" d="M158.7,47v-24.4c0-.8.4-1.1,1.3-1.1.8,0,1.2.4,1.3,1.1v24.4c0,.2,0,.4-.2.6-.2.4-.6.5-1.1.6-.8,0-1.2-.4-1.3-1.1Z"/>
  </g>
  <path class="cls-1" d="M173.9,21.9c1.6,0,3,.3,4.4.9,2.7,1.2,4.1,3.2,4.1,6s-.4,2.5-1.1,3.5c-1.5,2.2-4,3.3-7.4,3.3s-3.1-.3-4.4-.9c-2.8-1.2-4.1-3.2-4.1-5.9s.4-2.5,1.1-3.5c1.5-2.2,4-3.3,7.4-3.3ZM167.8,46v-2.4c0-1.4.7-2.2,2.1-2.4.2,0,.5,0,.9,0h15.2c.6,0,.9-.2.9-.7h0c0-.6-.3-.8-.9-.8h-17.5c-.6,0-1-.4-1-1.2,0-.8.3-1.3,1-1.4h18.9c1.2,0,2,.7,2.2,2.1v2.2c0,1.4-.7,2.2-2.2,2.4-.2,0-.5,0-.9,0h-15.4c-.5,0-.8.2-.9.7v.3c0,.5.3.7.9.7h18c.6,0,1,.4,1,1.2,0,.8-.3,1.3-1,1.4h-19.3c-1.3,0-2-.7-2.2-2.1ZM173.9,24.5c-1,0-1.9.2-2.9.5-1.8.6-2.8,1.8-2.8,3.5,0,.9.2,1.7.7,2.4,1,1.4,2.7,2,5,2,1.2,0,2.2-.2,3.1-.6,1.8-.8,2.6-2.1,2.6-3.7,0-.7-.3-1.4-.8-2-1-1.3-2.7-2-5-2ZM186.9,35.2v-12.6c0-.8.5-1.1,1.4-1.1s1.3.4,1.4,1.1v12.6c0,.9-.5,1.4-1.4,1.4s-1.4-.5-1.4-1.4Z"/>
  <path class="cls-1" d="M208.7,36.9v1.8c0,.8-.5,1.2-1.4,1.2s-1.3-.4-1.4-1.2v-1.8h-10.7c-.7,0-1-.4-1-1.3s.3-1.2,1-1.3h23.7c.7,0,1,.4,1,1.3s-.3,1.2-1,1.3h-10.2ZM217.8,25h-21.5c-.7,0-1-.4-1-1.3s.3-1.2,1-1.3h21.5c.7,0,1,.4,1,1.3s-.3,1.2-1,1.3ZM200.5,29.9l-.5-3.5c0-.8.4-1.1,1.4-1.1s1.3.4,1.4,1.1l.5,3.5h7.7l.5-3.5c0-.8.6-1.1,1.4-1.1s1.3.4,1.4,1.1l-.5,3.5h4c.7,0,1,.4,1,1.3s-.3,1.2-1,1.3h-21.2c-.7,0-1-.4-1-1.3s.3-1.2,1-1.3h4ZM198.2,38.9h17.7c1.4,0,2.1.9,2.2,2.8v3.7c0,1.7-.7,2.6-2.2,2.8h-17.7c-1.4,0-2.2-.9-2.2-2.8v-3.7c0-.8.1-1.4.3-1.8.3-.5.9-.9,1.9-1ZM199.6,41.5c-.2,0-.3,0-.4,0-.3,0-.4.4-.5.9v2.2c0,.6.3.9.9.9h14.9c.6,0,.8-.3.9-.9v-2.2c0-.6-.3-.9-.9-.9h-14.9Z"/>
  <path class="cls-1" d="M73.2,53.8v-25.3l10.5-3.2v9.8c11.1-3.2,17.2-7,17.1-9.8,0-2.1-1.5-4.7-8.4-4.7-3.6.1-8,.5-14.5,2.2-4.2,1-8.5,2.1-13.3,4.8-2.7,1.2-10,7.2-9.5,9.9.7,4.9,11.1,5.2,18.8,5.9-15.9,1-21.6-3.8-21.9-6.4-.2-5.4,6.9-12,16.7-16.5,7.6-3.6,15.7-5.2,23.6-5.8,14-.1,19,2.8,20,8,.5,6.9-11.8,14.9-28.8,18.8v8.6l-10.5,3.6Z"/>
  <path class="cls-1" d="M79.8,13.4c2.6,0,4.8-2,4.8-4.4s-2.2-4.5-4.8-4.5-4.9,2.1-4.9,4.5,2.2,4.4,4.9,4.4Z"/>
  <metadata>
    <sfw xmlns="http://ns.adobe.com/SaveForWeb/1.0/">
      <slices/>
      <sliceSourceBounds x="52.08" y="4.44" width="167.84" height="49.32" bottomLeftOrigin="true"/>
    </sfw>
  </metadata>
</svg>