<?xml version="1.0" encoding="UTF-8"?>
<svg id="Layer_1" data-name="Layer 1" xmlns="http://www.w3.org/2000/svg" width="272" height="58.2" version="1.1" viewBox="0 0 272 58.2">
  <defs>
    <style>
      .cls-1 {
        fill: #505050;
      }

      .cls-1, .cls-2, .cls-3, .cls-4 {
        stroke-width: 0px;
      }

      .cls-2 {
        fill: #e8e8e8;
      }

      .cls-3 {
        fill: #fff;
      }

      .cls-4 {
        fill: #fcfcfc;
      }
    </style>
  </defs>
  <path class="cls-2" d="M31.7,19.8c0-.1,0-.2,0-.3,0,0,.1,0,0-.2.6-3.1,3.4-5.4,6.6-5.5,1.2,0,2.4,0,3.6,0,1,0,2.1,0,3.1,0,.3,0,.4,0,.4-.4.4-3.8,3.3-6.4,7.1-6.4,3.4,0,6.7,0,10.1,0,3.7,0,6.6,2.6,7,6.3,0,.4.2.4.5.4,2.1,0,4.2,0,6.4,0,4,0,7,3.1,7,7,0,4.5,0,9,0,13.6,0,.2,0,.3,0,.5-.7-.2-1.3-.5-1.9-.9-.7-.5-1.1-1.2-1-2.1,0-.7.3-1.4.7-2,.1-.2.2-.3,0-.5,0-.2-.3-.2-.4-.2-1,.2-1.9.5-2.7,1.2-.7.6-1.3,1.4-1.8,2.2-1,1.3-2.2,2.2-3.9,2.5,0-.1,0-.3,0-.4.4-1.4.5-2.9.4-4.3-.3-4.7-2.3-8.6-6.1-11.5-3.9-3-8.3-4-13.1-2.8-5.9,1.5-9.6,5.3-11.4,11-.8,2.7-.7,5.4,0,8.1-1.4,0-2.6-.4-3.7-1.2-.7-.5-1.1-1.2-1-2.1,0-.7.3-1.4.7-2,.1-.2.2-.3,0-.5-.1-.2-.3-.2-.4-.2-1,.2-1.9.5-2.7,1.2-.6.6-1.1,1.2-1.6,1.9-.6.8-1.2,1.5-2.1,2h-.2c0-4.7,0-9.3,0-13.9,0-.1,0-.3,0-.4.1,0,.1-.2,0-.3ZM37.7,21.6c1.1,0,2-.9,2-2,0-1.1-.9-2-2-2-1.1,0-2,.9-2,2,0,1.1.9,2,2,2Z"/>
  <path class="cls-3" d="M72.7,35.1c1.7-.2,2.9-1.2,3.9-2.5.6-.7,1.1-1.5,1.8-2.2.8-.7,1.7-1,2.7-1.2.2,0,.3,0,.4.2.1.2,0,.3,0,.5-.5.6-.6,1.2-.7,2,0,.9.3,1.6,1,2.1.6.4,1.2.8,1.9.9,0,.1,0,.3,0,.4,0,2.1,0,4.2,0,6.3,0,3.5-2.7,6.5-6.1,6.8-.2,0-.5,0-.8,0-10.6,0-21.1,0-31.7,0-2.3,0-4.7,0-7,0-3.1-.1-5.9-2.8-6.3-5.8,0-.4,0-.7,0-1.1,0-2.3,0-4.6,0-7,0,0,.1,0,.2-.1.9-.5,1.5-1.2,2.1-2,.5-.7,1-1.3,1.6-1.9.8-.7,1.7-1,2.7-1.2.2,0,.3,0,.4.2.1.2,0,.3,0,.5-.4.6-.6,1.2-.7,2,0,.9.3,1.6,1,2.1,1.1.9,2.3,1.2,3.7,1.2,0,0,0,0,0,0,1.1,3.8,3.4,6.8,6.7,9,3.4,2.1,7,2.8,11,2.2,2.2-.4,4.2-1.2,6-2.5,2.5-1.7,4.4-4,5.6-6.8.3-.7.5-1.4.8-2.1Z"/>
  <path class="cls-3" d="M214.1,25.3c0,1.1-.2,2.2-.2,3.4,0,.7,0,.7.7.6.2,0,.4,0,.7,0,.2.6.7,1,1.1,1.3,1.1.8,2.3,1.2,3.6,1.3,1.5.1,3,0,4.4-.8.9-.5,1.7-1.3,2.3-2.1.3-.4.7-.8.9-1.3.2,0,.3-.1.3-.3.2-.2.4-.4.6-.6.9-.9,2.1-1.4,3.4-1.6.2,0,.4,0,.5.2.1.2,0,.4,0,.5-.1.1-.2.3-.3.4-.9,1.8-.9,3.4,1,4.6,2.2,1.3,4.5,1.4,6.9.6.2,0,.4-.2.6-.2,0,1.4-1.1,2.5-2.5,2.5-1,0-2-.3-3-.5-.5-.1-.9-.3-1.4-.3-.2,0-.3,0-.3.2,0,1.1-.1,2.3-.1,3.4,0,3.4-1,6.6-2.6,9.6-.1.3-.3.5-.5.7-.3.3-.7.3-1,.2-.3-.1-.5-.4-.5-.8,0-.7,0-1.3.3-1.9.3-.9,0-1.7,0-2.6-.3-2.3-.7-4.6-.8-7,0-.7,0-1.4,0-2.1,0-.4-.2-.4-.4-.3-1.6.3-3.2.5-4.8.8-1.9.3-3.7.7-5.6,1-1.2.2-2.2.7-3.2,1.4-.6.4-1.2.7-2,.7-.3,0-.6-.1-.8-.3-1-1-1.8-2.1-2.4-3.4-.3-.7-.3-1.5,0-2.2,0-.1.2-.2.3-.3.2,0,.2-.1.3-.2.8-.8,1.4-1.8,2.1-2.6.7-.8,1.5-1.4,2.6-1.7Z"/>
  <path class="cls-2" d="M134.7,31.6c-.9,0-1.3-.4-1.3-1.2,0-.4.3-.7.8-.8.4-.1.8-.1,1.2,0,.7,0,1.2-.2,1.8-.6,1.7-1.2,3.2-2.7,4.5-4.4.9-1.2,1.8-2.4,2.3-3.7.1-.2.2-.5.3-.7,0-.2,0-.3-.3-.3-.5.2-1,.4-1.4.6-.9.5-1.8.5-2.8.1-1.1-.5-2.2-1.1-3-2-.5-.5-.6-1.1-.4-1.6.2-.6.7-.8,1.3-.9,1-.1,1.9,0,2.9,0,1.7,0,3.4,0,5.1-.4.7-.2,1.4-.4,2.1-.8,1.5-.8,3-.8,4.5-.2,1.6.7,1.9,1.8,1.6,3.3-.1.8-1.2,1.5-2,1.5-1.1,0-2.2,0-3.3-.2,0,0,0,0,0,0,.3.4.7.7,1,1.1.7.8.8,1.9,0,2.7-.2.2-.3.4-.5.6q-.3.4.1.5c.8.3,1.7.5,2.6.7.9.2,1.6.7,2.1,1.4.6.9.6,1.8.5,2.8,0,.5-.1,1-.4,1.4-.6.2-1,.7-1.6.9,0,0,0,0,0,.1-.5,0-1-.1-1.4-.5-.9-.9-1.7-1.9-2.6-2.8-.5-.5-1.1-1-1.7-1.5-.2-.2-.4-.1-.6,0-.7.7-1.5,1.3-2.3,1.8,0-1,.2-1.9.9-2.8.1-.1.2-.3,0-.5-.1-.2-.3-.3-.5-.2,0,0-.2,0-.3,0-1.7.3-3.1,1.3-4.1,2.7-.6.8-1.2,1.6-1.8,2.2-.9.9-1.9,1.4-3.1,1.7Z"/>
  <path class="cls-2" d="M171.7,29.7c-.2-1.5-.3-2.9-.5-4.4-.2-1.4-.8-2.5-2-3.4-.5-.4-.9-.8-.9-1.6,0-.8.5-1.4,1.2-1.5.9-.2,1.8-.1,2.6,0,.8.2,1.6.5,2.3.9.9.5,1.6,1.2,1.5,2.4,0,.6,0,.6.6.3.5-.3.8-.7,1.4-.8.9-.1,1.9,0,2.8.4,0-.7-.2-1.3-.4-1.9-.3-.7-.7-1.3-1-2-.3-.5-.3-1.1-.3-1.6,0-.6.8-1.2,1.5-1.3,1.5-.1,2.7.6,3.9,1.5.4.3.7.7,1,1,1,.9,1.2,2,.8,3.3-.2.5-.2,1-.2,1.5,0,1.6,0,3.2-.2,4.7,0,.8-.2,1.6-.7,2.3-.1.2,0,.3,0,.5.2.4.4.7.4,1.2,0,0-.2,0-.3,0-1,.3-1.9.3-2.9.2-1.1,0-2.1-.4-3-.9-.4-.2-.8-.5-1-.9.1,0,.2,0,.4-.1.7-.2,1.4-.4,2.2-.6.2,0,.4,0,.3-.3,0-.7-.1-1.5-.1-2.2,0-.3,0-.4-.4-.3-.9.3-1.8.3-2.7.3,0-.4.3-.6.5-1,.1-.2.2-.4,0-.6-.1-.2-.3-.2-.5-.2-.8,0-1.6.3-2.3.8-1.1.6-1.8,1.5-2.5,2.5-.4.5-.7,1.1-1.3,1.5Z"/>
  <path class="cls-2" d="M240.4,31.1c-.2,0-.4.1-.6.2-2.4.8-4.7.7-6.9-.6-1.9-1.1-1.9-2.8-1-4.6,0-.1.2-.3.3-.4.1-.2.2-.3,0-.5-.1-.2-.3-.2-.5-.2-1.3.2-2.4.7-3.4,1.6-.2.2-.4.4-.6.6-.1-.6,0-1.3,0-1.9,0-3,0-6,0-9,0-.8-.2-1.4-.7-2-.7-.9-1.5-1.6-2.4-2.3-.3-.2-.6-.5-.6-.9,0-.7.5-1.4,1.2-1.5,1.2-.2,2.4-.2,3.5.3,1.4.5,2.6,1.2,3.7,2.2.7.6.9,1.4.8,2.3,0,.5,0,1,0,1.5,0,4.3,0,8.7,0,13,0,0,0,.2,0,.3.5-.1.8-.3,1.2-.5,1.4-.8,4.5-.4,5.6,1.5.2.4.3.8.3,1.3Z"/>
  <path class="cls-2" d="M117.7,26.6c0-1.1,0-2.1,0-3.2,0-2.3,0-4.7,0-7,0-.5-.2-.9-.4-1.4-.6-1.1-1.4-2-2.2-2.9-.1-.1-.3-.3-.4-.4-.5-.4-.6-1-.3-1.5.2-.6.8-.8,1.4-.9,1.5-.1,2.9.3,4.2,1.1,1.1.6,2.1,1.3,3,2.2.4.4.6.8.5,1.3-.1,2.2,0,4.5-.1,6.7,0,2.7,0,5.5,0,8.2,0,0,0,0,0,0,.2,0,.4-.1.6-.2,1.1-.9,2.3-.8,3.5-.6.8.1,1.5.4,2.1.9.6.6.8,1.2.7,2-.9.4-1.9.7-2.9.8-1.9.2-3.7-.2-5.3-1.4-.7-.6-1.2-1.4-1.1-2.4,0-.8.4-1.6.8-2.2.1-.2.2-.4,0-.6-.1-.2-.4-.2-.6-.2-1.2.2-2.3.6-3.2,1.5,0,0-.2.2-.3.2Z"/>
  <path class="cls-2" d="M190.7,26.6c0-.2,0-.3,0-.5,0-3.2,0-6.4,0-9.6,0-1.1-.5-2-1.2-2.7-.5-.5-1.1-1.1-1.7-1.5-.6-.4-.9-1-.6-1.7.2-.7.8-.9,1.5-1,2.8-.2,5,1,6.9,2.9.7.7.5,1.6.5,2.4,0,.4,0,.8,0,1.2,0,4,0,8,0,12,0,.6,0,.6.6.4.6-.2,1.2-.6,1.9-.7,1.2-.1,2.3,0,3.4.6.7.4,1.2,1,1.1,1.9,0,.3,0,.6,0,.9,0,0-.2,0-.2,0-1.2.6-2.5.7-3.9.6-1.3,0-2.5-.5-3.5-1.2-.7-.5-1.3-1.2-1.3-2.2,0-.9.3-1.8.8-2.6.1-.2.2-.3.1-.5-.1-.2-.3-.3-.5-.3-.4,0-.7.1-1.1.2-1,.3-1.8.9-2.5,1.5Z"/>
  <path class="cls-2" d="M109.3,31.9c-.6-1-1.2-2-1.9-2.9-.4-.5-.9-.9-1.3-1.4-.2-.1-.3-.1-.4,0-.4.3-.8.6-1.2.9,0-1,.2-2,.8-2.8.1-.2.2-.3.1-.6-.1-.2-.3-.2-.5-.2-1.5.2-2.8.9-3.8,2-.8.9-1.4,1.9-2.2,2.7-1.2,1.3-2.7,1.9-4.4,2-.4,0-.5-.2-.7-.5-.3-.6.1-1.4.8-1.5.3,0,.6,0,.8,0,.8,0,1.4-.2,2-.6,1.6-1.1,3-2.4,4.4-3.9,1.1-1.2,2.1-2.4,3-3.8.2-.3.2-.6,0-.9-.4-.6-.8-1.2-1.1-1.9-.3-.9-.1-1.9.6-2.5.8-.6,1.7-.5,2.5,0,1.4.7,2.5,1.7,3.4,3,.7.9,1,1.9.9,3.1,0,.3-.1.6-.3.9-.5.6-1,1.1-1.6,1.6-.4.3-.4.3,0,.6.9.4,1.9.7,2.7,1.2,1.2.6,1.9,1.6,2,3,0,.6,0,1.1,0,1.7,0,0-.1,0-.2,0-1.2.6-2.6.8-3.9.8-.1,0-.2,0-.3,0Z"/>
  <path class="cls-3" d="M145.3,34.4c1.8,0,3.4.7,4.9,1.7.9.7,1.3,1.6,1.1,2.7,0,.7-.2,1.5-.3,2.2,0,0,0,.2,0,.2,0,.5,0,.6.5.5,1.4-.2,2.7-.4,4.1-.6,1.2-.2,2.4-.4,3.6-.4,1.5,0,2.5,1.1,2.3,2.7-.2,1.1-.7,1.8-1.7,2.1-1.9.6-3.9,1.1-5.9,1.3-1.5.1-2.7-.3-3.8-1.3-1-.9-2-1.9-2.8-3.1-.5-.7-.7-1.6-1.2-2.3-.4-.7-.9-1.3-1.5-1.9-.3-.3-.5-.6-.8-.9-.4-.5-.4-1.2-.4-1.8,0-.5.8-1,1.5-1.1.2,0,.3,0,.5,0Z"/>
  <path class="cls-2" d="M214.1,25.3c-1.1.3-1.9,1-2.6,1.7-.7.8-1.3,1.8-2.1,2.6,0,0-.2.2-.3.2.6-1.2.9-2.6,1-3.9,0-.5,0-1,0-1.5,0-.3-.2-.3-.4-.4-.9-.4-1.8-.7-2.6-1.4-.6-.5-1.3-1.1-1.3-2,0-.9.5-1.5,1.4-1.7,1-.3,2-.2,3,0,1,.1,2.1,0,3.1,0,1.9-.2,3.7-.9,5.5-1.6,1-.4,2.1-.5,3.1-.3,1.1.2,2.2,1.6,2.3,2.6.1,1.6-.9,2.6-2.1,3-1.2.3-2.4.4-3.6.6-1.3.2-2.7.4-4,.7-.2,0-.2.1-.2.3,0,.4,0,.8,0,1.2Z"/>
  <path class="cls-2" d="M156.9,26.6c-.1-.2,0-.4,0-.6,0-3.1,0-6.2,0-9.3,0-1.5-.5-2.7-1.5-3.8-.5-.5-.9-1.1-1.5-1.5-.5-.4-.6-.9-.4-1.3.2-.5.6-.8,1.2-.8,1.2-.1,2.3,0,3.4.5,1.3.6,2.5,1.3,3.5,2.2.8.7.9,1.5.8,2.4,0,.6-.1,1.1-.1,1.7,0,3.1,0,6.3,0,9.4,0,1.7,0,3.5-.4,5.2-1.2-.5-1.9-1.8-1.7-3,.1-.8.4-1.4.8-2.1.1-.2.2-.3,0-.5-.1-.2-.3-.2-.5-.2-1,.2-1.9.4-2.7,1.1-.3.2-.5.5-.9.6Z"/>
  <path class="cls-3" d="M117.7,26.6c.1,0,.2,0,.3-.2.9-.9,2-1.3,3.2-1.5.2,0,.4,0,.6.2.1.2,0,.4,0,.6-.5.7-.8,1.4-.8,2.2-.1,1,.3,1.8,1.1,2.4,1.6,1.2,3.4,1.6,5.3,1.4,1,0,2-.3,2.9-.8,0,.8-.2,1.5-.8,2-.2.2-.5.3-.7.3-1.3,0-2.5-.2-3.8-.4-.4,0-.9,0-1.3-.1-.2,0-.3,0-.3.3,0,1.1-.1,2.2-.3,3.3-.3,1.9-.6,3.7-1.2,5.5-.4,1.4-.8,2.7-1.5,4-.2.3-.3.6-.6.8-.4.4-1,.3-1.3,0-.1-.1-.1-.2-.1-.4,0-.6,0-1.2.2-1.8.4-1.1.2-2.2,0-3.3-.3-2.4-.6-4.7-.7-7.1,0-2.3,0-4.6-.1-7,0-.2,0-.4,0-.5Z"/>
  <path class="cls-3" d="M190.7,26.6c.8-.6,1.6-1.2,2.5-1.5.4,0,.7-.2,1.1-.2.2,0,.4,0,.5.3.1.2,0,.4-.1.5-.6.8-.8,1.6-.8,2.6,0,1,.6,1.7,1.3,2.2,1,.8,2.2,1.2,3.5,1.2,1.3,0,2.6,0,3.9-.6,0,0,.2,0,.2,0,0,.7-.5,1.3-1,1.7-.2.2-.5.2-.7.2-1.2,0-2.4-.2-3.5-.4-.5,0-.9-.2-1.4-.3-.3,0-.3,0-.3.2,0,1.1,0,2.2-.1,3.3-.1,3.1-.8,6.1-2.1,9-.3.7-.6,1.5-1.2,2-.3.3-.7.3-1,.2-.3,0-.4-.4-.4-.7,0-.8,0-1.5.2-2.3.2-.8,0-1.6,0-2.4-.2-1.9-.5-3.8-.6-5.8-.2-3.1-.1-6.1-.1-9.2,0,0,0,0,0-.1Z"/>
  <path class="cls-3" d="M171.7,29.7c.6-.4.9-1,1.3-1.5.7-1,1.5-1.9,2.5-2.5.7-.4,1.5-.7,2.3-.8.2,0,.4,0,.5.2.1.2,0,.4,0,.6-.2.3-.4.6-.5,1-.4,0-.9,0-1.3,0-.2,0-.3,0-.3.3,0,1,.1,1.9.2,2.9,0,.2,0,.2.2.2.5-.1,1.1-.2,1.6-.3.2.5.6.7,1,.9.9.5,2,.8,3,.9,1,0,2,0,2.9-.2,0,0,.2,0,.3,0,0,.1,0,.2,0,.3,0,.9-.5,1.6-1.4,1.8-.3,0-.6.2-.9.2-1.4,0-2.7.1-4,.4-.9.1-1.8.1-2.7,0-.2,0-.3,0-.3.2-.1.2-.3.4-.5.7-.4.6-1,.7-1.7.6-.2,0-.3-.1-.5-.2-.6-.5-.9-1.1-1.1-1.7-.4-1.3-.6-2.5-.7-3.9Z"/>
  <path class="cls-3" d="M156.9,26.6c.4,0,.6-.4.9-.6.8-.6,1.8-.9,2.7-1.1.2,0,.4,0,.5.2.1.2,0,.4,0,.5-.4.6-.7,1.3-.8,2.1-.2,1.2.5,2.5,1.7,3-.2,1.6-.8,3-1.4,4.5-.3.8-.7,1.5-1,2.3-.1.3-.3.5-.4.7-.3.4-.7.4-1.1.3-.4-.1-.5-.5-.5-.8,0-.5,0-1,.2-1.4.4-1.1.3-2.1,0-3.2-.3-1.9-.7-3.9-.7-5.8,0-.2,0-.4,0-.5Z"/>
  <path class="cls-2" d="M227.5,27.5c-.2.5-.6.9-.9,1.3-.6.8-1.4,1.6-2.3,2.1-1.4.8-2.9,1-4.4.8-1.3,0-2.5-.5-3.6-1.3-.5-.4-.9-.7-1.1-1.3,1.7-.2,3.4-.5,5.1-.7,1.7-.2,3.4-.5,5.1-.7.7,0,1.4-.3,2.1-.3Z"/>
  <path class="cls-3" d="M94.3,31.7c1.8,0,3.2-.7,4.4-2,.8-.9,1.5-1.8,2.2-2.7,1-1.2,2.3-1.8,3.8-2,.2,0,.4,0,.5.2.1.2,0,.4-.1.6-.6.8-.9,1.8-.8,2.8-1.5,1.2-3.1,2.2-5,2.7-1.6.4-3.1.9-4.7.7-.1,0-.3,0-.4-.2Z"/>
  <path class="cls-3" d="M134.7,31.6c1.2-.3,2.3-.8,3.1-1.7.7-.7,1.3-1.5,1.8-2.2,1.1-1.4,2.4-2.3,4.1-2.7,0,0,.2,0,.3,0,.2,0,.4,0,.5.2.1.2,0,.4,0,.5-.6.8-.9,1.7-.9,2.8-2.2,1.6-4.5,2.8-7.3,3.2-.5,0-1.1,0-1.7,0Z"/>
  <path class="cls-3" d="M109.3,31.9c0-.1.2,0,.3,0,1.4,0,2.7-.2,3.9-.8,0,0,.1,0,.2,0-.1.7-.5,1.2-1.1,1.7-.3.2-.5.3-.9.3-.1,0-.3,0-.4,0-1,.1-1.6-.3-2.1-1.1Z"/>
  <path class="cls-1" d="M152.1,31.3s0-.1,0-.1c.6-.2,1-.6,1.6-.9-.4.6-.9,1.1-1.7,1Z"/>
  <path class="cls-1" d="M31.7,19.8c0,.1,0,.2,0,.3,0,0,0-.2,0-.3Z"/>
  <path class="cls-1" d="M31.8,19.3c0,0,0,.1,0,.2,0,0,0-.1,0-.2Z"/>
  <path class="cls-1" d="M31.8,34.4c0,0,0,.1-.2.1,0,0,0-.1,0-.2h.2Z"/>
  <path class="cls-4" d="M72.7,35.1c-.3.7-.5,1.4-.8,2.1-1.2,2.8-3.1,5.1-5.6,6.8-1.8,1.3-3.8,2.1-6,2.5-3.9.7-7.6,0-11-2.2-3.4-2.1-5.6-5.1-6.7-9,0,0,0,0,0,0-.7-2.7-.8-5.4,0-8.1,1.7-5.8,5.5-9.5,11.4-11,4.8-1.2,9.2-.2,13.1,2.8,3.8,2.9,5.8,6.8,6.1,11.5,0,1.5,0,2.9-.4,4.3,0,.1,0,.3,0,.4ZM69.5,34.9c0-.5.3-.9.4-1.3.5-2.7.2-5.4-1-7.8-2.8-5.7-9.2-8.4-15.2-6.4-6.3,2.1-9.8,8.7-8,15.2,0,.1,0,.3.1.4.8,2.4,2.1,4.3,4.1,5.9,2.7,2.2,5.8,3.1,9.3,2.7,4-.5,7.1-2.5,9.3-6,.5-.8,1-1.7,1.2-2.7Z"/>
  <path class="cls-4" d="M37.7,21.6c-1.1,0-2-.9-2-2,0-1.1.9-2,2-2,1.1,0,2,.9,2,2,0,1.1-.9,2-2,2Z"/>
  <path class="cls-3" d="M178.3,29.9c-.5,0-1.1.1-1.6.3-.2,0-.2,0-.2-.2,0-1-.1-1.9-.2-2.9,0-.2,0-.3.3-.3.4,0,.9,0,1.3,0,.9,0,1.8,0,2.7-.3.3-.1.4,0,.4.3,0,.7,0,1.5.1,2.2,0,.3-.2.3-.3.3-.7.2-1.4.4-2.2.6-.1,0-.2,0-.4.1Z"/>
  <path class="cls-2" d="M45.6,34.5c-1.7-6.5,1.7-13.1,8-15.2,6-2,12.4.6,15.2,6.4,1.2,2.5,1.5,5.1,1,7.8,0,.5-.3.9-.4,1.3-1-.1-1.8-.6-2.5-1.3-.6-.6-.7-1.3-.5-2,.1-.6.3-1.1.7-1.6.1-.1.2-.3,0-.5,0-.2-.3-.2-.4-.2-1.1.2-2.1.6-2.9,1.3-.7.7-1.3,1.5-1.9,2.3-2.2,3-6.7,2.8-8.7,1.2-.7-.5-1.3-1.2-1.2-2.2,0-.7.3-1.4.7-2,.1-.2.3-.3,0-.5-.1-.2-.3-.2-.5-.1-1.4.2-2.6.9-3.5,2.1-.7.9-1.3,1.8-2.1,2.5-.4.3-.7.7-1.2.7Z"/>
  <path class="cls-3" d="M45.6,34.5c.5,0,.9-.4,1.2-.7.9-.7,1.5-1.6,2.1-2.5.9-1.1,2.1-1.8,3.5-2.1.2,0,.4,0,.5.1.2.2,0,.4,0,.5-.4.6-.7,1.3-.7,2,0,1,.4,1.6,1.2,2.2,2.1,1.6,6.5,1.8,8.7-1.2.6-.8,1.2-1.6,1.9-2.3.8-.8,1.8-1.1,2.9-1.3.2,0,.3,0,.4.2.1.2,0,.3,0,.5-.4.5-.6,1-.7,1.6-.1.8,0,1.5.5,2,.7.7,1.5,1.2,2.5,1.3-.2,1-.6,1.9-1.2,2.7-2.2,3.4-5.3,5.5-9.3,6-3.4.4-6.6-.5-9.3-2.7-1.9-1.6-3.3-3.5-4.1-5.9,0-.1,0-.3-.1-.4Z"/>
  <metadata>
    <sfw xmlns="http://ns.adobe.com/SaveForWeb/1.0/">
      <slices/>
      <sliceSourceBounds x="31.63" y="9.69" width="208.83" height="41.37" bottomLeftOrigin="true"/>
    </sfw>
  </metadata>
</svg>