<?xml version="1.0" encoding="UTF-8"?>
<svg id="Layer_1" data-name="Layer 1" xmlns="http://www.w3.org/2000/svg" width="272" height="58.2" version="1.1" viewBox="0 0 272 58.2">
  <defs>
    <style>
      .cls-1 {
        fill: #eaeaea;
      }

      .cls-1, .cls-2, .cls-3, .cls-4 {
        stroke-width: 0px;
      }

      .cls-2 {
        fill: #3e77b3;
      }

      .cls-3 {
        fill: #fff;
      }

      .cls-4 {
        fill: #bfbfbf;
      }
    </style>
  </defs>
  <g>
    <g>
      <path class="cls-3" d="M69.9,19h9.2v1.6h-3.5v1.3c0,.5.1.8.4,1.2.7.8,2.3,2.1,3.7,3l-1.1,1.3c-1.4-1-2.9-2.1-4.1-3.2-1.2,1.3-2.8,2.8-4.3,3.9l-1.2-1.3c1.5-1.1,3.2-2.6,4-3.6.3-.4.4-.8.4-1.3v-1.3h-3.7v-1.6ZM78.3,36.2c-3.4,0-5.2-1.7-5.2-3.8s1.8-3.9,5.2-3.9,5.2,1.7,5.2,3.9-1.8,3.8-5.2,3.8ZM78.3,30.1c-2.1,0-3.3.9-3.3,2.3s1.2,2.3,3.3,2.3,3.3-.9,3.3-2.3-1.2-2.3-3.3-2.3ZM83.4,28.4h-1.9v-10.3h1.9v10.3Z"/>
      <path class="cls-3" d="M85.8,26.5c1.7-.8,4-2,5.1-2.7.7-.5,1.1-.9,1.1-1.9v-1.2h-6.1v-1.6h8v2.8c0,.1,0,.2,0,.4h3.2v-4.1h1.9v9.5h-1.9v-3.9h-3.6c-.2.4-.6.8-1,1.1-1.6,1.1-4,2.4-5.7,3.2l-.9-1.5ZM89.7,35.6c-.1,0-.3,0-.4-.2-.2-.1-.6-.5-.8-.7,0-.1-.2-.3-.2-.5v-5.4h10.7v6.8h-9.3ZM97.1,30.3h-6.9v3.3c0,.2.2.4.4.4h6.5v-3.7Z"/>
      <path class="cls-3" d="M102.8,30.3c-.2,0-.3,0-.5-.2-.2-.1-.6-.6-.8-.7,0-.1-.2-.3-.2-.5v-9.5h7.5v1.6h-5.6v7.4c0,.3.2.4.4.4h3c1.2,0,2.8-.1,3.9-.3l.2,1.5c-1,.2-2.9.3-4.1.3h-3.8ZM113.7,35.4h-1.9v-17.3h1.9v5.7h3.1v1.6h-3.1v10Z"/>
      <path class="cls-3" d="M119.4,28.6c0,.3.2.4.4.4h3.7c1.2,0,2.8-.1,3.9-.3l.2,1.5c-1,.2-2.9.3-4.1.3h-4.6c-.2,0-.3,0-.5-.1-.2-.1-.6-.5-.8-.8,0-.1-.2-.3-.2-.5v-5.1h6.3v-3.1h-6.2v-1.6h8.1v6.2h-6.3v3ZM130.5,35.4h-1.9v-17.3h1.9v17.3Z"/>
      <path class="cls-3" d="M133.1,25.3v-1.6h3.6c.9,0,1.8,0,2.7-.1v-2.7h-6.1v-1.6h8v4.1c0,.1,0,.2,0,.4h3.1v-5.7h1.9v17.3h-1.9v-10.1h-3.5c-.1.3-.4.7-.6,1-1.2,1.6-3.4,4-5,5.5l-1.3-1.2c1.5-1.4,3.4-3.4,4.5-4.8.1-.2.3-.4.4-.6-.7,0-1.5.1-2.2.1h-3.5Z"/>
      <path class="cls-3" d="M157.7,29.7h-4.4v6h-1.9v-6h-3.9v-1.6h16v1.6h-3.8v6h-1.9v-6ZM151.3,26.2c-.1,0-.3,0-.4-.2-.2-.1-.6-.5-.8-.7,0-.1-.2-.3-.2-.5v-5.8h11.1v7.2h-9.8ZM159.1,20.6h-7.3v3.6c0,.2.2.4.4.4h6.9v-4Z"/>
      <path class="cls-3" d="M166.3,30.2c-.1,0-.3,0-.5-.2-.2-.2-.6-.5-.8-.7-.1-.1-.2-.3-.2-.5v-9.4h1.9v8.8c0,.2.2.4.4.4h3.2c1.2,0,2.8-.1,3.9-.3l.2,1.5c-1,.2-2.9.3-4.1.3h-4.1ZM177.5,35.4h-1.9v-17.3h1.9v17.3Z"/>
      <path class="cls-3" d="M179.5,25.3v-1.6h2.9c.7,0,1.5,0,2.2-.1v-2.8h-4.9v-1.6h6.8v4.1c0,.1,0,.3,0,.4h2.2v-5.6h1.9v16.8h-1.9v-9.7h-2.5c-.1.3-.3.6-.5,1-.9,1.5-2.7,3.8-3.9,5.2l-1.4-1.2c1.3-1.4,2.7-3.3,3.6-4.6l.3-.5c-.6,0-1.2,0-1.8,0h-2.9ZM192.1,18.1h1.9v17.3h-1.9v-17.3Z"/>
      <path class="cls-3" d="M200.4,30.3c-2.8,0-4.9-1.9-4.9-5.6s2.1-5.6,4.9-5.6,4.9,1.9,4.9,5.6-2.1,5.6-4.9,5.6ZM200.4,20.7c-1.7,0-3,1.3-3,4s1.2,4,3,4,3-1.3,3-4-1.3-4-3-4ZM209.1,35.4h-1.9v-17.3h1.9v17.3Z"/>
      <path class="cls-3" d="M211.7,28.7l-1.3-1.3c1.4-1.3,3.1-3.1,3.9-4.2.3-.4.4-.8.4-1.3v-3.3h2v3.3c0,.5.1.8.4,1.2.8.9,2.3,2.6,3.6,3.7l-1.2,1.2c-1.3-1.1-2.8-2.7-3.8-3.9-1,1.4-2.6,3.1-4.1,4.4ZM225.4,35.5h-9.9c-.1,0-.3,0-.5-.1-.2-.2-.6-.5-.8-.8,0-.1-.2-.3-.2-.5v-4.5h2v3.9c0,.3.2.4.4.4h9v1.6ZM219.6,20.2h3.3v-2.1h1.9v12.3h-1.9v-5.5h-3.3v-1.6h3.3v-1.5h-3.3v-1.6Z"/>
      <path class="cls-3" d="M226.6,26.7c0-2.7.9-6.9,2.3-9.3l1.4.9c-1.3,2.4-1.9,6-1.9,8.5v.3c0,2.5.6,6.2,1.9,8.5l-1.4.9c-1.5-2.4-2.3-6.6-2.3-9.3v-.6Z"/>
      <path class="cls-3" d="M237.4,29.8h-7.1v-1.6h16v1.6h-7v5.9h-1.9v-5.9ZM232.4,19.1h11.8v1.6h-4.9v.7c0,.3,0,.8.4,1,1.1.8,3.5,2,5.4,2.9l-.9,1.5c-1.8-.8-4.4-2.1-5.9-3.2-1.5,1-4,2.3-5.9,3.2l-.9-1.5c2-.9,4.3-2.1,5.4-2.9.3-.3.4-.7.4-1v-.7h-5v-1.6Z"/>
      <path class="cls-3" d="M250,27.3c0,2.7-.9,6.9-2.4,9.3l-1.4-.9c1.3-2.3,2-6,2-8.5v-.3c0-2.5-.6-6.2-2-8.5l1.4-.9c1.5,2.4,2.4,6.6,2.4,9.3v.6Z"/>
    </g>
    <g>
      <path class="cls-3" d="M71.1,47c0-2.1.5-4,3-4s1.7.2,2.3.6l-.3.6c-.5-.3-1.3-.5-2-.5-1.9,0-2.3,1.6-2.3,3.3s.3,3.3,2.2,3.3,1.3-.1,1.8-.3v-2.6h-1.7v-.6h2.4v3.6c-.7.4-1.5.6-2.5.6-2.5,0-3-1.9-3-4Z"/>
      <path class="cls-3" d="M79.7,50.9s0,0-.2,0c0,0-.2-.2-.2-.2,0,0,0-.1,0-.2v-7.3h2.2c2.3,0,3.1,1.6,3.1,3.9s-.8,3.9-3.1,3.9h-1.8ZM80,50.1c0,0,0,.1.1.1h1.5c1.7,0,2.2-1.3,2.2-3.3s-.5-3.3-2.2-3.3h-1.6v6.4Z"/>
      <path class="cls-3" d="M89.2,45.3c.7,0,1.2.1,1.7.3l-.2.6c-.4-.1-1-.2-1.5-.2-1.2,0-1.7.7-1.7,2.2s.5,2.2,1.7,2.2,1.2-.1,1.6-.3l.2.6c-.6.3-1.2.4-1.9.4-1.7,0-2.4-1.1-2.4-2.8s.7-2.8,2.4-2.8Z"/>
      <path class="cls-3" d="M95.4,51c-1.7,0-2.4-1-2.4-2.8s.7-2.8,2.4-2.8,2.4,1,2.4,2.8-.7,2.8-2.4,2.8ZM95.4,50.4c1.2,0,1.7-.8,1.7-2.2s-.5-2.2-1.7-2.2-1.7.8-1.7,2.2.5,2.2,1.7,2.2Z"/>
      <path class="cls-3" d="M100.2,50.9v-5.1c.7-.2,1.4-.4,2-.4s1.2.1,1.5.4c.5-.2,1.1-.4,1.7-.4,1.4,0,2,.6,2,2v3.5h-.7v-3.5c0-1.1-.4-1.4-1.3-1.4s-.9.1-1.3.3c0,.3.1.6.1,1.1v3.5h-.7v-3.5c0-1.1-.2-1.4-1.3-1.4s-.8,0-1.2.2v4.7h-.7Z"/>
      <path class="cls-3" d="M109.9,50.9v-5.1c.7-.2,1.4-.4,2-.4s1.2.1,1.5.4c.5-.2,1.1-.4,1.7-.4,1.4,0,2,.6,2,2v3.5h-.7v-3.5c0-1.1-.4-1.4-1.3-1.4s-.9.1-1.3.3c0,.3.1.6.1,1.1v3.5h-.7v-3.5c0-1.1-.2-1.4-1.3-1.4s-.8,0-1.2.2v4.7h-.7Z"/>
      <path class="cls-3" d="M123.9,45.4v5.1c-.6.2-1.3.4-2.1.4-1.4,0-2.1-.6-2.1-2.1v-3.4h.7v3.4c0,1.1.4,1.5,1.4,1.5s.9,0,1.4-.2v-4.7h.7Z"/>
      <path class="cls-3" d="M126.5,50.9v-5.1c.6-.2,1.3-.4,2.1-.4,1.4,0,2.1.6,2.1,2.1v3.4h-.7v-3.4c0-1.1-.4-1.5-1.4-1.5s-.9,0-1.4.2v4.7h-.7Z"/>
      <path class="cls-3" d="M134.4,43v1.1h-1.1v-1.1h1.1ZM133.5,50.9v-5.4h.7v5.4h-.7Z"/>
      <path class="cls-3" d="M139.1,45.3c.7,0,1.2.1,1.7.3l-.2.6c-.4-.1-1-.2-1.5-.2-1.2,0-1.7.7-1.7,2.2s.5,2.2,1.7,2.2,1.2-.1,1.6-.3l.2.6c-.6.3-1.2.4-1.9.4-1.7,0-2.4-1.1-2.4-2.8s.7-2.8,2.4-2.8Z"/>
      <path class="cls-3" d="M144.9,51c-1.3,0-2-.6-2-1.8s.6-1.7,1.9-1.7,1.1,0,1.5,0v-.2c0-1-.4-1.5-1.3-1.5s-1,0-1.5.2l-.2-.6c.6-.2,1.2-.3,1.7-.3,1.4,0,2,.7,2,2.1v3.1c-.8.3-1.6.4-2.2.4ZM146.4,48.2c-.4,0-1,0-1.4,0-1,0-1.3.5-1.3,1.1s.3,1.1,1.3,1.1,1,0,1.4-.2v-1.9Z"/>
      <path class="cls-3" d="M152.4,45.4v.6h-1.4v3.7c0,.4.2.6.6.6s.5,0,.8,0v.5c-.2,0-.6.1-.9.1-.8,0-1.2-.5-1.2-1.2v-3.7h-1v-.6h1v-1.6h.7v1.6h1.4Z"/>
      <path class="cls-3" d="M155.6,43v1.1h-1.1v-1.1h1.1ZM154.7,50.9v-5.4h.7v5.4h-.7Z"/>
      <path class="cls-3" d="M160.4,51c-1.6,0-2.4-1-2.4-2.8s.8-2.8,2.4-2.8,2.4,1,2.4,2.8-.8,2.8-2.4,2.8ZM160.4,50.4c1.2,0,1.7-.8,1.7-2.2s-.5-2.2-1.7-2.2-1.7.8-1.7,2.2.5,2.2,1.7,2.2Z"/>
      <path class="cls-3" d="M165.1,50.9v-5.1c.6-.2,1.3-.4,2.1-.4,1.4,0,2.1.6,2.1,2.1v3.4h-.7v-3.4c0-1.1-.4-1.5-1.4-1.5s-1,0-1.4.2v4.7h-.7Z"/>
      <path class="cls-3" d="M176,47c0-2.1.5-4,3-4s1.5.2,2.2.6l-.3.6c-.5-.3-1.2-.5-1.9-.5-1.9,0-2.2,1.6-2.2,3.3s.3,3.3,2.2,3.3,1.6-.3,2.1-.6l.3.6c-.7.5-1.5.7-2.4.7-2.5,0-3-1.9-3-4Z"/>
      <path class="cls-3" d="M185.7,51c-1.6,0-2.4-1-2.4-2.8s.7-2.8,2.4-2.8,2.4,1,2.4,2.8-.7,2.8-2.4,2.8ZM185.7,50.4c1.2,0,1.7-.8,1.7-2.2s-.5-2.2-1.7-2.2-1.7.8-1.7,2.2.5,2.2,1.7,2.2Z"/>
      <path class="cls-3" d="M191.4,50.2v1.1h-1.1v-1.1h1.1Z"/>
      <path class="cls-3" d="M195.3,50.1v.8c0,.6-.2,1.3-.5,1.8h-.4c.2-.5.4-1,.4-1.6h-.6v-1.1h1.1Z"/>
      <path class="cls-3" d="M199.1,50.1c0,0,0,.1.1.1h3.9v.6h-4.3c0,0-.1,0-.2,0,0,0-.2-.2-.2-.2,0,0,0-.1,0-.2v-7.3h.7v7Z"/>
      <path class="cls-3" d="M207.9,45.4v.6h-1.4v3.7c0,.4.2.6.6.6s.5,0,.8,0v.5c-.2,0-.6.1-.9.1-.8,0-1.2-.5-1.2-1.2v-3.7h-1.1v-.6h1.1v-1.6h.7v1.6h1.4Z"/>
      <path class="cls-3" d="M209.8,48.1c0-1.8.8-2.8,2.3-2.8s.9,0,1.3.2v-2.7h.7v7.8c-.8.3-1.4.4-2,.4-1.5,0-2.3-1-2.3-2.8ZM213.4,46.2c-.4-.1-.9-.2-1.3-.2-1.1,0-1.6.7-1.6,2.2s.5,2.2,1.6,2.2.8,0,1.3-.2v-3.9Z"/>
      <path class="cls-3" d="M217.7,50.2v1.1h-1.1v-1.1h1.1Z"/>
    </g>
  </g>
  <path class="cls-1" d="M32.5,21.1c2.8.2,7.4.6,12.9,1.3,4.1.6,7.9,3.1,10.2,6.8,1.5-1.6,2.5-3.9,2.3-7-.1-1.7-.2-4.4-4.9-5.5-4.7-1.1,3-7.6-5.5-10.4,0,0-24-6.4-25.4,14.9,0,0-.2,6.4,5.4,10.3.6-3,1.2-5.9,1.6-7.8.3-1.6,1.8-2.8,3.5-2.7Z"/>
  <path class="cls-3" d="M49,33c-11.2,2.7-17.7,1.3-21.6-1.4-1.1,5.4-2.3,11.5-2.9,15-.3,1.7.7,3.3,2.4,3.8,6.7,1.9,23.2,5.5,28.5-4.3,3.6-6.4,2.9-12.5.2-16.9-2,2.2-4.7,3.3-6.6,3.7Z"/>
  <path class="cls-2" d="M49,33c1.8-.4,4.6-1.5,6.6-3.7-2.3-3.7-6.1-6.2-10.2-6.8-5.4-.8-10.1-1.2-12.9-1.3-1.7,0-3.2,1-3.5,2.7-.4,2-1,4.8-1.6,7.8,3.8,2.6,10.4,4.1,21.6,1.4Z"/>
  <path class="cls-4" d="M49,33c1.8-.4,4.6-1.5,6.6-3.7-2.3-3.7-6.1-6.2-10.2-6.8-5.4-.8-10.1-1.2-12.9-1.3-1.7,0-3.2,1-3.5,2.7-.4,2-1,4.8-1.6,7.8,3.8,2.6,10.4,4.1,21.6,1.4Z"/>
  <metadata>
    <sfw xmlns="http://ns.adobe.com/SaveForWeb/1.0/">
      <slices/>
      <sliceSourceBounds x="22" y="5.49" width="228" height="47.22" bottomLeftOrigin="true"/>
    </sfw>
  </metadata>
</svg>